<?xml version="1.0" encoding="UTF-8"?>
<!DOCTYPE svg PUBLIC "-//W3C//DTD SVG 1.1//EN" "http://www.w3.org/Graphics/SVG/1.1/DTD/svg11.dtd">
<svg xmlns="http://www.w3.org/2000/svg" version="1.1" width="200px" height="137px" style="shape-rendering:geometricPrecision; text-rendering:geometricPrecision; image-rendering:optimizeQuality; fill-rule:evenodd; clip-rule:evenodd" xmlns:xlink="http://www.w3.org/1999/xlink">
<g><path style="opacity:0.8" fill="#013b7a" d="M 47.5,-0.5 C 49.5,-0.5 51.5,-0.5 53.5,-0.5C 18.7831,20.1458 8.61639,49.4791 23,87.5C 29.7448,99.9124 39.4115,109.246 52,115.5C 52.7494,116.635 52.5827,117.635 51.5,118.5C 17.2416,104.32 3.74156,78.9867 11,42.5C 17.616,23.3894 29.7826,9.05604 47.5,-0.5 Z"/></g>
<g><path style="opacity:0.736" fill="#013a79" d="M 52.5,15.5 C 50.5956,15.7376 49.2623,16.7376 48.5,18.5C 46.9731,18.427 45.9731,19.0937 45.5,20.5C 44.5,20.8333 43.8333,21.5 43.5,22.5C 42.8333,22.5 42.5,22.8333 42.5,23.5C 40.8333,24.5 39.5,25.8333 38.5,27.5C 36.4131,28.5846 35.0798,30.2512 34.5,32.5C 33.6618,32.8417 33.3284,33.5084 33.5,34.5C 32.0937,34.9731 31.427,35.9731 31.5,37.5C 24.5837,50.351 22.7504,64.0176 26,78.5C 28.351,84.169 30.351,89.8357 32,95.5C 17.4698,73.3546 16.8031,50.688 30,27.5C 46.9076,3.97693 69.4076,-3.8564 97.5,4C 107.244,7.61921 115.744,13.1192 123,20.5C 123.749,21.635 123.583,22.635 122.5,23.5C 104.322,7.49753 83.6553,3.33087 60.5,11C 57.6089,12.2742 54.9422,13.7742 52.5,15.5 Z M 48.5,18.5 C 48.5,19.1667 48.5,19.8333 48.5,20.5C 47.5,20.5 46.5,20.5 45.5,20.5C 45.9731,19.0937 46.9731,18.427 48.5,18.5 Z"/></g>
<g><path style="opacity:0.774" fill="#6ac4d0" d="M 48.5,20.5 C 48.5,19.8333 48.5,19.1667 48.5,18.5C 49.2623,16.7376 50.5956,15.7376 52.5,15.5C 55.0044,16.6022 57.5044,16.2688 60,14.5C 64.0395,15.7564 68.2061,16.423 72.5,16.5C 72.67,17.8221 72.3366,18.9887 71.5,20C 74.9233,19.8551 76.9233,21.3551 77.5,24.5C 67.8755,22.8403 58.2088,21.5069 48.5,20.5 Z"/></g>
<g><path style="opacity:0.836" fill="#6ac3d0" d="M 45.5,20.5 C 46.5,20.5 47.5,20.5 48.5,20.5C 66.3468,24.0892 84.3468,27.5892 102.5,31C 105.402,32.9397 106.402,35.4397 105.5,38.5C 84.6321,34.0776 63.6321,30.4109 42.5,27.5C 42.5,26.1667 42.5,24.8333 42.5,23.5C 43.1667,23.5 43.5,23.1667 43.5,22.5C 43.8333,21.5 44.5,20.8333 45.5,20.5 Z"/></g>
<g><path style="opacity:0.736" fill="#69c3d0" d="M 84.5,20.5 C 87.7117,21.8043 91.045,22.8043 94.5,23.5C 97.2441,22.5094 99.9107,22.8427 102.5,24.5C 103.939,26.3432 103.772,28.0099 102,29.5C 95.9248,28.0699 89.7582,26.9032 83.5,26C 82.2427,23.9235 82.576,22.0902 84.5,20.5 Z"/></g>
<g><path style="opacity:0.796" fill="#6cc3cf" d="M 38.5,27.5 C 61.5013,31.6001 84.5013,35.7667 107.5,40C 110.402,41.9397 111.402,44.4397 110.5,47.5C 85.8902,42.7695 61.2235,38.2695 36.5,34C 35.5842,33.7216 34.9175,33.2216 34.5,32.5C 35.0798,30.2512 36.4131,28.5846 38.5,27.5 Z"/></g>
<g><path style="opacity:0.732" fill="#003b7b" d="M 84.5,136.5 C 76.1667,136.5 67.8333,136.5 59.5,136.5C 27.5719,128.905 7.57185,109.238 -0.5,77.5C -0.5,69.5 -0.5,61.5 -0.5,53.5C 1.06378,49.313 2.56378,44.9797 4,40.5C 5.91569,35.9327 8.58236,31.9327 12,28.5C -3.3093,60.9572 1.85737,89.7905 27.5,115C 49.11,131.318 72.7767,134.985 98.5,126C 108.819,121.927 117.652,115.76 125,107.5C 125.667,108.833 125.667,110.167 125,111.5C 114.141,124.335 100.641,132.669 84.5,136.5 Z"/></g>
<g><path style="opacity:0.806" fill="#6cc3ce" d="M 33.5,34.5 C 60.0646,39.6454 86.7313,44.4788 113.5,49C 116.206,49.6008 118.206,51.1008 119.5,53.5C 121.976,52.771 124.476,52.1043 127,51.5C 128.5,51.6667 129.333,52.5 129.5,54C 128.852,55.4397 128.519,56.9397 128.5,58.5C 96.1513,52.9263 63.818,47.2597 31.5,41.5C 31.5,40.1667 31.5,38.8333 31.5,37.5C 31.427,35.9731 32.0937,34.9731 33.5,34.5 Z"/></g>
<g><path style="opacity:0.809" fill="#6cc2ce" d="M 102.5,55.5 C 98.3528,56.3247 94.0195,56.8247 89.5,57C 91.6175,57.2602 93.2842,58.2602 94.5,60C 94.2716,60.3988 93.9382,60.5654 93.5,60.5C 90.8333,60.1667 88.1667,59.8333 85.5,59.5C 86.3984,58.8423 87.3984,58.1757 88.5,57.5C 83.8333,56.1667 79.1667,56.1667 74.5,57.5C 74.9569,58.2975 75.6236,58.6309 76.5,58.5C 76.5,59.1667 76.8333,59.5 77.5,59.5C 79.7528,61.4503 80.0861,63.7837 78.5,66.5C 63.9046,63.6225 49.2379,60.9558 34.5,58.5C 34.2009,56.027 33.2009,53.8603 31.5,52C 31.8361,50.9701 32.5028,50.4701 33.5,50.5C 28.6762,48.5153 28.3429,45.8486 32.5,42.5C 55.8386,46.8345 79.172,51.1678 102.5,55.5 Z M 33.5,50.5 C 46.9434,52.185 60.2767,54.5184 73.5,57.5C 73.1667,57.8333 72.8333,58.1667 72.5,58.5C 59.3136,56.1402 46.3136,53.4735 33.5,50.5 Z"/></g>
<g><path style="opacity:1" fill="#07467a" d="M 85.5,59.5 C 84.8333,59.5 84.5,59.8333 84.5,60.5C 83.2437,62.7257 83.2437,65.059 84.5,67.5C 84.5,67.8333 84.5,68.1667 84.5,68.5C 83.1667,70.8333 83.1667,73.1667 84.5,75.5C 84.5,75.8333 84.5,76.1667 84.5,76.5C 83.9032,77.1386 83.0698,77.472 82,77.5C 80.3009,77.6134 79.1342,76.9468 78.5,75.5C 78.5,75.1667 78.5,74.8333 78.5,74.5C 79.8333,72.1667 79.8333,69.8333 78.5,67.5C 78.5,67.1667 78.5,66.8333 78.5,66.5C 80.0861,63.7837 79.7528,61.4503 77.5,59.5C 76.8333,59.5 76.5,59.1667 76.5,58.5C 75.6236,58.6309 74.9569,58.2975 74.5,57.5C 79.1667,56.1667 83.8333,56.1667 88.5,57.5C 87.3984,58.1757 86.3984,58.8423 85.5,59.5 Z"/></g>
<g><path style="opacity:0.995" fill="#094a7d" d="M 102.5,55.5 C 105.206,55.5751 107.873,55.9084 110.5,56.5C 112.147,59.4735 114.147,62.1401 116.5,64.5C 116.5,64.8333 116.5,65.1667 116.5,65.5C 115.532,67.6074 115.198,69.9407 115.5,72.5C 115.267,74.0618 114.6,75.3951 113.5,76.5C 111.326,76.7497 109.659,77.7497 108.5,79.5C 106.5,79.5 104.5,79.5 102.5,79.5C 100.658,79.7233 98.825,80.0566 97,80.5C 95.5657,80.1382 94.3991,79.4715 93.5,78.5C 93.5,78.1667 93.5,77.8333 93.5,77.5C 94.8333,75.1667 94.8333,72.8333 93.5,70.5C 93.5,69.8333 93.5,69.1667 93.5,68.5C 94.7563,66.2743 94.7563,63.941 93.5,61.5C 93.5,61.1667 93.5,60.8333 93.5,60.5C 93.9382,60.5654 94.2716,60.3988 94.5,60C 93.2842,58.2602 91.6175,57.2602 89.5,57C 94.0195,56.8247 98.3528,56.3247 102.5,55.5 Z M 99.5,62.5 C 99.5,62.1667 99.5,61.8333 99.5,61.5C 102.546,62.062 105.546,62.7287 108.5,63.5C 108.5,63.8333 108.5,64.1667 108.5,64.5C 105.37,64.3003 102.37,63.6336 99.5,62.5 Z M 99.5,71.5 C 99.5,71.1667 99.5,70.8333 99.5,70.5C 102.57,70.3677 105.57,70.701 108.5,71.5C 108.5,71.8333 108.5,72.1667 108.5,72.5C 105.482,72.2962 102.482,71.9629 99.5,71.5 Z"/></g>
<g><path style="opacity:0.82" fill="#6dc3cf" d="M 110.5,56.5 C 115.787,57.7146 121.12,58.7146 126.5,59.5C 126.822,61.7224 126.155,63.5557 124.5,65C 121.779,65.6015 119.113,65.4349 116.5,64.5C 114.147,62.1401 112.147,59.4735 110.5,56.5 Z"/></g>
<g><path style="opacity:0.729" fill="#73c9d3" d="M 108.5,63.5 C 105.546,62.7287 102.546,62.062 99.5,61.5C 100.152,60.2749 101.319,59.6083 103,59.5C 106.133,59.1419 107.967,60.4752 108.5,63.5 Z"/></g>
<g><path style="opacity:0.529" fill="#6ac3cd" d="M 38.5,60.5 C 40.861,60.6741 43.1944,61.0074 45.5,61.5C 45.5,62.5 45.5,63.5 45.5,64.5C 43.4086,64.6816 41.4086,64.3482 39.5,63.5C 38.6143,62.675 38.281,61.675 38.5,60.5 Z"/></g>
<g><path style="opacity:0.837" fill="#6ec4d0" d="M 84.5,60.5 C 87.4824,60.9629 90.4824,61.2962 93.5,61.5C 94.7563,63.941 94.7563,66.2743 93.5,68.5C 90.4824,68.2962 87.4824,67.9629 84.5,67.5C 83.2437,65.059 83.2437,62.7257 84.5,60.5 Z"/></g>
<g><path style="opacity:0.847" fill="#6dc4cf" d="M 99.5,62.5 C 102.37,63.6336 105.37,64.3003 108.5,64.5C 109.947,65.1342 110.613,66.3009 110.5,68C 110.613,69.6991 109.947,70.8658 108.5,71.5C 105.57,70.701 102.57,70.3677 99.5,70.5C 99.5,67.8333 99.5,65.1667 99.5,62.5 Z"/></g>
<g><path style="opacity:0.809" fill="#6bc1cd" d="M 78.5,67.5 C 79.8333,69.8333 79.8333,72.1667 78.5,74.5C 74.5457,73.6187 70.5457,72.9521 66.5,72.5C 66.6985,70.0401 67.3652,67.7067 68.5,65.5C 71.7906,66.3818 75.124,67.0484 78.5,67.5 Z"/></g>
<g><path style="opacity:0.693" fill="#013c7b" d="M 168.5,86.5 C 168.167,86.5 167.833,86.5 167.5,86.5C 162.992,86.7307 158.325,86.3973 153.5,85.5C 152.833,85.8333 152.167,86.1667 151.5,86.5C 150.048,85.6981 148.382,85.1981 146.5,85C 141.41,77.4405 140.41,77.9405 143.5,86.5C 143.167,86.5 142.833,86.5 142.5,86.5C 137.943,86.3509 133.276,86.3509 128.5,86.5C 127.833,86.5 127.5,86.1667 127.5,85.5C 127.33,84.1779 127.663,83.0113 128.5,82C 126.833,81.3333 125.167,81.3333 123.5,82C 124.337,83.0113 124.67,84.1779 124.5,85.5C 124.167,85.5 123.833,85.5 123.5,85.5C 121.901,85.2322 120.568,85.5655 119.5,86.5C 118.876,86.0831 118.543,85.4164 118.5,84.5C 121.489,79.2427 124.489,73.9094 127.5,68.5C 129.769,72.7048 131.769,77.0381 133.5,81.5C 134.689,82.4287 136.022,82.762 137.5,82.5C 137.768,77.6529 137.102,72.9862 135.5,68.5C 139.967,68.1326 144.3,68.6326 148.5,70C 151.25,73.0124 150.917,75.679 147.5,78C 148.532,80.8739 150.532,82.3739 153.5,82.5C 153.768,77.6529 153.102,72.9862 151.5,68.5C 157.842,68.3338 164.175,68.5005 170.5,69C 173.379,70.6658 174.212,73.1658 173,76.5C 170.785,77.6545 168.952,79.1545 167.5,81C 169.286,82.6828 169.619,84.5161 168.5,86.5 Z M 141.5,71.5 C 143.346,71.2222 144.68,71.8888 145.5,73.5C 144.68,75.1112 143.346,75.7778 141.5,75.5C 141.5,74.1667 141.5,72.8333 141.5,71.5 Z M 158.5,71.5 C 159.833,71.5 161.167,71.5 162.5,71.5C 162.5,75.1667 162.5,78.8333 162.5,82.5C 161.167,82.5 159.833,82.5 158.5,82.5C 158.5,78.8333 158.5,75.1667 158.5,71.5 Z M 167.5,71.5 C 169.852,72.5426 170.019,73.8759 168,75.5C 167.51,74.2068 167.343,72.8734 167.5,71.5 Z"/></g>
<g><path style="opacity:0.831" fill="#6dc3cf" d="M 84.5,68.5 C 87.5827,68.916 90.5827,69.5826 93.5,70.5C 94.8333,72.8333 94.8333,75.1667 93.5,77.5C 90.6888,76.525 87.6888,75.8583 84.5,75.5C 83.1667,73.1667 83.1667,70.8333 84.5,68.5 Z"/></g>
<g><path style="opacity:0.737" fill="#023a79" d="M 183.5,86.5 C 183.167,86.5 182.833,86.5 182.5,86.5C 182.167,86.5 181.833,86.5 181.5,86.5C 174.484,83.6029 172.651,78.6029 176,71.5C 179.795,68.1966 183.962,67.6966 188.5,70C 193.631,77.6194 191.964,83.1194 183.5,86.5 Z M 180.5,71.5 C 184.522,71.0184 186.522,72.8518 186.5,77C 186.025,78.7633 185.358,80.43 184.5,82C 182.567,82.7826 181.067,82.2826 180,80.5C 179.366,77.4453 179.532,74.4453 180.5,71.5 Z"/></g>
<g><path style="opacity:0.71" fill="#69c2cf" d="M 116.5,65.5 C 118.042,66.1635 119.709,66.8302 121.5,67.5C 120.069,69.9377 118.069,71.6044 115.5,72.5C 115.198,69.9407 115.532,67.6074 116.5,65.5 Z"/></g>
<g><path style="opacity:0.949" fill="#6ec4cf" d="M 99.5,71.5 C 102.482,71.9629 105.482,72.2962 108.5,72.5C 108.489,74.0174 107.823,75.1841 106.5,76C 104.19,76.4966 101.857,76.6633 99.5,76.5C 99.5,74.8333 99.5,73.1667 99.5,71.5 Z"/></g>
<g><path style="opacity:0.114" fill="#6bc8d2" d="M 113.5,76.5 C 112.963,79.741 111.296,80.741 108.5,79.5C 109.659,77.7497 111.326,76.7497 113.5,76.5 Z"/></g>
<g><path style="opacity:0.361" fill="#000000" d="M 123.5,85.5 C 123.833,85.5 124.167,85.5 124.5,85.5C 124.369,86.2389 124.536,86.9056 125,87.5C 125.708,86.6195 126.542,85.9528 127.5,85.5C 127.5,86.1667 127.833,86.5 128.5,86.5C 131.641,87.3213 134.975,87.8213 138.5,88C 139,88.5 139.5,89 140,89.5C 140.236,87.8807 141.069,86.8807 142.5,86.5C 142.833,86.5 143.167,86.5 143.5,86.5C 144.397,87.5981 145.23,87.5981 146,86.5C 147.678,88.4747 149.512,88.4747 151.5,86.5C 152.167,86.1667 152.833,85.8333 153.5,85.5C 154.871,86.7868 156.705,87.4535 159,87.5C 161.225,87.4351 163.392,87.1018 165.5,86.5C 166.738,90.3107 167.404,90.3107 167.5,86.5C 167.833,86.5 168.167,86.5 168.5,86.5C 172.864,87.774 177.197,87.774 181.5,86.5C 181.833,87.8333 182.167,87.8333 182.5,86.5C 182.833,86.5 183.167,86.5 183.5,86.5C 183.783,87.2891 184.283,87.9558 185,88.5C 186.441,87.7402 187.941,87.0736 189.5,86.5C 192.83,87.7391 196.163,87.7391 199.5,86.5C 199.5,88.5 199.5,90.5 199.5,92.5C 194.3,91.9092 188.966,92.0759 183.5,93C 186.164,95.3548 185.997,97.5215 183,99.5C 174.552,98.919 165.885,98.5857 157,98.5C 155.216,101.003 153.549,101.003 152,98.5C 149.076,100.442 146.409,99.7752 144,96.5C 143.059,98.0614 141.892,99.3947 140.5,100.5C 137.5,99.8333 134.5,99.1667 131.5,98.5C 128.92,100.994 126.253,100.994 123.5,98.5C 121.844,100.022 120.677,99.689 120,97.5C 119.692,98.3081 119.192,98.9747 118.5,99.5C 117.83,96.5734 117.497,93.74 117.5,91C 118.044,89.415 118.711,87.915 119.5,86.5C 121.375,88.0781 122.708,87.7448 123.5,85.5 Z M 142.5,86.5 C 141.069,86.8807 140.236,87.8807 140,89.5C 139.5,89 139,88.5 138.5,88C 134.975,87.8213 131.641,87.3213 128.5,86.5C 133.276,86.3509 137.943,86.3509 142.5,86.5 Z M 138.5,92.5 C 137.739,93.3909 136.739,94.0576 135.5,94.5C 131.704,93.2533 127.871,93.2533 124,94.5C 123.25,93.8742 122.416,93.3742 121.5,93C 127.157,92.5006 132.824,92.3339 138.5,92.5 Z M 140.5,93.5 C 142.035,92.2121 143.701,92.2121 145.5,93.5C 143.93,93.7376 142.263,93.7376 140.5,93.5 Z M 151.5,93.5 C 155.646,92.353 159.98,92.1864 164.5,93C 159.818,94.2139 155.485,94.3805 151.5,93.5 Z M 166.5,92.5 C 168.857,92.3367 171.19,92.5034 173.5,93C 170.966,94.9336 168.633,94.767 166.5,92.5 Z M 177.5,92.5 C 179.199,92.3398 180.866,92.5065 182.5,93C 181.192,93.8238 179.692,94.3238 178,94.5C 177.536,93.9056 177.369,93.2389 177.5,92.5 Z"/></g>
<g><path style="opacity:0.42" fill="#524343" d="M 99.5,85.5 C 103.083,86.0073 106.417,87.0073 109.5,88.5C 108.508,88.3284 107.842,88.6618 107.5,89.5C 104.946,88.612 102.279,88.2786 99.5,88.5C 99.5,87.5 99.5,86.5 99.5,85.5 Z"/></g>
<g><path style="opacity:0.968" fill="#6cbeca" d="M 78.5,75.5 C 79.1342,76.9468 80.3009,77.6134 82,77.5C 83.0698,77.472 83.9032,77.1386 84.5,76.5C 87.454,77.2713 90.454,77.938 93.5,78.5C 94.3991,79.4715 95.5657,80.1382 97,80.5C 98.825,80.0566 100.658,79.7233 102.5,79.5C 105.627,80.5808 108.96,81.2474 112.5,81.5C 112.674,83.861 113.007,86.1944 113.5,88.5C 112.167,88.5 110.833,88.5 109.5,88.5C 106.417,87.0073 103.083,86.0073 99.5,85.5C 97.7839,85.3713 96.1172,85.038 94.5,84.5C 90.768,84.0157 87.1013,83.349 83.5,82.5C 82.1779,82.67 81.0113,82.3366 80,81.5C 78.1285,84.8212 79.2951,86.1546 83.5,85.5C 86.8756,87.0823 90.5422,87.7489 94.5,87.5C 95.9187,88.4511 97.5853,88.7845 99.5,88.5C 102.279,88.2786 104.946,88.612 107.5,89.5C 112.709,88.7052 114.709,90.7052 113.5,95.5C 112.675,96.3857 111.675,96.719 110.5,96.5C 98.4774,93.3301 86.144,91.3301 73.5,90.5C 73.3796,88.8014 73.0463,87.1347 72.5,85.5C 72.5288,83.9707 73.1955,82.804 74.5,82C 71.2947,80.6338 68.9614,78.3005 67.5,75C 67.8333,74.5 68.1667,74 68.5,73.5C 71.757,74.5514 75.0903,75.2181 78.5,75.5 Z"/></g>
<g><path style="opacity:1" fill="#0c477c" d="M 94.5,84.5 C 96.1172,85.038 97.7839,85.3713 99.5,85.5C 99.5,86.5 99.5,87.5 99.5,88.5C 97.5853,88.7845 95.9187,88.4511 94.5,87.5C 94.5,86.5 94.5,85.5 94.5,84.5 Z"/></g>
<g><path style="opacity:1" fill="#585a5c" d="M 83.5,82.5 C 87.1013,83.349 90.768,84.0157 94.5,84.5C 94.5,85.5 94.5,86.5 94.5,87.5C 90.5422,87.7489 86.8756,87.0823 83.5,85.5C 83.5,84.5 83.5,83.5 83.5,82.5 Z"/></g>
<g><path style="opacity:1" fill="#0f487c" d="M 83.5,82.5 C 83.5,83.5 83.5,84.5 83.5,85.5C 79.2951,86.1546 78.1285,84.8212 80,81.5C 81.0113,82.3366 82.1779,82.67 83.5,82.5 Z"/></g>
<g><path style="opacity:1" fill="#3a4c6a" d="M 73.5,90.5 C 86.144,91.3301 98.4774,93.3301 110.5,96.5C 108.585,96.2155 106.919,96.5489 105.5,97.5C 97.1375,96.7234 88.8042,95.5567 80.5,94C 77.5547,93.861 75.2214,92.6943 73.5,90.5 Z"/></g>
<g><path style="opacity:1" fill="#6cc0cb" d="M 73.5,90.5 C 75.2214,92.6943 77.5547,93.861 80.5,94C 88.8042,95.5567 97.1375,96.7234 105.5,97.5C 106.675,97.281 107.675,97.6143 108.5,98.5C 107.069,100.938 105.069,102.604 102.5,103.5C 94.8261,100.924 86.8261,99.591 78.5,99.5C 76.3157,98.7337 73.9823,98.0671 71.5,97.5C 70.3691,95.9255 70.2025,94.2588 71,92.5C 71.4169,91.244 72.2502,90.5774 73.5,90.5 Z"/></g>
<g><path style="opacity:1" fill="#4c4849" d="M 73.5,99.5 C 75.1667,99.5 76.8333,99.5 78.5,99.5C 86.8261,99.591 94.8261,100.924 102.5,103.5C 101.833,103.5 101.5,103.833 101.5,104.5C 91.7273,104.455 82.394,102.789 73.5,99.5 Z"/></g>
<g><path style="opacity:0.899" fill="#6bc0cc" d="M 73.5,99.5 C 82.394,102.789 91.7273,104.455 101.5,104.5C 102.833,104.5 104.167,104.5 105.5,104.5C 105.774,108.202 104.108,110.535 100.5,111.5C 100.389,110.883 100.056,110.383 99.5,110C 92.221,108.62 84.8877,107.786 77.5,107.5C 76.791,106.596 75.791,106.263 74.5,106.5C 74.5228,104.4 73.8561,102.567 72.5,101C 72.5699,100.235 72.9033,99.7352 73.5,99.5 Z"/></g>
<g><path style="opacity:1" fill="#534f50" d="M 77.5,108.5 C 77.5,108.167 77.5,107.833 77.5,107.5C 84.8877,107.786 92.221,108.62 99.5,110C 100.056,110.383 100.389,110.883 100.5,111.5C 99.209,111.263 98.209,111.596 97.5,112.5C 90.5785,111.951 83.9118,110.617 77.5,108.5 Z"/></g>
<g><path style="opacity:0.78" fill="#6cc2cd" d="M 77.5,108.5 C 83.9118,110.617 90.5785,111.951 97.5,112.5C 98.5,112.5 99.5,112.5 100.5,112.5C 100.027,116.638 97.6935,118.638 93.5,118.5C 93.5,119.833 93.5,121.167 93.5,122.5C 90.1165,122.34 86.7831,122.673 83.5,123.5C 81.0254,122.323 80.0254,120.323 80.5,117.5C 84.4761,118.331 88.4761,118.497 92.5,118C 87.7804,117.214 83.1137,116.214 78.5,115C 75.5261,112.758 75.1928,110.592 77.5,108.5 Z"/></g>
</svg>
