<svg width="21" height="15" viewBox="0 0 21 15" fill="none" xmlns="http://www.w3.org/2000/svg">
<g clip-path="url(#clip0_504_55)">
<mask id="mask0_504_55" style="mask-type:alpha" maskUnits="userSpaceOnUse" x="0" y="0" width="21" height="15">
<path d="M19 0H2C0.89543 0 0 0.89543 0 2V13C0 14.1046 0.89543 15 2 15H19C20.1046 15 21 14.1046 21 13V2C21 0.89543 20.1046 0 19 0Z" fill="white"/>
</mask>
<g mask="url(#mask0_504_55)">
<path d="M19 0H2C0.89543 0 0 0.89543 0 2V13C0 14.1046 0.89543 15 2 15H19C20.1046 15 21 14.1046 21 13V2C21 0.89543 20.1046 0 19 0Z" fill="#FE3030"/>
<path fill-rule="evenodd" clip-rule="evenodd" d="M0 0H11V9H0V0Z" fill="#0909B6"/>
<path d="M19 0.5H2C1.17157 0.5 0.5 1.17157 0.5 2V13C0.5 13.8284 1.17157 14.5 2 14.5H19C19.8284 14.5 20.5 13.8284 20.5 13V2C20.5 1.17157 19.8284 0.5 19 0.5Z" stroke="black" stroke-opacity="0.1"/>
<path fill-rule="evenodd" clip-rule="evenodd" d="M6 5.83333L4.85195 7.10497L4.93934 5.39399L3.22836 5.48138L4.5 4.33333L3.22836 3.18528L4.93934 3.27267L4.85195 1.56169L6 2.83333L7.14805 1.56169L7.06066 3.27267L8.77164 3.18528L7.5 4.33333L8.77164 5.48138L7.06066 5.39399L7.14805 7.10497L6 5.83333Z" fill="white"/>
</g>
</g>
<defs>
<clipPath id="clip0_504_55">
<rect width="21" height="15" fill="white"/>
</clipPath>
</defs>
</svg>
