<svg width="225" height="199" viewBox="0 0 225 199" fill="none" xmlns="http://www.w3.org/2000/svg">
    <path d="M38.8056 171.255H190.581C212.486 171.255 227.144 150.128 218.258 131.361C215.273 125.057 214.839 117.95 217.038 111.369L223 93.521C229.214 74.9173 215.725 55.6334 195.045 53.5566L192.914 53.3426C180.332 52.0791 169.957 43.5366 166.999 32.0048C161.601 10.9613 133.89 3.32881 117.203 18.2892L108.154 26.4028C99.8514 33.8462 88.2821 37.1703 76.9557 35.3667L75.2983 35.1028C51.8739 31.3727 31.3456 50.0764 34.6604 72.1287C36.461 84.1074 31.1031 96.046 20.7086 103.217L16.0886 106.404C7.3162 112.455 1.70544 121.719 0.658488 131.881C-1.51591 152.986 16.1839 171.255 38.8056 171.255Z" fill="#FFF7F2"/>
    <path d="M104.375 45.5379C104.375 43.1046 106.469 41.132 109.053 41.132H194.704C197.287 41.132 199.381 43.1046 199.381 45.5379V148.964C199.381 151.397 197.287 153.37 194.704 153.37H109.053C106.469 153.37 104.375 151.397 104.375 148.964V45.5379Z" fill="white"/>
    <path fill-rule="evenodd" clip-rule="evenodd" d="M103.674 45.5379C103.674 42.7399 106.082 40.4716 109.052 40.4716H194.704C197.674 40.4716 200.082 42.7399 200.082 45.5379V148.964C200.082 151.762 197.674 154.03 194.704 154.03H109.052C106.082 154.03 103.674 151.762 103.674 148.964V45.5379ZM109.052 41.7924C106.856 41.7924 105.076 43.4693 105.076 45.5379V148.964C105.076 151.032 106.856 152.709 109.052 152.709H194.704C196.9 152.709 198.68 151.032 198.68 148.964V45.5379C198.68 43.4693 196.9 41.7924 194.704 41.7924H109.052Z" fill="#161616"/>
    <path d="M104.375 45.5379C104.375 43.1046 106.469 41.132 109.053 41.132H194.704C197.287 41.132 199.381 43.1046 199.381 45.5379V56.5372H104.375V45.5379Z" fill="#161616"/>
    <path d="M119.172 48.8344C119.172 50.6576 117.603 52.1355 115.667 52.1355C113.732 52.1355 112.163 50.6576 112.163 48.8344C112.163 47.0113 113.732 45.5333 115.667 45.5333C117.603 45.5333 119.172 47.0113 119.172 48.8344Z" fill="white"/>
    <path d="M130.853 48.8344C130.853 50.6576 129.284 52.1355 127.349 52.1355C125.413 52.1355 123.844 50.6576 123.844 48.8344C123.844 47.0113 125.413 45.5333 127.349 45.5333C129.284 45.5333 130.853 47.0113 130.853 48.8344Z" fill="white"/>
    <path d="M142.533 48.8344C142.533 50.6576 140.965 52.1355 139.029 52.1355C137.094 52.1355 135.525 50.6576 135.525 48.8344C135.525 47.0113 137.094 45.5333 139.029 45.5333C140.965 45.5333 142.533 47.0113 142.533 48.8344Z" fill="white"/>
    <path fill-rule="evenodd" clip-rule="evenodd" d="M184.626 71.7592H144.862V70.4385H184.626V71.7592Z" fill="#E7E7E7"/>
    <path fill-rule="evenodd" clip-rule="evenodd" d="M184.626 100.364H144.862V99.0432H184.626V100.364Z" fill="#E7E7E7"/>
    <path fill-rule="evenodd" clip-rule="evenodd" d="M184.626 131.012H144.862V129.691H184.626V131.012Z" fill="#E7E7E7"/>
    <path fill-rule="evenodd" clip-rule="evenodd" d="M184.626 79.932H144.862V78.6112H184.626V79.932Z" fill="#E7E7E7"/>
    <path fill-rule="evenodd" clip-rule="evenodd" d="M184.626 108.537H144.862V107.216H184.626V108.537Z" fill="#E7E7E7"/>
    <path fill-rule="evenodd" clip-rule="evenodd" d="M184.626 139.185H144.862V137.864H184.626V139.185Z" fill="#E7E7E7"/>
    <path d="M118.112 70.7372C118.112 68.3039 120.206 66.3314 122.789 66.3314H131.509C134.092 66.3314 136.186 68.3039 136.186 70.7372V78.9522C136.186 81.3854 134.092 83.358 131.509 83.358H122.789C120.206 83.358 118.112 81.3854 118.112 78.9522V70.7372Z" fill="#EF503A"/>
    <path fill-rule="evenodd" clip-rule="evenodd" d="M117.177 100.704C117.177 97.7841 119.69 95.4171 122.789 95.4171H131.51C134.609 95.4171 137.122 97.7841 137.122 100.704V108.919C137.122 111.839 134.609 114.206 131.51 114.206H122.789C119.69 114.206 117.177 111.839 117.177 108.919V100.704ZM122.789 97.1794C120.723 97.1794 119.048 98.7574 119.048 100.704V108.919C119.048 110.866 120.723 112.444 122.789 112.444H131.51C133.576 112.444 135.251 110.866 135.251 108.919V100.704C135.251 98.7574 133.576 97.1794 131.51 97.1794H122.789Z" fill="#EF503A"/>
    <path fill-rule="evenodd" clip-rule="evenodd" d="M117.177 130.671C117.177 127.751 119.69 125.384 122.789 125.384H131.51C134.609 125.384 137.122 127.751 137.122 130.671V138.886C137.122 141.806 134.609 144.173 131.51 144.173H122.789C119.69 144.173 117.177 141.806 117.177 138.886V130.671ZM122.789 127.146C120.723 127.146 119.048 128.724 119.048 130.671V138.886C119.048 140.832 120.723 142.41 122.789 142.41H131.51C133.576 142.41 135.251 140.832 135.251 138.886V130.671C135.251 128.724 133.576 127.146 131.51 127.146H122.789Z" fill="#EF503A"/>
    <path fill-rule="evenodd" clip-rule="evenodd" d="M134.573 71.843L124.62 80.0465L120.059 74.0312L122.341 72.4958L125.103 76.1386L132.726 69.855L134.573 71.843Z" fill="white"/>
    <path d="M216.12 152.744C209.19 152.744 203.606 164.52 201.681 170.408H206.374C212.511 164.52 223.051 152.744 216.12 152.744Z" fill="white"/>
    <path fill-rule="evenodd" clip-rule="evenodd" d="M202.368 169.935H206.162C209.207 167 213.257 162.693 215.725 159.11C216.351 158.202 216.87 157.349 217.243 156.583C217.619 155.811 217.836 155.155 217.883 154.635C217.93 154.119 217.809 153.799 217.592 153.6C217.363 153.39 216.925 153.217 216.12 153.217C214.545 153.217 213.007 153.886 211.532 155.039C210.058 156.193 208.683 157.806 207.447 159.623C205.143 163.011 203.37 167.041 202.368 169.935ZM210.889 154.312C212.471 153.073 214.23 152.27 216.12 152.27C217.048 152.27 217.797 152.466 218.294 152.922C218.803 153.39 218.948 154.036 218.885 154.716C218.823 155.392 218.555 156.162 218.157 156.978C217.757 157.799 217.211 158.693 216.569 159.625C214.006 163.345 209.809 167.787 206.733 170.739L206.585 170.881H201L201.2 170.269C202.172 167.297 204.066 162.839 206.6 159.113C207.867 157.25 209.307 155.55 210.889 154.312Z" fill="#161616"/>
    <path d="M214.315 128.625C201.898 126.451 194.221 156.027 191.935 171.087H203.125C212.029 157.839 226.733 130.799 214.315 128.625Z" fill="#161616"/>
    <path fill-rule="evenodd" clip-rule="evenodd" d="M209.966 141.146L212.62 134.568L211.68 134.232L205.532 149.472L203.584 145.415L202.667 145.805L205.028 150.721L199.858 163.536L197.812 159.013L196.887 159.383L199.343 164.813L196.879 170.919L197.82 171.255L202.805 158.897L209.155 156.93L208.841 156.031L203.265 157.759L209.404 142.539L214.926 139.566L214.427 138.745L209.966 141.146Z" fill="white"/>
    <path d="M126.57 111.347C126.57 112.605 125.116 114.754 124.389 115.671L125.262 120.389L131.804 121.175C133.549 119.209 138.783 118.423 140.091 115.278C141.138 112.762 138.201 110.036 136.602 109.381L141.961 102.618C142.623 101.783 142.471 100.605 141.615 99.944C140.761 99.2846 139.508 99.371 138.766 100.14L131.368 107.809C131.368 108.071 131.106 108.045 130.06 105.843C128.751 103.091 127.443 104.271 126.57 104.664C125.698 105.057 126.57 109.774 126.57 111.347Z" fill="#DFA682"/>
    <path d="M56.1091 87.6208L54.8853 94.1204L56.2896 100.897C59.6844 101.268 66.6052 102.008 67.13 102.002C67.6548 101.995 71.4612 98.8616 73.2989 97.2955L71.1967 87.4391C76.6834 85.6438 78.3945 77.9855 78.5642 74.3808C79.6747 59.5449 69.1539 57.8188 67.1859 57.8425C65.218 57.8662 52.7544 58.0163 51.2823 70.3861C50.1046 80.2819 54.0095 85.9992 56.1091 87.6208Z" fill="#DFA682"/>
    <path d="M64.6048 97.9105C58.0445 97.9105 55.6554 93.8429 54.7807 91.5786C53.8935 91.707 51.7159 92.1252 50.4526 92.3162L59.4694 135.774C60.1907 148.336 59.358 159.106 59.4694 170.744H71.3715C71.6119 163.275 70.2895 144.941 70.2895 135.774L76.7815 92.3162C75.1225 92.0165 73.8618 91.9996 72.8141 91.9767C72.3768 94.241 71.1651 97.9105 64.6048 97.9105Z" fill="white"/>
    <path d="M59.6321 81.4024C58.4175 88.5812 56.5692 89.3651 55.7969 88.8598C46.5377 83.4129 46.5179 65.654 52.1184 59.5679C57.2907 53.9472 61.2559 56.0611 72.046 53.4608C82.8361 50.8604 86.5028 55.1394 84.6104 60.7207C81.8862 68.7549 72.8531 64.5679 70.5697 65.5218C68.2864 66.4757 65.368 68.9813 64.1232 73.9371C62.8784 78.8929 62.2098 77.9745 61.1881 75.2076C60.1664 72.4407 57.4879 68.4585 55.5871 73.4222C54.0665 77.3932 57.6501 80.3969 59.6321 81.4024Z" fill="#161616"/>
    <path d="M14.7462 135.095C21.671 112.008 27.7302 103.165 34.2223 97.9105C38.8342 94.1774 44.9428 92.6317 49.6229 91.8281C50.4869 91.6797 51.3062 92.2171 51.4949 93.0245C53.5597 101.861 58.8545 117.609 61.2725 135.095C61.9938 147.657 61.8824 159.106 61.9938 170.744H32.419C25.4907 170.744 6.0901 163.954 14.7462 135.095Z" fill="#EF503A"/>
    <path d="M96.4222 102.542C91.786 96.2576 84.2556 93.2012 78.5778 91.9126C77.6848 91.71 76.8193 92.2758 76.6619 93.1276C74.4571 105.053 68.9534 127.198 68.1252 135.774C68.1252 144.941 68.3656 163.274 68.1252 170.744H102.527C102.799 163.978 102.815 157.64 102.61 151.731C113.209 151.731 132.685 126.947 133.406 124.909C134.128 122.872 128.357 112.687 123.668 113.366C118.258 115.403 108.159 126.267 106.855 123.212C105.811 120.767 99.465 108.413 96.4222 102.542Z" fill="#EF503A"/>
    <path fill-rule="evenodd" clip-rule="evenodd" d="M50.9643 93.1344C50.8355 92.5835 50.2838 92.2345 49.7205 92.3312C45.0628 93.131 39.0746 94.6574 34.5766 98.2983C28.208 103.453 22.1853 112.176 15.2692 135.234C10.9741 149.553 13.6687 158.277 18.1582 163.416C22.6738 168.586 29.0915 170.232 32.419 170.232H61.4457C61.425 167.94 61.4124 165.656 61.3997 163.369C61.349 154.217 61.298 145.026 60.7311 135.142C59.0007 122.64 55.8051 111.062 53.3669 102.227C52.4011 98.7279 51.5542 95.6593 50.9643 93.1344ZM49.5255 91.3249C50.6902 91.1249 51.777 91.8507 52.0256 92.9146C52.6031 95.3861 53.4398 98.4182 54.398 101.89C56.8405 110.741 60.0722 122.452 61.8113 135.029L61.814 135.048L61.8151 135.067C62.3847 144.986 62.4358 154.215 62.4865 163.376C62.5001 165.831 62.5137 168.282 62.5372 170.739L62.5421 171.255H32.419C28.8183 171.255 22.0716 169.507 17.3188 164.066C12.5399 158.596 9.86229 149.495 14.2233 134.956C21.1568 111.84 27.2525 102.877 33.8681 97.5226C38.594 93.6973 44.823 92.1323 49.5255 91.3249ZM76.1266 93.0399C76.3349 91.9131 77.4905 91.1397 78.7052 91.4154C84.4461 92.7183 92.1248 95.82 96.8685 102.25L96.8923 102.283L96.9106 102.318C99.9466 108.176 106.306 120.554 107.359 123.021C107.407 123.132 107.457 123.175 107.491 123.195C107.526 123.217 107.592 123.241 107.718 123.238C107.994 123.232 108.422 123.101 109.012 122.799C110.175 122.205 111.69 121.102 113.378 119.803C113.892 119.408 114.42 118.995 114.956 118.577C116.163 117.635 117.409 116.663 118.61 115.789C120.339 114.531 122.037 113.429 123.467 112.891L123.524 112.869L123.586 112.86C124.98 112.659 126.373 113.271 127.608 114.197C128.855 115.132 130.03 116.45 131.017 117.834C132.007 119.22 132.826 120.696 133.354 121.964C133.618 122.598 133.815 123.191 133.921 123.703C134.023 124.194 134.058 124.686 133.922 125.071C133.856 125.257 133.709 125.516 133.525 125.807C133.334 126.112 133.076 126.491 132.762 126.932C132.133 127.814 131.265 128.957 130.214 130.268C128.113 132.889 125.268 136.191 122.113 139.43C118.96 142.667 115.483 145.854 112.118 148.235C108.996 150.446 105.883 152.026 103.17 152.222C103.358 157.998 103.335 164.18 103.07 170.763L103.05 171.255H67.5652L67.5821 170.728C67.7483 165.566 67.6844 155.207 67.6292 146.273C67.6047 142.296 67.5819 138.602 67.5819 135.774V135.751L67.5841 135.728C68.0016 131.405 69.5922 123.693 71.345 115.605C71.7539 113.718 72.1719 111.809 72.5864 109.917C73.9529 103.677 75.2822 97.6076 76.1266 93.0399ZM78.4505 92.4099C77.8793 92.2803 77.3039 92.6384 77.1973 93.2153C76.3496 97.8002 75.0153 103.893 73.6479 110.136C73.234 112.026 72.8171 113.929 72.4098 115.809C70.6557 123.904 69.0828 131.539 68.6686 135.797C68.6687 138.606 68.6914 142.277 68.7158 146.234C68.7692 154.884 68.8309 164.897 68.6841 170.232H102.003C102.256 163.663 102.267 157.5 102.067 151.748L102.049 151.22H102.61C105.069 151.22 108.15 149.765 111.465 147.418C114.756 145.089 118.181 141.952 121.312 138.738C124.44 135.527 127.263 132.251 129.347 129.652C130.389 128.352 131.244 127.225 131.86 126.362C132.168 125.93 132.413 125.568 132.591 125.285C132.777 124.99 132.867 124.817 132.891 124.748C132.935 124.624 132.948 124.351 132.854 123.899C132.764 123.466 132.592 122.935 132.343 122.338C131.845 121.144 131.064 119.734 130.115 118.404C129.164 117.072 128.062 115.844 126.931 114.997C125.812 114.158 124.747 113.751 123.811 113.864C122.545 114.353 120.975 115.361 119.275 116.598C118.088 117.462 116.867 118.414 115.667 119.351C115.128 119.772 114.592 120.19 114.066 120.595C112.39 121.885 110.798 123.051 109.531 123.699C108.907 124.017 108.289 124.25 107.742 124.261C107.457 124.267 107.166 124.213 106.908 124.059C106.648 123.904 106.466 123.673 106.351 123.403C105.319 120.985 99.0088 108.7 95.9523 102.802C91.4216 96.6846 84.0556 93.6819 78.4505 92.4099Z" fill="#161616"/>
    <path d="M98.7827 119.817C100.225 126.335 101.788 144.035 102.389 152.071L104.914 151.052C104.337 141.546 100.586 126.268 98.7827 119.817Z" fill="#161616"/>
    <path d="M58.0264 140.527C54.564 140.527 38.3098 142.564 30.6155 143.583C32.1784 142.79 35.5206 141.07 36.3862 140.527C37.2518 139.984 41.0749 131.247 42.8783 126.947L39.9929 139.848C43.1668 139.305 53.3377 140.074 58.0264 140.527Z" fill="#161616"/>
    <path d="M62.3544 155.805C52.8328 163.682 36.266 168.594 29.1729 170.065C30.9041 170.88 35.184 170.857 37.1076 170.744C48.0719 168.028 58.5073 159.653 62.3544 155.805Z" fill="#161616"/>
    <path d="M67.0435 119.436V151.046C67.0435 152.068 68.0852 152.804 69.128 152.519L88.2676 147.289C88.9458 147.103 89.4201 146.528 89.4423 145.864L90.425 116.57C90.4572 115.61 89.556 114.859 88.5479 115.005L68.4257 117.919C67.6305 118.034 67.0435 118.678 67.0435 119.436Z" fill="white"/>
    <path fill-rule="evenodd" clip-rule="evenodd" d="M89.8819 116.554C89.9033 115.914 89.3025 115.413 88.6304 115.51L68.5082 118.425C67.9781 118.501 67.5867 118.931 67.5867 119.436V151.046C67.5867 151.727 68.2812 152.218 68.9764 152.028L69.1156 152.479L68.9764 152.028L88.116 146.798C88.5681 146.674 88.8843 146.29 88.8992 145.847L89.8819 116.554ZM88.4652 114.499C89.8093 114.305 91.011 115.307 90.968 116.586L89.9853 145.88C89.9556 146.766 89.3232 147.533 88.419 147.78L69.2794 153.011C67.889 153.391 66.5 152.409 66.5 151.046V119.436C66.5 118.426 67.2827 117.567 68.343 117.414L88.4652 114.499Z" fill="#161616"/>
    <path d="M66.6827 135.095C62.0661 136.996 60.6715 140.301 60.5513 142.225L62.3546 151.052C63.7973 150.509 66.4422 149.807 67.404 149.694C75.6994 147.317 74.6174 139.509 73.5354 137.132C72.6698 135.231 68.6062 137.019 66.6827 138.15V135.095Z" fill="#DFA682"/>
    <path d="M37.0263 169.162C27.0829 157.202 17.0014 153.129 13.2036 152.587C14.2394 158.762 17.0014 163.637 22.1803 167.537C26.3233 170.657 33.8039 169.921 37.0263 169.162Z" fill="#161616"/>
    <path d="M64.2484 87.429C67.4105 88.3791 70.0484 87.7709 71.1361 87.346L72.1789 91.6567C67.9739 91.2133 65.1384 88.5505 64.2484 87.429Z" fill="#161616"/>
    <path d="M59.8301 140.188C58.676 139.373 45.6438 141.432 39.272 142.564L42.1573 166.33C46.4854 164.972 63.7975 156.484 64.1582 154.787C64.5188 153.089 61.2728 141.206 59.8301 140.188Z" fill="#EF503A"/>
    <path fill-rule="evenodd" clip-rule="evenodd" d="M83.0014 24.8513L84.4873 29.1413L86.6046 26.6335L88.5217 28.6772L88.3192 28.8271L86.6155 27.0109L84.3876 29.6496L82.9768 25.5765L80.8521 30.6097L78.264 27.3253L76.2025 29.1566L76.0161 28.991L78.2998 26.9624L80.781 30.1112L83.0014 24.8513Z" fill="white"/>
</svg>
