<svg width="199" height="199" viewBox="0 0 199 199" fill="none" xmlns="http://www.w3.org/2000/svg">
<g clip-path="url(#clip0_326_2021)">
<path d="M68.6273 163.709H107.23H144.995C159.171 163.709 171.642 154.512 175.589 141.145L178.113 132.598C181.422 121.392 175.205 109.606 163.973 105.792C148.462 100.525 143.853 81.1753 155.378 69.7028L156.534 68.5526C168.015 57.1235 164.287 37.9483 149.326 31.4735L105.787 12.6319C92.6869 6.96287 77.6372 7.65217 65.1317 14.494L58.0227 18.3834C43.3302 26.4218 36.3672 43.454 41.3225 59.2337C45.2155 71.6307 41.7984 85.1246 32.4456 94.2887L31.8606 94.8619C16.7471 109.67 17.5072 133.93 33.5192 147.799L39.3367 152.838C47.4252 159.843 57.8407 163.709 68.6273 163.709Z" fill="#FFF7F2"/>
<path d="M53.7541 70.5709C57.018 77.7743 67.0438 97.1935 71.6488 106.003C77.3421 103.505 86.2988 97.9453 90.0654 95.4778C81.1764 81.4127 75.0968 66.036 73.1681 60.1058C70.5037 60.3689 59.1153 67.1922 53.7541 70.5709Z" fill="#161616"/>
<path d="M49.2033 73.5143C53.8771 79.9286 67.6784 96.9785 73.9948 104.702C79.0584 101.131 86.6899 93.9175 89.8728 90.7568C78.2828 78.7288 69.1753 64.8615 66.0702 59.4313C63.5148 60.2146 53.7608 69.1464 49.2033 73.5143Z" fill="#EF503A"/>
<path d="M76.1285 104.371C75.952 105.529 77.6681 111.56 78.5483 114.431C72.916 117.028 61.6888 121.432 61.8381 118.269C62.0246 114.315 60.2713 104.66 57.0622 98.4126C54.4949 93.4148 56.1208 86.6159 57.2547 83.8411C63.1358 91.2144 68.4602 97.8607 69.5495 99.4608C69.9612 98.8075 72.6262 89.8095 73.5132 88.7676C74.4003 87.7258 77.3991 89.5514 77.8152 93.6464C78.2313 97.7414 76.3492 102.923 76.1285 104.371Z" fill="#EFB488"/>
<path d="M98.4395 166.541C98.4703 172.344 88.3419 175.006 83.2739 175.611C77.3203 176.869 67.1339 177.083 65.5613 174.092C63.9888 171.101 57.4572 121.479 59.7213 117.886C61.9853 114.293 79.0759 112.044 81.5502 112.872C84.0245 113.701 98.401 159.286 98.4395 166.541Z" fill="white" stroke="#EFB488"/>
<path d="M66.2697 86.3758C68.8815 87.524 71.9442 86.3831 73.1104 83.8275C74.2766 81.2719 73.1047 78.2693 70.4928 77.121C67.881 75.9727 64.8183 77.1137 63.6521 79.6693C62.4859 82.2249 63.6578 85.2275 66.2697 86.3758Z" fill="#161616"/>
<path d="M143.145 65.9441C142.948 64.9079 141.933 64.2231 140.878 64.4146L121.829 67.8707C120.774 68.0622 120.078 69.0574 120.274 70.0936L127.581 108.581C127.778 109.617 128.792 110.302 129.848 110.11L148.896 106.654C149.952 106.463 150.648 105.467 150.451 104.431L143.145 65.9441Z" fill="white"/>
<path fill-rule="evenodd" clip-rule="evenodd" d="M143.782 65.8282C143.52 64.4466 142.166 63.5335 140.759 63.7888L121.71 67.245C120.303 67.5003 119.375 68.8273 119.637 70.2089L126.944 108.696C127.206 110.078 128.559 110.991 129.966 110.736L149.015 107.28C150.423 107.024 151.351 105.697 151.088 104.316L143.782 65.8282ZM140.997 65.0396C141.7 64.912 142.377 65.3685 142.508 66.0593L149.814 104.547C149.946 105.238 149.482 105.901 148.778 106.029L129.729 109.485C129.025 109.613 128.349 109.156 128.217 108.465L120.911 69.9778C120.78 69.287 121.244 68.6235 121.947 68.4958L140.997 65.0396Z" fill="#161616"/>
<path fill-rule="evenodd" clip-rule="evenodd" d="M128.445 89.4351L142.063 86.9646L141.826 85.7135L128.207 88.184L128.445 89.4351ZM129.359 94.2483L142.977 91.7778L142.74 90.5267L129.121 92.9972L129.359 94.2483ZM130.222 98.7941L143.84 96.3236L143.603 95.0725L129.984 97.543L130.222 98.7941ZM131.187 103.875L144.805 101.404L144.568 100.153L130.949 102.624L131.187 103.875Z" fill="#F0F0F0"/>
<path d="M129.808 108.338C129.11 109.287 127.825 115.412 127.27 118.356C121.033 118.138 108.961 117.018 110.571 114.276C112.583 110.848 115.525 101.489 115.579 94.5037C115.621 88.9152 120.246 83.6061 122.553 81.6501C123.553 88.24 125.688 101.34 126.226 101.024C126.898 100.628 133.48 93.8378 134.758 93.3101C136.036 92.7824 137.859 95.7473 136.319 99.5702C134.778 103.393 130.68 107.151 129.808 108.338Z" fill="#FFD7BA"/>
<path d="M119.302 179.093C116.484 184.799 106.195 182.654 101.403 180.869C95.505 179.308 86.3646 174.736 86.4364 171.065C86.5082 167.394 105.046 115.667 108.816 113.207C112.586 110.746 128.849 116.563 130.637 118.537C132.426 120.511 122.825 171.961 119.302 179.093Z" fill="#EF503A"/>
<path d="M134.822 68.0151L135.727 65.3579L126.461 67.0401L128.281 69.2026L134.822 68.0151Z" fill="#161616"/>
<path d="M139.675 74.3206C139.478 73.2837 138.463 72.5985 137.407 72.7901L127.608 74.5678C126.552 74.7593 125.855 75.7552 126.052 76.792L127.066 82.1323C127.263 83.1692 128.279 83.8544 129.335 83.6628L139.133 81.8851C140.19 81.6935 140.886 80.6977 140.689 79.6609L139.675 74.3206Z" fill="#EF503A"/>
<path d="M97.1976 36.6272L97.6912 40.9193C97.7791 41.6837 98.8155 41.8879 99.1979 41.2162L101.295 37.5331C101.422 37.3102 101.651 37.1611 101.909 37.1325L106.588 36.6154C107.342 36.5321 107.573 35.5683 106.936 35.1648L102.939 32.6321C102.744 32.509 102.613 32.31 102.579 32.0857L101.799 27.0173C101.683 26.2646 100.655 26.0909 100.289 26.7621L97.9759 30.9993C97.8632 31.2057 97.6631 31.3526 97.4293 31.4005L92.2087 32.4692C91.4408 32.6264 91.33 33.6564 92.0474 33.9673L96.7219 35.9922C96.9843 36.1059 97.1655 36.3477 97.1976 36.6272Z" fill="#FFD7BA"/>
<path d="M143.399 8.52139L144.151 9.70588C144.565 10.3591 145.59 10.1071 145.641 9.33945L145.731 7.98855C145.748 7.73389 145.889 7.50286 146.11 7.36809L147.575 6.47484C148.219 6.08227 148.005 5.11465 147.254 5.0185L145.492 4.79329C145.263 4.76395 145.057 4.63947 144.928 4.45146L143.816 2.83719C143.381 2.20625 142.378 2.48207 142.341 3.24248L142.256 4.99247C142.245 5.22631 142.129 5.44325 141.939 5.58492L140.337 6.77823C139.713 7.24357 140.064 8.22042 140.848 8.19891L142.691 8.14835C142.978 8.14048 143.248 8.28251 143.399 8.52139Z" fill="#FFD7BA"/>
</g>
<defs>
<clipPath id="clip0_326_2021">
<rect width="199" height="199" fill="white"/>
</clipPath>
</defs>
</svg>
