<svg width="199" height="199" viewBox="0 0 199 199" fill="none" xmlns="http://www.w3.org/2000/svg">
<path d="M46.9186 73.3323C50.1562 91.2063 48.079 94.3844 40.7033 111.005C36.8639 119.657 41.7314 129.598 47.8237 137.281C53.1112 143.949 62.2099 145.526 70.3647 143.093L134.819 123.866C141.007 122.02 158.435 97.3658 161.542 91.7047C173.904 69.1771 153.475 37.359 139.042 34.2216C124.608 31.0843 114.391 48.3203 86.1774 34.8731C57.9638 21.4259 43.9209 56.7822 46.9186 73.3323Z" fill="#FFF7F2"/>
<path d="M107.254 33.1875C100.077 33.2458 92.9439 29.646 90.2747 27.8388C85.0049 22.0739 101.82 21.318 107.662 22.6522C113.503 23.9864 120.5 22.8459 120.103 26.2776C119.707 29.7093 116.226 33.1145 107.254 33.1875Z" fill="#FFF7F2"/>
<path d="M93.111 66.4216C90.0895 75.0064 82.9568 99.1024 79.7682 110.077C86.4504 112.4 98.256 114.686 103.323 115.539C107.146 96.8228 114.329 79.1866 117.442 72.708C115.034 70.86 100.218 67.747 93.111 66.4216Z" fill="#161616"/>
<path d="M87.0263 65.3603C85.7928 74.3775 83.651 99.4158 82.7343 110.808C89.7472 111.739 101.771 111.604 106.907 111.42C106.888 92.3172 110.377 73.5966 112.124 66.6242C109.394 65.2983 94.2545 65.2292 87.0263 65.3603Z" fill="#EF503A"/>
<path d="M84.7866 112.201C83.7222 113.036 80.3552 119.433 78.8048 122.528C72.0923 120.332 59.3255 115.307 61.958 112.766C65.2488 109.591 71.4592 100.123 73.7642 92.3838C75.6083 86.1927 82.3446 81.7473 85.4822 80.2985C84.491 91.059 83.6167 100.776 83.2471 102.966C84.1054 102.738 93.4445 97.2532 95.0036 97.0677C96.5628 96.8821 97.5915 100.745 94.6868 104.507C91.7821 108.268 86.1171 111.157 84.7866 112.201Z" fill="#FFDBC1"/>
<path d="M56.3232 172.276C52.3932 176.479 43.3994 171.642 39.3937 168.698C34.3156 165.633 26.9472 158.993 27.8689 155.789C28.7906 152.584 57.9484 112.463 62.0003 111.383C66.0521 110.304 79.7019 120.082 80.8921 122.33C82.0824 124.577 61.2356 167.021 56.3232 172.276Z" fill="#EF503A"/>
<path d="M94.0376 88.0685C95.3399 91.2037 98.9369 92.6893 102.072 91.3867C105.206 90.0841 106.692 86.4866 105.389 83.3513C104.087 80.2161 100.49 78.7305 97.3554 80.0331C94.2207 81.3357 92.7352 84.9332 94.0376 88.0685Z" fill="#161616"/>
</svg>
