<svg width="199" height="199" viewBox="0 0 199 199" fill="none" xmlns="http://www.w3.org/2000/svg">
<path d="M61.5902 178.739H103.082H128.4C139.908 178.739 151.005 174.47 159.533 166.76L170.072 157.233C184.364 144.314 184.897 122.087 171.241 108.499C166 103.285 162.626 96.4958 161.637 89.1784L158.324 64.6558C156.831 53.6027 151.385 33.2184 142.988 25.8552L135.231 19.0534C119.126 4.93071 94.3775 17.7236 81.507 34.8329L80.8112 35.7578C74.2994 44.4141 64.0836 49.508 53.2352 49.508C35.6789 49.508 20.9261 62.6692 18.9714 80.0753L18.2589 86.4203C17.2366 95.5243 19.2597 104.71 24.0133 112.548L30.8383 123.801C34.6042 130.01 35.8087 137.435 34.1982 144.512C30.2081 162.046 43.5676 178.739 61.5902 178.739Z" fill="#FFF7F2"/>
<path d="M59.7887 33.7297C59.7887 33.3315 59.697 33.0191 59.5135 32.7923C59.3301 32.5655 59.0079 32.3514 58.547 32.1498C58.0861 31.9482 57.6605 31.7441 57.2701 31.5375C56.8798 31.3309 56.5435 31.0915 56.2613 30.8194C55.9791 30.5472 55.7628 30.2323 55.6123 29.8745C55.4618 29.5167 55.3865 29.0833 55.3865 28.5743C55.3865 27.7226 55.6546 27.0221 56.1908 26.4728C56.6705 25.9768 57.2933 25.6664 58.0592 25.5416C58.2152 25.5162 58.3354 25.3797 58.3354 25.2152V24.2299C58.3354 24.0534 58.4728 23.9102 58.6422 23.9102H59.1503C59.3197 23.9102 59.4571 24.0534 59.4571 24.2299V25.2607C59.4571 25.4187 59.5683 25.5516 59.7166 25.5852C60.4545 25.7523 61.0429 26.1162 61.4818 26.6769C61.9196 27.2264 62.1633 27.9086 62.213 28.7234C62.2237 28.8996 62.0852 29.043 61.9157 29.043H60.1449C59.9754 29.043 59.8401 28.8995 59.8252 28.7236C59.7936 28.3521 59.7038 28.0554 59.5559 27.8335C59.3677 27.5513 59.0997 27.4102 58.7516 27.4102C58.4412 27.4102 58.199 27.516 58.025 27.7276C57.8557 27.9343 57.771 28.2215 57.771 28.5894C57.771 28.9623 57.8698 29.2597 58.0673 29.4814C58.2648 29.6981 58.5823 29.9072 59.0197 30.1088C59.4571 30.3053 59.8686 30.512 60.2543 30.7287C60.6446 30.9403 60.9809 31.1822 61.2631 31.4543C61.5453 31.7265 61.7663 32.044 61.9262 32.4068C62.0862 32.7696 62.1661 33.2056 62.1661 33.7145C62.1661 34.5763 61.9098 35.2793 61.3971 35.8236C60.9435 36.3096 60.3417 36.6148 59.5917 36.7392C59.436 36.765 59.316 36.9013 59.316 37.0656V37.9758C59.316 38.1523 59.1786 38.2954 59.0092 38.2954H58.5011C58.3317 38.2954 58.1943 38.1523 58.1943 37.9758V37.0553C58.1943 36.8921 58.0761 36.7562 57.9214 36.7306C57.0282 36.5824 56.3314 36.2196 55.831 35.6421C55.3423 35.0688 55.0724 34.3338 55.0215 33.437C55.0115 33.2607 55.15 33.1174 55.3194 33.1174H57.0833C57.2527 33.1174 57.388 33.2609 57.4034 33.4367C57.4402 33.857 57.5533 34.189 57.7428 34.4327C57.9827 34.73 58.3213 34.8787 58.7587 34.8787C59.0785 34.8787 59.3301 34.7779 59.5135 34.5763C59.697 34.3697 59.7887 34.0875 59.7887 33.7297Z" fill="#FFD7BA"/>
<path d="M42.5838 75.6694C45.1184 83.4984 51.0142 105.442 53.6452 115.435C47.552 117.382 36.8287 119.178 32.2287 119.833C29.2018 102.828 23.113 86.7221 20.447 80.7949C22.6662 79.1796 36.1295 76.7049 42.5838 75.6694Z" fill="#161616"/>
<path d="M48.1077 74.8495C49.0163 83.0283 50.3792 105.709 50.947 116.028C44.5868 116.709 33.7214 116.312 29.0838 116.028C29.5381 98.7612 26.8123 81.7598 25.3926 75.4175C27.8912 74.2815 41.5771 74.5655 48.1077 74.8495Z" fill="#EF503A"/>
<path d="M49.0604 117.239C50.0034 118.019 52.9004 123.879 54.231 126.711C60.3486 124.88 72.0036 120.63 69.6821 118.273C66.7803 115.328 61.3835 106.627 59.477 99.5794C57.9519 93.941 51.9647 89.7687 49.1617 88.3873C49.8114 98.1364 50.3793 106.94 50.6633 108.928C49.8927 108.702 41.5767 103.53 40.1716 103.327C38.7666 103.124 37.7483 106.592 40.2877 110.058C42.8272 113.525 47.8816 116.265 49.0604 117.239Z" fill="#FFD7BA"/>
<path d="M75.3732 180.848C79.3996 185.379 88.9997 180.525 93.2965 177.532C98.7258 174.44 106.662 167.644 105.777 164.245C104.892 160.846 75.2565 117.818 71.0184 116.573C66.7803 115.328 52.1455 125.262 50.8322 127.597C49.5188 129.932 70.3401 175.184 75.3732 180.848Z" fill="#EF503A"/>
<path d="M44.0506 96.5044C42.8591 99.1796 39.7249 100.382 37.0501 99.1905C34.3754 97.9988 33.173 94.864 34.3645 92.1888C35.5561 89.5136 38.6903 88.311 41.365 89.5027C44.0397 90.6945 45.2421 93.8292 44.0506 96.5044Z" fill="#161616"/>
<path d="M164.546 69.6572C165.479 69.0744 166.708 69.3589 167.291 70.2927L177.809 87.1478C178.392 88.0816 178.108 89.311 177.174 89.8938L142.497 111.541C141.564 112.124 140.334 111.839 139.752 110.905L129.233 94.0503C128.651 93.1165 128.935 91.8871 129.869 91.3043L164.546 69.6572Z" fill="white"/>
<path fill-rule="evenodd" clip-rule="evenodd" d="M164.194 69.0936C165.439 68.3165 167.078 68.6959 167.855 69.9409L178.373 86.796C179.15 88.0411 178.771 89.6803 177.526 90.4574L142.849 112.105C141.604 112.882 139.965 112.502 139.188 111.257L128.67 94.4021C127.893 93.157 128.272 91.5178 129.517 90.7407L164.194 69.0936ZM166.728 70.6444C166.339 70.0219 165.52 69.8322 164.897 70.2208L130.221 91.8679C129.598 92.2564 129.409 93.076 129.797 93.6986L140.315 110.554C140.704 111.176 141.523 111.366 142.146 110.977L176.823 89.3303C177.445 88.9417 177.635 88.1221 177.246 87.4996L166.728 70.6444Z" fill="#161616"/>
<path fill-rule="evenodd" clip-rule="evenodd" d="M156.626 97.3649L149.109 85.3192L150.236 84.6157L157.753 96.6614L156.626 97.3649ZM152.29 100.071L144.773 88.0258L145.9 87.3223L153.417 99.3679L152.29 100.071ZM148.196 102.628L140.679 90.582L141.806 89.8785L149.323 101.924L148.196 102.628ZM143.619 105.485L136.102 93.439L137.229 92.7354L144.746 104.781L143.619 105.485Z" fill="#FFF7F2"/>
<path d="M141.135 109.673C140.886 110.871 137.057 116.168 135.173 118.667C139.647 123.224 148.845 131.55 149.845 128.397C151.095 124.456 156.27 115.621 161.613 110.646C165.887 106.665 166.782 99.422 166.696 96.2979C160.931 100.198 149.368 107.841 149.24 107.211C149.081 106.424 149.765 96.6553 149.29 95.3175C148.814 93.9797 145.272 94.6974 143.391 98.5616C141.511 102.426 141.447 108.176 141.135 109.673Z" fill="#C28E68"/>
<path d="M97.1674 162.634C95.0396 168.31 103.812 174.537 108.465 176.94C113.732 180.3 123.445 184.149 126.038 181.78C128.631 179.41 152.849 133.115 151.972 128.786C151.095 124.456 135.482 116.146 132.804 116.074C130.126 116.002 99.8272 155.538 97.1674 162.634Z" fill="#EF503A"/>
<path d="M168.729 77.4235L170.145 74.8657L175.257 83.0567L172.337 83.2054L168.729 77.4235Z" fill="#161616"/>
<path d="M160.507 78.2038C161.441 77.621 162.67 77.9055 163.253 78.8393L168.66 87.5034C169.242 88.4372 168.958 89.6667 168.024 90.2495L163.216 93.2513C162.282 93.8341 161.053 93.5496 160.47 92.6158L155.063 83.9517C154.481 83.0179 154.765 81.7885 155.699 81.2057L160.507 78.2038Z" fill="#EF503A"/>
<path d="M87.7079 60.767C88.1558 59.7615 89.3338 59.3095 90.3391 59.7574L108.693 67.9351C109.699 68.383 110.151 69.5612 109.703 70.5667L97.0356 99.0067C96.5878 100.012 95.4098 100.464 94.4045 100.016L76.0502 91.8386C75.0449 91.3907 74.593 90.2125 75.0409 89.207L87.7079 60.767Z" fill="#EF503A"/>
<path d="M91.7263 60.3755L96.3086 62.4171L82.0197 94.4983L77.4375 92.4567L91.7263 60.3755Z" fill="#161616"/>
<path d="M103.836 75.1082C103.16 76.6269 101.38 77.3096 99.8618 76.6331C98.3434 75.9565 97.6608 74.177 98.3373 72.6583C99.0137 71.1396 100.793 70.4569 102.311 71.1334C103.83 71.81 104.512 73.5895 103.836 75.1082Z" fill="white"/>
<path d="M98.1784 79.1787C98.2912 78.9256 98.5877 78.8118 98.8408 78.9246C99.0939 79.0373 99.2076 79.3339 99.0949 79.587L92.1546 95.1693C92.0419 95.4224 91.7453 95.5362 91.4923 95.4234C91.2392 95.3107 91.1254 95.0141 91.2382 94.761L98.1784 79.1787Z" fill="white"/>
<path d="M105.061 72.3583C104.384 73.877 102.605 74.5597 101.086 73.8832C99.568 73.2067 98.8855 71.4271 99.5619 69.9084C100.238 68.3897 102.018 67.707 103.536 68.3836C105.054 69.0601 105.737 70.8397 105.061 72.3583Z" fill="#161616"/>
<path d="M92.4021 103.816C92.8564 104.952 92.5914 111.484 92.4021 114.608C98.6487 115.933 110.915 117.788 110.006 114.608C108.871 110.632 108.303 100.409 110.006 93.3088C111.369 87.6291 107.829 81.3814 106.031 78.8255C102.908 85.6412 99.5006 93.5928 97.7969 97.2846C97.229 96.7167 92.4021 88.1971 91.2663 87.3451C90.1306 86.4931 87.5751 89.049 88.143 93.3088C88.7109 97.5686 91.8342 102.396 92.4021 103.816Z" fill="#EFB488"/>
<path d="M85.0195 172.257C86.3824 178.164 97.1342 178.505 102.34 177.937C108.586 177.826 118.808 175.665 119.66 172.257C120.512 168.849 115.117 116.88 111.994 113.756C108.87 110.632 91.2662 112.336 88.9947 113.756C86.7232 115.176 83.3159 164.873 85.0195 172.257Z" fill="white" stroke="#EFB488" stroke-width="0.512096"/>
<path d="M123.302 45.5975C123.302 44.8012 123.112 44.1763 122.731 43.7228C122.35 43.2692 121.68 42.8409 120.723 42.4377C119.766 42.0346 118.882 41.6264 118.071 41.2131C117.26 40.7999 116.562 40.3212 115.976 39.7769C115.39 39.2326 114.941 38.6027 114.628 37.8871C114.315 37.1715 114.159 36.3047 114.159 35.2867C114.159 33.5834 114.716 32.1824 115.829 31.0838C116.826 30.0918 118.119 29.471 119.71 29.2213C120.034 29.1705 120.284 28.8976 120.284 28.5686V26.598C120.284 26.2449 120.569 25.9586 120.921 25.9586H121.976C122.328 25.9586 122.613 26.2449 122.613 26.598V28.6595C122.613 28.9755 122.844 29.2414 123.152 29.3085C124.685 29.6428 125.907 30.3706 126.818 31.492C127.728 32.591 128.234 33.9553 128.337 35.5849C128.359 35.9373 128.072 36.2241 127.72 36.2241H124.042C123.69 36.2241 123.409 35.9371 123.378 35.5854C123.312 34.8424 123.126 34.249 122.818 33.8051C122.428 33.2407 121.871 32.9585 121.148 32.9585C120.503 32.9585 120 33.1701 119.639 33.5935C119.287 34.0067 119.111 34.5812 119.111 35.317C119.111 36.0628 119.317 36.6575 119.727 37.1009C120.137 37.5343 120.796 37.9526 121.705 38.3558C122.613 38.7488 123.468 39.1621 124.269 39.5955C125.08 40.0188 125.778 40.5026 126.364 41.0468C126.95 41.5911 127.409 42.2261 127.742 42.9518C128.074 43.6774 128.24 44.5493 128.24 45.5672C128.24 47.2907 127.707 48.6968 126.643 49.7853C125.701 50.7574 124.451 51.3678 122.893 51.6165C122.569 51.6681 122.32 51.9407 122.32 52.2694V54.0897C122.32 54.4428 122.035 54.729 121.683 54.729H120.628C120.276 54.729 119.991 54.4428 119.991 54.0897V52.2488C119.991 51.9224 119.745 51.6506 119.424 51.5993C117.569 51.3029 116.121 50.5773 115.082 49.4224C114.067 48.2758 113.507 46.8057 113.401 45.0121C113.38 44.6596 113.668 44.3729 114.02 44.3729H117.683C118.035 44.3729 118.316 44.6599 118.348 45.0115C118.424 45.8522 118.659 46.5162 119.053 47.0035C119.551 47.5982 120.254 47.8955 121.163 47.8955C121.827 47.8955 122.35 47.6939 122.731 47.2907C123.112 46.8775 123.302 46.3131 123.302 45.5975Z" fill="#FFD7BA"/>
</svg>
