<svg width="199" height="199" viewBox="0 0 199 199" fill="none" xmlns="http://www.w3.org/2000/svg">
    <path d="M62.6583 187.01H92.9903H149.467C157.848 187.01 165.929 183.887 172.134 178.248L180.608 170.548C191.153 160.966 190.762 144.179 179.929 134.924C168.54 125.194 168.975 107.272 180.977 98.311C191.616 90.3671 193.502 75.1548 185.125 64.8499L169.669 45.8367C158.458 32.0453 140.414 25.7907 123.081 29.688L55.3884 44.9081C52.8628 45.476 50.2293 44.6145 48.5265 42.6635C43.4947 36.8981 28.9549 43.1552 28.7259 50.8066C28.3633 62.9242 27.2886 74.8245 26.5043 81.7476C26.3529 83.0837 26.0159 84.3802 25.3594 85.5534C24.5263 87.0425 23.4729 88.5673 22.2059 90.153C8.25963 107.607 0.94217 129.77 9.98383 150.204L11.5363 153.713C20.4935 173.956 40.5356 187.01 62.6583 187.01Z" fill="#FFF7F2"/>
    <path d="M192.184 154.921C178.168 160.366 166.492 175.85 162.892 185.558H170.016C179.455 181.01 192.452 172.906 193.942 156.241C194.028 155.277 193.09 154.569 192.184 154.921Z" fill="#161616"/>
    <path d="M189.803 118.977C164.094 131.621 157.177 163.158 153.977 184.672H166.445C182.467 163.132 197.355 149.744 191.735 119.952C191.569 119.074 190.608 118.58 189.803 118.977Z" fill="white"/>
    <path fill-rule="evenodd" clip-rule="evenodd" d="M190.698 120.146C190.657 119.93 190.43 119.838 190.27 119.917C177.712 126.094 169.697 136.903 164.415 148.919C159.326 160.496 156.807 173.119 155.201 183.623H165.914C168.006 180.821 170.064 178.17 172.051 175.611C177.632 168.423 182.649 161.96 186.266 154.929C191.184 145.369 193.464 134.81 190.698 120.146ZM189.335 118.036C190.786 117.322 192.481 118.218 192.771 119.759C195.625 134.887 193.271 145.918 188.144 155.885C184.432 163.103 179.238 169.791 173.61 177.039C171.546 179.698 169.423 182.433 167.293 185.296L166.976 185.721H152.754L152.933 184.518C154.537 173.739 157.082 160.363 162.482 148.078C167.886 135.785 176.184 124.504 189.335 118.036Z" fill="#161616"/>
    <path fill-rule="evenodd" clip-rule="evenodd" d="M184.708 135.195L189.069 126.063L187.163 125.163L177.186 146.056L175.489 138.668L173.432 139.135L175.725 149.115L164.833 171.924L163.927 165.625L161.838 165.922L163.196 175.354L158.961 184.222L160.867 185.122L171.26 163.357L178.693 160.553L177.945 158.591L172.568 160.619L183.268 138.21L190.354 134.827L189.441 132.935L184.708 135.195Z" fill="#161616"/>
    <path d="M72.6885 15.8851C72.6885 11.8652 75.9473 8.60641 79.9672 8.60641H162.774C166.794 8.60641 170.053 11.8652 170.053 15.8851V177.801C170.053 181.821 166.794 185.08 162.775 185.08H79.9672C75.9473 185.08 72.6885 181.821 72.6885 177.801V15.8851Z" fill="white"/>
    <path fill-rule="evenodd" clip-rule="evenodd" d="M72.082 15.8852C72.082 11.5303 75.6124 8 79.9673 8H162.775C167.13 8 170.66 11.5303 170.66 15.8852V177.801C170.66 182.156 167.13 185.687 162.775 185.687H79.9673C75.6124 185.687 72.082 182.156 72.082 177.801V15.8852ZM79.9673 9.21311C76.2824 9.21311 73.2951 12.2003 73.2951 15.8852V177.801C73.2951 181.486 76.2824 184.474 79.9673 184.474H162.775C166.46 184.474 169.447 181.486 169.447 177.801V15.8852C169.447 12.2003 166.46 9.21311 162.775 9.21311H79.9673Z" fill="#161616"/>
    <path d="M118.789 57.1662C118.789 54.3728 121.021 52.1083 123.775 52.1083C126.528 52.1083 128.76 54.3728 128.76 57.1662V58.8521C128.76 60.7144 130.249 62.224 132.084 62.224H142.055C143.891 62.224 145.379 63.7337 145.379 65.596V75.7117C145.379 77.574 143.891 79.0836 142.055 79.0836H140.394C137.64 79.0836 135.408 81.3481 135.408 84.1415C135.408 86.9349 137.64 89.1994 140.394 89.1994H142.055C143.891 89.1994 145.379 90.7091 145.379 92.5713V102.687C145.379 104.549 143.891 106.059 142.055 106.059H132.084C130.249 106.059 128.76 104.549 128.76 102.687V101.001C128.76 98.2077 126.528 95.9432 123.775 95.9432C121.021 95.9432 118.789 98.2077 118.789 101.001V102.687C118.789 104.549 117.301 106.059 115.465 106.059H105.494C103.659 106.059 102.17 104.549 102.17 102.687V92.5713C102.17 90.7091 100.682 89.1994 98.8467 89.1994H97.1848C94.4314 89.1994 92.1992 86.9349 92.1992 84.1415C92.1992 81.3481 94.4314 79.0836 97.1848 79.0836H98.8467C100.682 79.0836 102.17 77.574 102.17 75.7117V65.596C102.17 63.7337 103.659 62.224 105.494 62.224H115.465C117.301 62.224 118.789 60.7144 118.789 58.8521V57.1662Z" fill="#FFD7BA"/>
    <path d="M100.347 153.054C100.347 152.533 100.224 152.125 99.9766 151.829C99.7297 151.532 99.2961 151.252 98.6757 150.989C98.0553 150.725 97.4823 150.458 96.9569 150.188C96.4314 149.918 95.9788 149.605 95.599 149.25C95.2191 148.894 94.9279 148.482 94.7253 148.015C94.5227 147.547 94.4214 146.98 94.4214 146.315C94.4214 145.202 94.7823 144.286 95.504 143.568C96.019 143.051 96.6565 142.688 97.4166 142.48C97.959 142.331 98.3908 141.875 98.3908 141.312V140.974C98.3908 140.557 98.7288 140.219 99.1457 140.219C99.5626 140.219 99.9006 140.557 99.9006 140.974V141.362C99.9006 141.926 100.32 142.389 100.851 142.58C101.568 142.838 102.16 143.257 102.626 143.835C103.064 144.368 103.357 144.998 103.507 145.722C103.642 146.378 103.08 146.928 102.41 146.928H101.627C100.957 146.928 100.467 146.362 100.232 145.735C100.178 145.59 100.112 145.461 100.034 145.347C99.7804 144.978 99.4195 144.793 98.951 144.793C98.5332 144.793 98.2072 144.932 97.973 145.208C97.745 145.479 97.6311 145.854 97.6311 146.335C97.6311 146.822 97.764 147.211 98.0299 147.501C98.2958 147.784 98.7231 148.057 99.3119 148.321C99.9006 148.578 100.455 148.848 100.974 149.131C101.499 149.408 101.952 149.724 102.332 150.08C102.711 150.435 103.009 150.85 103.224 151.325C103.439 151.799 103.547 152.369 103.547 153.034C103.547 154.161 103.202 155.079 102.512 155.791C102.018 156.305 101.393 156.664 100.638 156.869C100.121 157.009 99.7107 157.444 99.7107 157.979V158.267C99.7107 158.684 99.3727 159.022 98.9558 159.022C98.5389 159.022 98.2009 158.684 98.2009 158.267V157.969C98.2009 157.432 97.793 156.993 97.2727 156.861C96.3357 156.623 95.5847 156.187 95.0197 155.554C94.5159 154.98 94.1849 154.282 94.0268 153.46C93.9001 152.802 94.4613 152.254 95.1313 152.254H95.9052C96.5752 152.254 97.0684 152.818 97.3013 153.446C97.3758 153.647 97.4731 153.823 97.5931 153.973C97.916 154.361 98.3718 154.556 98.9605 154.556C99.391 154.556 99.7297 154.424 99.9766 154.161C100.224 153.89 100.347 153.522 100.347 153.054Z" fill="#EF503A"/>
    <path d="M154.574 111.407C154.574 117.939 149.278 123.235 142.746 123.235C136.213 123.235 130.918 117.939 130.918 111.407C130.918 104.875 136.213 99.5792 142.746 99.5792C149.278 99.5792 154.574 104.875 154.574 111.407Z" fill="white"/>
    <path fill-rule="evenodd" clip-rule="evenodd" d="M142.746 100.186C136.549 100.186 131.525 105.21 131.525 111.407C131.525 117.604 136.549 122.628 142.746 122.628C148.943 122.628 153.967 117.604 153.967 111.407C153.967 105.21 148.943 100.186 142.746 100.186ZM130.312 111.407C130.312 104.54 135.879 98.9727 142.746 98.9727C149.613 98.9727 155.18 104.54 155.18 111.407C155.18 118.274 149.613 123.842 142.746 123.842C135.879 123.842 130.312 118.274 130.312 111.407Z" fill="#161616"/>
    <path d="M144.762 109.433H149.115V113.236H144.762V118.382H140.742V113.236H136.377V109.433H140.742V104.432H144.762V109.433Z" fill="#161616"/>
    <path d="M168.859 12.2572H73.2622C76.4266 9.09287 79.4489 8.50463 80.5646 8.60605H161.557C165.452 8.60605 168.048 11.0402 168.859 12.2572Z" fill="#161616"/>
    <path d="M168.813 181.62H73.9287C77.2172 184.835 79.1178 185.433 80.2772 185.33H162.464C166.512 185.33 167.97 182.856 168.813 181.62Z" fill="#161616"/>
    <path d="M83.8511 32.741C83.8511 31.736 84.6658 30.9213 85.6707 30.9213H116.76C117.765 30.9213 118.58 31.736 118.58 32.741V32.8226C118.58 33.8276 117.765 34.6423 116.76 34.6423H85.6707C84.6658 34.6423 83.8511 33.8276 83.8511 32.8226V32.741Z" fill="#EF503A"/>
    <path d="M112.115 148.71C112.115 147.705 112.929 146.891 113.934 146.891H145.024C146.029 146.891 146.844 147.705 146.844 148.71V148.792C146.844 149.797 146.029 150.612 145.024 150.612H113.934C112.929 150.612 112.115 149.797 112.115 148.792V148.71Z" fill="#E7E7E7"/>
    <path d="M83.8511 166.3C83.8511 165.295 84.6658 164.481 85.6707 164.481H116.76C117.765 164.481 118.58 165.295 118.58 166.3V166.382C118.58 167.387 117.765 168.202 116.76 168.202H85.6707C84.6658 168.202 83.8511 167.387 83.8511 166.382V166.3Z" fill="#E7E7E7"/>
    <path d="M84.8198 132.637C84.8198 132.134 85.2272 131.727 85.7297 131.727H157.303C157.806 131.727 158.213 132.134 158.213 132.637C158.213 133.139 157.806 133.546 157.303 133.546H85.7297C85.2272 133.546 84.8198 133.139 84.8198 132.637Z" fill="#FFF7F2"/>
    <path d="M84.8198 42.2596C84.8198 41.7571 85.2272 41.3498 85.7297 41.3498H157.303C157.806 41.3498 158.213 41.7571 158.213 42.2596C158.213 42.7621 157.806 43.1695 157.303 43.1695H85.7297C85.2272 43.1695 84.8198 42.7621 84.8198 42.2596Z" fill="#FFF7F2"/>
    <path d="M42.2282 88.5427L40.5787 97.9917C41.3666 98.8916 43.8489 100.084 47.6306 100.354C51.4123 100.624 54.8339 98.8916 56.072 97.9917L55.059 89.8926C60.7991 86.8554 58.7732 75.3816 56.072 71.3321C53.3707 67.2825 42.2282 66.6076 39.527 76.0566C37.366 83.6157 40.4274 87.5303 42.2282 88.5427Z" fill="#DFA682"/>
    <path d="M125.825 117.345L122.749 119.184L126.495 126.03C130.27 124.126 132.566 126.028 136.617 122.546C139.858 119.76 137.564 116.061 136.012 114.559C137.986 113.528 141.967 111.209 142.097 110.181C142.259 108.896 140.729 107.628 139.915 107.986C139.264 108.273 134.73 110.916 132.544 112.202C131.763 111.899 129.911 111.517 128.752 112.415C127.594 113.313 126.318 116.076 125.825 117.345Z" fill="#DFA682"/>
    <path d="M25.0431 107.493C33.4096 98.8925 40.2901 96.6721 49.8517 96.6721C70.7679 96.6721 88.688 119.737 92.8712 119.438C97.0544 119.14 120.93 115.502 122.424 115.502C123.918 115.502 128.4 124.163 128.101 128.344C127.802 132.524 106.915 146.017 101.238 148.406C96.6959 150.317 86.5964 147.61 82.1143 146.017C82.5127 155.872 82.8315 176.238 80.9191 178.866C78.5287 182.151 75.8395 183.346 60.8994 184.839C45.9593 186.332 22.293 183.993 20.5002 182.5C18.7074 181.007 10.9078 151.392 11.2066 146.017C11.5054 140.641 14.585 118.244 25.0431 107.493Z" fill="#EF503A"/>
    <path d="M108.082 144.47C97.6238 142.678 88.9866 145.22 86.2974 147.211C88.9866 148.107 94.5163 149.666 98.819 148.949C103.122 148.232 105.691 146.56 108.082 144.47Z" fill="#161616"/>
    <path d="M14 158.5C17.3466 147.749 14.3938 139.945 12.9994 137.356C12.5014 138.75 11.4456 142.433 11.2065 146.017C10.9675 149.6 13.3028 155.812 14 158.5Z" fill="#161616"/>
    <path d="M22.6646 127.8C18.6009 145.24 19.5042 171.65 20.5002 182.5L22.5002 183C20.5879 152.659 21.8678 133.474 22.6646 127.8Z" fill="#161616"/>
    <path d="M66.8755 136.759C70.2221 140.104 78.4292 144.324 82.1144 146.017V150.198C78.7678 149.003 70.5607 140.741 66.8755 136.759Z" fill="#161616"/>
    <path d="M45.9423 92.5923H41.5528C40.7649 92.1424 38.3788 89.3527 35.1374 81.7935C31.8959 74.2343 35.5876 70.0948 37.8386 68.9699C44.254 57.8336 61.812 60.8708 62.4873 64.2454C63.1626 67.62 60.1237 70.3197 56.7472 71.6696C53.3707 73.0194 52.3577 77.4065 51.6824 80.1062C51.0071 82.8059 51.3447 81.7935 49.6565 80.1062C47.9682 78.4189 45.267 78.4189 44.5917 81.1186C44.0514 83.2783 46.6176 83.8183 47.9682 83.8183L45.9423 92.5923Z" fill="#161616"/>
</svg>
