<svg width="394" height="224" viewBox="0 0 394 224" fill="none" xmlns="http://www.w3.org/2000/svg">
<path d="M118.56 89.1211C115.121 120.054 110.154 124.255 89.9032 147.932C79.3617 160.257 82.4846 178.964 88.7246 194.562C94.1404 208.099 108.307 215.145 122.888 215.145H238.133C249.197 215.145 289.888 183.202 297.761 175.428C329.093 144.495 311.134 82.2471 288.973 70.0266C266.812 57.8061 241.594 81.1014 201.856 45.2037C162.119 9.30604 121.744 60.4793 118.56 89.1211Z" fill="#FFF7F2"/>
<path d="M237.288 52.7594C225.474 49.3397 215.526 39.9357 212.029 35.6611C206.2 23.6146 234.179 30.6093 243.117 35.6611C252.054 40.7128 264.101 42.2672 261.769 47.7076C259.438 53.148 252.054 57.034 237.288 52.7594Z" fill="#FFF7F2"/>
<path d="M203.923 126.686L205.5 141L204.925 160.279L186.389 162.331L178 154.5L179.876 126.686C176.822 124.899 174.527 119.999 173.986 112.325C172.944 111.983 170.859 110.376 170.859 106.683C170.859 102.99 173.144 101.725 174.286 101.554C175.913 89.1037 182.221 84.628 192.901 84.628C203.141 84.628 208.692 91.4844 210.377 101.554C211.565 101.383 213.942 102.169 213.942 106.683C213.942 111.196 211.807 112.325 210.739 112.325C209.76 121.02 205.401 125.475 203.923 126.686Z" fill="#FFD7BA"/>
<path d="M192.154 129.779C198.851 129.779 202.966 127.375 204.187 126.173L204.71 130.68C192.991 136.45 182.389 133.085 178.552 130.68L179.075 126.173C180.645 127.375 185.458 129.779 192.154 129.779Z" fill="#161616"/>
<path d="M174.491 66.7224C188.204 60.6247 198.108 69.2631 201.345 74.3446C212.201 74.3446 215.63 78.4488 218.487 91.934C221.343 105.419 226.486 101.315 227.628 112.455C228.359 119.579 231.082 134.004 234 137.5C226.136 142.877 219.5 145 208 147C207.5 148.5 207.65 148.344 205.5 151L203.362 126.605C205.333 125.129 209.489 120.075 210.349 111.664C211.424 111.479 213.573 110.114 213.573 106.13C213.573 102.151 211.177 101.739 210.1 101.555L210.096 101.554L209.274 106.683C206.587 104.469 200.89 97.9394 199.6 89.5279C197.808 91.557 190.786 95.5045 177.027 95.0618C176.131 96.9064 175.905 102.809 175.475 111.664L174 102C173.104 102.185 171 103.016 171 107C171 110.985 173.104 111.816 174 112C174.179 115.689 175.361 123.843 180.091 126.942L178 154C176.153 153.37 173.5 149 173 147.12C168 147.5 156.162 149.328 147.009 152.329C149.661 147.519 152.944 131.063 151.636 123.009C149.351 108.937 155.064 106.592 161.921 97.2109C168.777 87.8298 157.35 74.3446 174.491 66.7224Z" fill="#161616"/>
<path d="M270.619 35.0718C271.741 39.1026 277.161 46.3483 279.731 49.4674L298.655 46.5882C300.056 43.7091 298.655 25.7147 297.253 17.7971C295.851 9.87958 286.739 9.87958 281.833 12.7587C276.927 15.6378 279.731 32.9125 278.329 32.9125C277.207 32.9125 272.722 29.5535 270.619 27.874C270.152 28.5938 269.498 31.041 270.619 35.0718Z" fill="#FFD7BA"/>
<path d="M191.042 152.177C200.919 152.177 204.79 146.389 206 143C209.873 142.274 219.801 139.25 224.449 136.926C230.259 134.021 262.213 115.865 265.118 108.603C268.023 101.341 270.202 54.1351 272.381 50.5039C274.559 46.8727 303.609 43.2416 305.788 49.0515C307.966 54.8614 316.681 112.234 308.692 131.843C300.704 151.451 258.582 184.858 257.13 187.763C255.968 190.087 261.487 212.455 264.392 223.348H93C100.262 208.582 117.623 178.444 127.5 164.5C137.377 150.556 165.88 143.726 177.5 143C178.952 146.389 181.165 152.177 191.042 152.177Z" fill="#EF503A"/>
<path d="M143.162 196.184L137.777 223.111H129.314L143.162 196.184Z" fill="#161616"/>
<path d="M386.285 173.522L383.292 177.522C383.11 177.766 382.813 177.883 382.522 177.826L378.823 177.102C378.027 176.947 377.547 177.991 378.161 178.541L381.068 181.147C381.281 181.338 381.381 181.631 381.332 181.918L380.603 186.215C380.465 187.023 381.418 187.523 381.958 186.926L384.945 183.624C385.12 183.43 385.374 183.337 385.627 183.373L389.084 183.864C389.862 183.974 390.303 182.962 389.711 182.423L387.141 180.082C386.934 179.894 386.836 179.608 386.88 179.326L387.691 174.164C387.823 173.319 386.79 172.847 386.285 173.522Z" fill="#16C7A7"/>
<path d="M10.341 145.813L7.59737 149.198C7.43043 149.404 7.15819 149.503 6.89155 149.455L3.50047 148.843C2.7709 148.711 2.33077 149.594 2.89382 150.06L5.55897 152.265C5.75355 152.426 5.84546 152.674 5.80072 152.918L5.1321 156.554C5.00641 157.237 5.88003 157.66 6.37469 157.155L9.11238 154.361C9.27312 154.197 9.50617 154.118 9.73822 154.148L12.9066 154.564C13.6203 154.658 14.0245 153.801 13.4818 153.345L11.1255 151.364C10.9363 151.205 10.8459 150.963 10.8865 150.724L11.6294 146.356C11.7509 145.642 10.8035 145.242 10.341 145.813Z" fill="#16C7A7"/>
<path d="M77.2199 40.3571L76.8708 48.9097C76.8495 49.4301 76.5406 49.8927 76.0699 50.109L70.0833 52.8604C68.7953 53.4524 69.1335 55.3792 70.5494 55.5162L77.2515 56.1647C77.7408 56.2121 78.1711 56.5147 78.3832 56.9609L81.5544 63.6284C82.1506 64.8819 84.0003 64.6058 84.1853 63.2357L85.2093 55.6529C85.2695 55.2076 85.5403 54.8207 85.9367 54.6138L91.3492 51.7883C92.5684 51.1518 92.2049 49.3079 90.8319 49.1641L84.8704 48.5398C84.3916 48.4897 83.9707 48.1951 83.7573 47.761L79.8543 39.8183C79.216 38.5193 77.2787 38.9155 77.2199 40.3571Z" fill="#EF503A"/>
<path d="M227.341 32.6987L224.597 36.0837C224.43 36.2897 224.158 36.3888 223.892 36.3406L220.5 35.7285C219.771 35.5968 219.331 36.4801 219.894 36.946L222.559 39.1511C222.754 39.3121 222.845 39.5601 222.801 39.8034L222.132 43.4394C222.006 44.123 222.88 44.5461 223.375 44.0412L226.112 41.247C226.273 41.0829 226.506 41.0036 226.738 41.0341L229.907 41.4497C230.62 41.5433 231.024 40.6865 230.482 40.2303L228.126 38.2495C227.936 38.0904 227.846 37.8484 227.887 37.6097L228.629 33.242C228.751 32.5276 227.804 32.1281 227.341 32.6987Z" fill="#EF503A"/>
<path fill-rule="evenodd" clip-rule="evenodd" d="M314.334 160.38C314.981 158.197 315.93 156.258 316.644 155.088L320.737 157.36C320.218 158.211 319.441 159.78 318.918 161.548C318.384 163.353 318.196 165.088 318.543 166.419C318.615 166.694 318.734 166.889 319.322 167.093C320.053 167.346 321.096 167.447 322.561 167.517C322.745 167.526 322.938 167.534 323.137 167.542C324.351 167.595 325.792 167.657 327.075 167.902C328.585 168.19 330.383 168.812 331.543 170.42C333.199 172.715 332.905 175.737 332.36 177.965C331.78 180.33 330.721 182.59 329.909 183.985L325.767 181.793C326.408 180.694 327.268 178.85 327.719 177.008C328.203 175.029 328.052 173.74 327.609 173.127C327.458 172.917 327.086 172.632 326.041 172.433C325.134 172.26 324.102 172.214 322.861 172.158C322.649 172.149 322.431 172.139 322.207 172.128C320.817 172.062 319.093 171.956 317.615 171.444C315.995 170.883 314.464 169.754 313.916 167.654C313.272 165.188 313.699 162.527 314.334 160.38Z" fill="#EF503A"/>
<path fill-rule="evenodd" clip-rule="evenodd" d="M368.319 66.1743C371.059 66.6293 373.53 67.4777 375.037 68.1564L372.679 73.3216C371.583 72.8281 369.581 72.1322 367.363 71.7638C365.098 71.3877 362.955 71.4118 361.361 72.0119C361.032 72.1357 360.805 72.304 360.617 73.029C360.382 73.9292 360.367 75.1785 360.433 76.9209C360.441 77.1408 360.451 77.3698 360.461 77.6061C360.522 79.0503 360.595 80.7641 360.428 82.3174C360.232 84.1439 359.656 86.36 357.808 87.9607C355.17 90.246 351.439 90.3273 348.655 89.998C345.699 89.6485 342.823 88.7162 341.032 87.9524L343.287 82.7416C344.699 83.3439 347.045 84.0988 349.347 84.371C351.82 84.6635 353.382 84.3011 354.087 83.6905C354.328 83.4814 354.639 83.002 354.774 81.7365C354.892 80.6391 354.842 79.4111 354.782 77.9347C354.772 77.6827 354.761 77.4235 354.751 77.1565C354.688 75.5028 354.639 73.4486 355.113 71.6269C355.633 69.6299 356.857 67.6579 359.37 66.7119C362.323 65.6004 365.625 65.727 368.319 66.1743Z" fill="#DADD4C"/>
<path fill-rule="evenodd" clip-rule="evenodd" d="M77.487 143.321C79.6204 143.437 81.5817 143.876 82.7913 144.267L81.4251 148.416C80.5456 148.132 78.9565 147.769 77.229 147.675C75.4656 147.579 73.8292 147.779 72.6612 148.373C72.4202 148.495 72.2612 148.643 72.1783 149.213C72.0753 149.921 72.1694 150.878 72.3672 152.204C72.3922 152.372 72.419 152.546 72.4466 152.726C72.6157 153.825 72.8163 155.129 72.8202 156.331C72.8249 157.744 72.5717 159.487 71.2943 160.867C69.4708 162.838 66.6256 163.216 64.469 163.199C62.1797 163.182 59.9016 162.713 58.4678 162.281L59.7506 158.106C60.8813 158.447 62.739 158.825 64.5219 158.839C66.4375 158.853 67.6011 158.444 68.0884 157.917C68.2552 157.737 68.4517 157.344 68.4485 156.365C68.4457 155.516 68.3035 154.581 68.1324 153.458C68.1033 153.266 68.0732 153.069 68.0429 152.865C67.8552 151.606 67.6435 150.04 67.8518 148.607C68.0801 147.036 68.8493 145.425 70.6907 144.489C72.8544 143.389 75.3895 143.207 77.487 143.321Z" fill="#DADD4C"/>
<path fill-rule="evenodd" clip-rule="evenodd" d="M132.572 6.89849C133.407 5.65757 134.375 4.63619 135.044 4.04936L137.048 6.35847C136.562 6.78517 135.774 7.61036 135.098 8.61518C134.408 9.64089 133.941 10.6963 133.879 11.6114C133.866 11.8002 133.898 11.9488 134.211 12.2031C134.6 12.519 135.209 12.8054 136.077 13.1623C136.187 13.2073 136.301 13.2537 136.419 13.3015C137.14 13.594 137.996 13.9411 138.72 14.3697C139.571 14.8737 140.528 15.651 140.9 16.9139C141.431 18.7168 140.637 20.5627 139.854 21.8534C139.023 23.2235 137.924 24.4246 137.15 25.1315L135.1 22.8632C135.71 22.3058 136.604 21.3248 137.252 20.2577C137.947 19.1113 138.119 18.265 137.977 17.7833C137.928 17.6183 137.763 17.3593 137.173 17.0102C136.662 16.7074 136.049 16.4577 135.312 16.1575C135.186 16.1063 135.057 16.0536 134.924 15.9989C134.099 15.6602 133.082 15.2257 132.295 14.5866C131.433 13.886 130.74 12.8458 130.838 11.4032C130.952 9.70804 131.752 8.11852 132.572 6.89849Z" fill="#16C7A7"/>
</svg>
