<svg width="306" height="300" viewBox="0 0 306 300" fill="none" xmlns="http://www.w3.org/2000/svg">
<path d="M43.6817 256.95H216.656C241.622 256.95 258.326 231.261 248.2 208.442C244.798 200.777 244.304 192.136 246.809 184.133L253.604 162.431C260.686 139.81 245.313 116.363 221.745 113.837L219.316 113.577C204.977 112.041 193.153 101.654 189.781 87.632C183.628 62.0447 152.048 52.7641 133.03 70.9549L122.716 80.8204C113.254 89.871 100.069 93.9129 87.1605 91.7198L85.2717 91.3989C58.5753 86.8634 35.1797 109.606 38.9575 136.42C41.0096 150.985 34.9033 165.501 23.0569 174.22L17.7916 178.095C7.79388 185.454 1.39942 196.718 0.206223 209.074C-2.27189 234.737 17.9002 256.95 43.6817 256.95Z" fill="#FFF7F2"/>
<path d="M105.795 82.9808C91.9171 92.7951 97.7498 110.243 100.364 117.004L99.2189 130.8C100.405 135.143 104.709 143.83 112.432 143.83C120.155 143.83 123.695 136.414 124.5 132.707L123.293 122.238C132.344 118.967 132.947 105.881 132.343 95.4122C131.627 82.9807 118.018 74.3359 105.795 82.9808Z" fill="#EFCB96"/>
<path d="M100.799 113.583L99.5971 125.447C99.1964 124.568 98.2747 122.02 97.7938 118.856C97.1928 114.902 87.5747 99.7429 90.5803 88.5386C92.9848 79.5752 99.5972 79.9706 102.603 81.2888C104.406 77.9934 115.226 66.7891 130.856 68.1073C146.485 69.4254 148.288 91.834 135.665 95.1294C125.566 97.7657 114.225 96.2278 109.816 95.1294C109.416 96.0081 108.253 98.952 106.811 103.697C105.007 109.629 105.007 110.947 104.406 106.993C103.805 103.038 101.4 95.7884 98.3949 103.038C95.9904 108.838 98.996 112.485 100.799 113.583Z" fill="#161616"/>
<path d="M109.533 122C113.669 124.436 120.065 123.015 122.745 122L123.32 126.262C117.345 127.724 111.639 124.03 109.533 122Z" fill="#161616"/>
<path d="M111.237 138.258C118.638 138.258 122.572 134.214 123.851 131.809C123.997 131.534 124.279 131.346 124.59 131.351C147.896 131.747 164.108 158.828 169.418 172.616C169.471 172.752 169.481 172.895 169.453 173.038L163.104 205.267C163.086 205.358 160.084 205.447 160.099 205.538C162.406 219.908 166.39 249.757 164.027 255.27C161.657 260.799 142.341 264.65 124.073 264.65C92.4757 264.65 59.6944 263.86 54.5598 258.726C48.1414 252.307 51.5347 172.325 65.8526 152.083C77.0443 136.26 91.0179 131.089 98.3911 131.321C98.7002 131.331 98.9575 131.536 99.0872 131.817C100.199 134.223 103.844 138.258 111.237 138.258Z" fill="#EF503A"/>
<path d="M72.1676 240.715C66.9673 234.15 59.8891 213.503 57 204C57.7223 217.102 67.4729 246.762 72.1676 246.762C82.5683 249.527 109.564 227.475 121 217.108C105 226.855 77.368 247.281 72.1676 240.715Z" fill="#161616"/>
<path d="M147.733 162.945L152.67 177.756H156.126L147.733 162.945Z" fill="#161616"/>
<path d="M168.874 228.726C166.539 229.523 163.685 228.394 162.549 227.73L175.686 223.745C174.226 227.232 171.793 227.73 168.874 228.726Z" fill="#EFCB96"/>
<path d="M89 240.1C79.4 231.345 69 229.74 65 230.032C66.0667 233.972 70.44 241.676 74.6 242.727C78.76 243.778 85.5333 241.559 89 240.1Z" fill="#161616"/>
<path d="M151.114 214.175L117.807 223.746L150.283 229.859C150.394 229.88 150.508 229.876 150.617 229.848L194.029 218.901C194.375 218.814 194.617 218.503 194.617 218.146V214.923C194.617 214.493 194.268 214.144 193.839 214.144H151.329C151.256 214.144 151.184 214.154 151.114 214.175Z" fill="white"/>
<path fill-rule="evenodd" clip-rule="evenodd" d="M150.899 213.426C151.039 213.386 151.183 213.366 151.329 213.366H193.839C194.699 213.366 195.396 214.063 195.396 214.923V218.146C195.396 218.86 194.911 219.482 194.219 219.656L150.808 230.603C150.589 230.658 150.361 230.665 150.139 230.624L117.663 224.511L117.592 222.997L150.899 213.426ZM193.839 214.923L151.329 214.923L121.175 223.587L150.427 229.094L193.839 218.146V214.923Z" fill="#161616"/>
<path d="M119.016 223.795L149.719 225.622C150.13 225.647 150.451 225.987 150.451 226.399V229.044C150.451 229.5 150.062 229.858 149.608 229.82L118.905 227.261C118.501 227.228 118.191 226.891 118.191 226.486V224.572C118.191 224.124 118.568 223.768 119.016 223.795Z" fill="white"/>
<path fill-rule="evenodd" clip-rule="evenodd" d="M117.412 224.572C117.412 223.675 118.167 222.964 119.062 223.017L149.765 224.845C150.587 224.894 151.229 225.575 151.229 226.399V229.044C151.229 229.955 150.451 230.671 149.543 230.596L118.84 228.037C118.033 227.97 117.412 227.295 117.412 226.486V224.572ZM149.672 226.399L118.969 224.572L119.015 223.795L118.969 224.572V226.486L149.672 229.044V226.399Z" fill="#161616"/>
<path d="M88.2082 203.826V182.652L93.6391 202.345C101.981 201.471 109.059 202.345 114.654 202.345C91.9435 206.295 90.0752 206.463 80.8579 207.999L88.2082 203.826Z" fill="#161616"/>
<path d="M153.679 176.874L150.34 225.054C150.303 225.586 150.802 225.997 151.318 225.86L194.193 214.426C194.499 214.345 194.726 214.086 194.765 213.772L200.49 168.45C200.556 167.925 200.092 167.489 199.573 167.587L154.311 176.163C153.963 176.229 153.704 176.521 153.679 176.874Z" fill="white"/>
<path fill-rule="evenodd" clip-rule="evenodd" d="M199.428 166.822C200.467 166.626 201.395 167.499 201.263 168.547L195.538 213.869C195.458 214.497 195.006 215.015 194.394 215.178L151.518 226.612C150.486 226.887 149.49 226.065 149.564 225L152.903 176.82C152.952 176.114 153.471 175.53 154.166 175.398L199.428 166.822ZM199.718 168.352L154.456 176.928L151.117 225.108L193.993 213.674L199.718 168.352Z" fill="#161616"/>
<path d="M182.031 198.251C180.625 203.52 176.923 207.108 173.761 206.264C170.6 205.421 169.177 200.465 170.583 195.196C171.988 189.927 175.691 186.339 178.852 187.183C182.014 188.026 183.437 192.982 182.031 198.251Z" fill="#EF503A"/>
<path d="M118.039 202.376L120.359 216.704C123.259 215.51 127.783 214.555 136.599 215.51C142.399 216.138 148.779 207.152 144.719 204.167C140.659 201.182 136.019 201.779 135.439 201.182C134.859 200.585 131.959 196.406 126.739 198.794C122.563 200.704 119.779 201.779 118.039 202.376Z" fill="#EFCB96"/>
<path d="M259.398 58.4137L264.034 50.3889C264.226 50.057 264.549 49.8227 264.924 49.7446L291.025 44.2931C291.398 44.2153 291.786 44.2998 292.093 44.5257L294.236 46.1039C295.102 46.7418 294.907 48.0923 293.895 48.4584L261.014 60.3564C259.836 60.7828 258.77 59.5016 259.398 58.4137Z" fill="#161616"/>
<path d="M303.661 44.2732L262.22 38.465C261.742 38.3981 261.352 38.8428 261.478 39.3095L264.185 49.3119C264.272 49.6317 264.578 49.8406 264.906 49.8044L292.834 46.722L265.662 53.0036C265.323 53.082 265.099 53.4078 265.147 53.7539L266.507 63.5353C266.57 63.9929 267.063 64.2515 267.474 64.0426L303.871 45.5415C304.457 45.2433 304.312 44.3644 303.661 44.2732Z" fill="white"/>
<path fill-rule="evenodd" clip-rule="evenodd" d="M260.83 39.4867C260.578 38.5533 261.358 37.6639 262.313 37.7977L303.755 43.6058C305.057 43.7883 305.347 45.546 304.173 46.1425L267.777 64.6436L267.474 64.0426L267.777 64.6436C266.955 65.0614 265.969 64.5442 265.841 63.629L264.482 53.8476C264.386 53.1555 264.833 52.5039 265.512 52.347L281.501 48.6506L264.979 50.4741C264.322 50.5466 263.71 50.1288 263.537 49.4891L260.83 39.4867ZM303.568 44.9405L262.126 39.1323L264.833 49.1346L292.761 46.0523L292.984 47.3786L265.812 53.6601L267.171 63.4415L303.568 44.9405Z" fill="#161616"/>
<path fill-rule="evenodd" clip-rule="evenodd" d="M201.76 69.1673C200.585 70.1907 199.47 71.2597 198.413 72.3684L196.712 70.7476C197.819 69.5871 198.987 68.4679 200.217 67.3962L201.76 69.1673ZM195.374 75.8649C194.408 77.0848 193.505 78.3403 192.665 79.6248L190.699 78.3398C191.577 76.9964 192.521 75.6831 193.532 74.4068L195.374 75.8649ZM209.271 63.7622C207.923 64.5538 206.629 65.3983 205.39 66.2904L204.017 64.3838C205.316 63.4497 206.67 62.5655 208.081 61.7368L209.271 63.7622ZM190.308 83.6148C189.577 84.9897 188.914 86.3879 188.319 87.8023L186.154 86.8913C186.776 85.4121 187.47 83.95 188.234 82.5124L190.308 83.6148ZM217.652 59.8165C216.176 60.3559 214.748 60.9522 213.37 61.6007L212.37 59.4751C213.812 58.7969 215.304 58.1737 216.845 57.6103L217.652 59.8165ZM186.717 92.1515C186.246 93.6369 185.848 95.1312 185.523 96.6265L183.227 96.1274C183.568 94.5604 183.985 92.9956 184.478 91.4412L186.717 92.1515ZM226.597 57.3883C225.046 57.6745 223.537 58.018 222.071 58.4151L221.457 56.1478C222.985 55.7338 224.557 55.376 226.171 55.0783L226.597 57.3883ZM184.757 101.189C184.667 101.958 184.595 102.726 184.544 103.49C184.484 104.379 184.446 105.231 184.428 106.047L182.079 105.994C182.098 105.141 182.138 104.254 182.2 103.332C182.254 102.528 182.329 101.722 182.425 100.914L184.757 101.189ZM233.527 56.5229C232.742 56.5763 231.968 56.6434 231.202 56.724L230.956 54.388C231.751 54.3043 232.554 54.2347 233.367 54.1794L233.527 56.5229ZM184.598 111.093C184.785 112.987 185.108 114.603 185.525 115.976L183.278 116.66C182.809 115.119 182.461 113.349 182.26 111.324L184.598 111.093ZM185.934 120.578C184.857 121.184 183.762 121.982 182.682 123.012L181.061 121.312C182.277 120.152 183.529 119.236 184.782 118.531L185.934 120.578ZM179.993 126.148C179.604 126.696 179.222 127.282 178.848 127.908C178.506 128.48 178.195 129.06 177.914 129.647L175.796 128.63C176.108 127.98 176.452 127.338 176.831 126.703C177.236 126.026 177.652 125.389 178.077 124.789L179.993 126.148ZM176.529 133.341C176.17 134.627 175.925 135.93 175.777 137.236L173.443 136.971C173.604 135.552 173.872 134.125 174.266 132.71L176.529 133.341ZM193.548 119.078C192.432 118.872 191.103 118.861 189.658 119.16L189.183 116.86C190.915 116.502 192.551 116.505 193.974 116.768L193.548 119.078ZM187.603 120.247C188.701 121.69 189.952 122.49 191.152 122.869L190.444 125.109C188.763 124.577 187.113 123.481 185.734 121.67L187.603 120.247ZM175.61 141.225C175.644 142.581 175.766 143.92 175.955 145.225L173.631 145.563C173.429 144.173 173.298 142.741 173.262 141.284L175.61 141.225ZM196.718 121.457C196.833 121.226 196.84 120.969 196.581 120.609L198.488 119.237C199.159 120.17 199.392 121.353 198.822 122.501C198.34 123.474 197.429 124.241 196.383 124.746L195.362 122.63C196.089 122.279 196.532 121.831 196.718 121.457ZM176.747 149.179C177.095 150.547 177.502 151.843 177.936 153.042L175.728 153.842C175.269 152.576 174.839 151.205 174.471 149.758L176.747 149.179ZM179.503 156.753C179.824 157.409 180.14 157.998 180.439 158.511L178.411 159.695C178.08 159.128 177.738 158.489 177.393 157.785L179.503 156.753Z" fill="#161616"/>
<path fill-rule="evenodd" clip-rule="evenodd" d="M247.087 46.1544L254.631 54.0264L248.447 60.98L246.691 59.419L250.567 55.0611C249.176 54.9861 247.81 54.9521 246.469 54.9572L246.46 52.6083C247.653 52.6037 248.864 52.6291 250.092 52.6855L245.391 47.7796L247.087 46.1544Z" fill="#161616"/>
</svg>
