<svg width="40" height="40" viewBox="0 0 40 40" fill="none" xmlns="http://www.w3.org/2000/svg">
<g clip-path="url(#clip0_1283_535)">
<rect width="40" height="40" rx="8" fill="#E0F0FB"/>
<g clip-path="url(#clip1_1283_535)">
<path d="M25 27H28V13H25V11H29C29.2652 11 29.5196 11.1054 29.7071 11.2929C29.8947 11.4804 30 11.7348 30 12V28C30 28.2652 29.8947 28.5196 29.7071 28.7071C29.5196 28.8946 29.2652 29 29 29H25V27ZM10.859 10.877L23.429 9.082C23.5 9.07182 23.5723 9.07702 23.641 9.09723C23.7098 9.11744 23.7734 9.15219 23.8275 9.19913C23.8817 9.24608 23.9251 9.30411 23.9549 9.36931C23.9846 9.4345 24 9.50534 24 9.577V30.423C24 30.4946 23.9846 30.5653 23.9549 30.6304C23.9252 30.6955 23.8819 30.7535 23.8279 30.8004C23.7738 30.8474 23.7103 30.8821 23.6417 30.9024C23.5731 30.9227 23.5009 30.928 23.43 30.918L10.858 29.123C10.6196 29.0891 10.4015 28.9702 10.2437 28.7884C10.0859 28.6065 9.99903 28.3738 9.99902 28.133V11.867C9.99903 11.6262 10.0859 11.3935 10.2437 11.2116C10.4015 11.0298 10.6196 10.911 10.858 10.877H10.859ZM12 12.735V27.265L22 28.694V11.306L12 12.735ZM19 16H21V24H19L17 22L15 24H13V16H15L15.01 21L17 19L19 20.989V16Z" fill="#1969E2"/>
</g>
</g>
<defs>
<clipPath id="clip0_1283_535">
<rect width="40" height="40" fill="white"/>
</clipPath>
<clipPath id="clip1_1283_535">
<rect width="24" height="24" fill="white" transform="translate(8 8)"/>
</clipPath>
</defs>
</svg>
