<svg width="40" height="40" viewBox="0 0 40 40" fill="none" xmlns="http://www.w3.org/2000/svg">
<g clip-path="url(#clip0_19_1817)">
<rect width="40" height="40" rx="8" fill="#F5F5F5"/>
<g clip-path="url(#clip1_19_1817)">
<path d="M12.828 29L12.808 29.02L12.787 29H10.992C10.7288 28.9997 10.4765 28.895 10.2905 28.7088C10.1045 28.5226 10 28.2702 10 28.007V11.993C10.0018 11.7304 10.1069 11.479 10.2925 11.2932C10.4781 11.1074 10.7294 11.0021 10.992 11H29.008C29.556 11 30 11.445 30 11.993V28.007C29.9982 28.2696 29.8931 28.521 29.7075 28.7068C29.5219 28.8926 29.2706 28.9979 29.008 29H12.828ZM28 23V13H12V27L22 17L28 23ZM28 25.828L22 19.828L14.828 27H28V25.828ZM16 19C15.4696 19 14.9609 18.7893 14.5858 18.4142C14.2107 18.0391 14 17.5304 14 17C14 16.4696 14.2107 15.9609 14.5858 15.5858C14.9609 15.2107 15.4696 15 16 15C16.5304 15 17.0391 15.2107 17.4142 15.5858C17.7893 15.9609 18 16.4696 18 17C18 17.5304 17.7893 18.0391 17.4142 18.4142C17.0391 18.7893 16.5304 19 16 19Z" fill="#A4A2A0"/>
</g>
</g>
<defs>
<clipPath id="clip0_19_1817">
<rect width="40" height="40" fill="white"/>
</clipPath>
<clipPath id="clip1_19_1817">
<rect width="24" height="24" fill="white" transform="translate(8 8)"/>
</clipPath>
</defs>
</svg>
