<svg width="40" height="40" viewBox="0 0 40 40" fill="none" xmlns="http://www.w3.org/2000/svg">
<g clip-path="url(#clip0_1283_514)">
<rect width="40" height="40" rx="8" fill="#F9F8DA"/>
<g clip-path="url(#clip1_1283_514)">
<path d="M18.414 11L20.414 13H29C29.2652 13 29.5196 13.1054 29.7071 13.2929C29.8946 13.4804 30 13.7348 30 14V28C30 28.2652 29.8946 28.5196 29.7071 28.7071C29.5196 28.8946 29.2652 29 29 29H11C10.7348 29 10.4804 28.8946 10.2929 28.7071C10.1054 28.5196 10 28.2652 10 28V12C10 11.7348 10.1054 11.4804 10.2929 11.2929C10.4804 11.1054 10.7348 11 11 11H18.414ZM26 26H22V23H24V21H22V19H24V17H22V15H19.586L17.586 13H12V27H28V15H24V17H26V19H24V21H26V26Z" fill="#BAB31D"/>
</g>
</g>
<defs>
<clipPath id="clip0_1283_514">
<rect width="40" height="40" fill="white"/>
</clipPath>
<clipPath id="clip1_1283_514">
<rect width="24" height="24" fill="white" transform="translate(8 8)"/>
</clipPath>
</defs>
</svg>
