<svg width="300" height="300" viewBox="0 0 300 300" fill="none" xmlns="http://www.w3.org/2000/svg">
<path d="M113.705 258.692H165.119H237.955C249.268 258.692 260.198 254.602 268.729 247.176L270.335 245.778C291.107 227.696 290.908 195.376 269.915 177.551L268.491 176.342C260.182 169.286 255.063 159.185 254.288 148.315L250.21 91.0771C249.265 77.809 232.993 71.9897 223.84 81.6464C217.99 87.8183 208.226 88.0368 202.106 82.1327L178.532 59.3923C157.526 39.1285 122.626 46.9934 112.353 74.3063C110.067 80.3819 106.357 85.8207 101.533 90.1661L56.0999 131.089C34.4097 150.626 30.712 183.266 47.4825 207.156L66.4057 234.112C77.2221 249.52 94.8728 258.692 113.705 258.692Z" fill="#DFDFDF"/>
<path d="M102.705 255.692H154.119H226.955C238.268 255.692 249.198 251.602 257.729 244.176L259.335 242.778C280.107 224.696 279.908 192.376 258.915 174.551L257.491 173.342C249.182 166.286 244.063 156.185 243.288 145.315L239.21 88.0771C238.265 74.809 221.993 68.9897 212.84 78.6464C206.99 84.8183 197.226 85.0368 191.106 79.1327L167.532 56.3923C146.526 36.1285 111.626 43.9934 101.353 71.3063C99.0673 77.3819 95.3568 82.8207 90.5326 87.1661L45.0999 128.089C23.4097 147.626 19.712 180.266 36.4825 204.156L55.4057 231.112C66.2221 246.52 83.8728 255.692 102.705 255.692Z" fill="#DFDFDF"/>
<path d="M32.5404 223.217C32.3473 237.863 42.336 250.228 47.4092 254.559H55.184C49.4042 235.018 39.8489 225.301 34.4942 222.068C33.6029 221.529 32.5541 222.175 32.5404 223.217Z" fill="#605B56"/>
<path d="M31.7187 175.164C23.754 205.111 43.83 240.579 52.4628 253.782H69.9557C62.4419 197.278 49.8449 183.546 33.9192 174.266C33.0641 173.768 31.9731 174.207 31.7187 175.164Z" fill="white"/>
<path fill-rule="evenodd" clip-rule="evenodd" d="M33.5277 174.938C33.1074 174.693 32.5899 174.913 32.47 175.364C28.5462 190.117 31.5192 206.294 36.5986 220.49C41.584 234.423 48.5655 246.357 52.8841 253.004H69.0671C65.3278 225.302 60.3571 208.091 54.4025 196.674C48.4064 185.178 41.3956 179.522 33.5277 174.938ZM30.9673 174.964C31.356 173.502 33.0206 172.843 34.3105 173.594C42.3683 178.289 49.6188 184.14 55.7811 195.955C61.9221 207.73 66.9649 225.393 70.7263 253.679L70.8433 254.559H52.0422L51.812 254.207C47.4765 247.576 40.265 235.352 35.1346 221.014C30.009 206.688 26.9263 190.158 30.9673 174.964Z" fill="#605B56"/>
<path d="M59.924 193.588C53.0443 218.684 60.9197 244.764 66.0685 254.559H78.8966C81.782 223.974 70.0542 201.732 62.3435 192.989C61.5827 192.126 60.2281 192.478 59.924 193.588Z" fill="#605B56"/>
<path fill-rule="evenodd" clip-rule="evenodd" d="M42.608 196.473L38.4232 184.715L36.9583 185.237L46.5436 212.167L40.2467 210.277L39.7995 211.766L47.1906 213.985L55.9083 238.478L48.0621 235.56L47.5202 237.017L56.5889 240.39L61.4483 254.042L62.9132 253.521L53.044 225.793L56.6934 215.558L55.2288 215.036L52.2194 223.476L43.4896 198.95L46.2101 189.864L44.7205 189.418L42.608 196.473Z" fill="#605B56"/>
<path fill-rule="evenodd" clip-rule="evenodd" d="M66.4842 213.627L64.5008 202.719L62.971 202.997L66.9967 225.139L61.7658 222.384L61.0413 223.76L67.3501 227.082L70.803 246.073L66.4779 242.675L65.5173 243.897L71.2224 248.38L72.3005 254.309L73.8304 254.031L71.0649 238.821L75.626 232.875L74.3922 231.928L70.6894 236.756L66.832 215.54L70.5262 211.549L69.385 210.493L66.4842 213.627Z" fill="white"/>
<path d="M65.8975 51.8842C65.8975 48.5778 68.5779 45.8974 71.8843 45.8974H227.716C231.022 45.8974 233.702 48.5778 233.702 51.8842V228.355C233.702 231.661 231.022 234.341 227.716 234.341H71.8843C68.5779 234.341 65.8975 231.661 65.8975 228.355V51.8842Z" fill="white"/>
<path fill-rule="evenodd" clip-rule="evenodd" d="M65 51.8842C65 48.0822 68.0822 45 71.8842 45H227.715C231.517 45 234.6 48.0822 234.6 51.8842V228.355C234.6 232.157 231.517 235.239 227.715 235.239H71.8842C68.0822 235.239 65 232.157 65 228.355V51.8842ZM71.8842 46.7947C69.0734 46.7947 66.7947 49.0734 66.7947 51.8842V228.355C66.7947 231.165 69.0734 233.444 71.8842 233.444H227.715C230.526 233.444 232.805 231.165 232.805 228.355V51.8842C232.805 49.0734 230.526 46.7947 227.715 46.7947H71.8842Z" fill="#605B56"/>
<path d="M84.7417 87.1756C84.7417 85.6888 85.947 84.4836 87.4338 84.4836H132.301C133.788 84.4836 134.993 85.6888 134.993 87.1756C134.993 88.6624 133.788 89.8677 132.301 89.8677H87.4338C85.947 89.8677 84.7417 88.6624 84.7417 87.1756Z" fill="#605B56"/>
<path d="M65.8975 51.8842C65.8975 48.5778 68.5779 45.8974 71.8843 45.8974H227.716C231.022 45.8974 233.702 48.5778 233.702 51.8842V66.5365H65.8975V51.8842Z" fill="#605B56"/>
<path d="M84.8374 56.3637C84.8374 58.8411 82.8291 60.8494 80.3517 60.8494C77.8743 60.8494 75.866 58.8411 75.866 56.3637C75.866 53.8863 77.8743 51.878 80.3517 51.878C82.8291 51.878 84.8374 53.8863 84.8374 56.3637Z" fill="white"/>
<path d="M99.7905 56.3637C99.7905 58.8411 97.7822 60.8494 95.3048 60.8494C92.8274 60.8494 90.8191 58.8411 90.8191 56.3637C90.8191 53.8863 92.8274 51.878 95.3048 51.878C97.7822 51.878 99.7905 53.8863 99.7905 56.3637Z" fill="white"/>
<path d="M114.742 56.3637C114.742 58.8411 112.734 60.8494 110.256 60.8494C107.779 60.8494 105.771 58.8411 105.771 56.3637C105.771 53.8863 107.779 51.878 110.256 51.878C112.734 51.878 114.742 53.8863 114.742 56.3637Z" fill="white"/>
<path d="M86.5364 107.815C86.5364 106.328 87.7417 105.123 89.2284 105.123H135.891C137.378 105.123 138.583 106.328 138.583 107.815V149.99C138.583 151.477 137.378 152.682 135.891 152.682H89.2284C87.7417 152.682 86.5364 151.477 86.5364 149.99V107.815Z" fill="#DFDFDF"/>
<path d="M86.5364 169.732C86.5364 168.245 87.7417 167.04 89.2284 167.04H135.891C137.378 167.04 138.583 168.245 138.583 169.732V211.908C138.583 213.394 137.378 214.6 135.891 214.6H89.2284C87.7417 214.6 86.5364 213.394 86.5364 211.908V169.732Z" fill="#DFDFDF"/>
<path d="M162.812 121.724C162.812 120.98 163.414 120.378 164.158 120.378H205.436C206.179 120.378 206.782 120.98 206.782 121.724C206.782 122.467 206.179 123.07 205.436 123.07H164.158C163.414 123.07 162.812 122.467 162.812 121.724Z" fill="#DFDFDF"/>
<path d="M162.812 182.744C162.812 182 163.414 181.398 164.158 181.398H205.436C206.179 181.398 206.782 182 206.782 182.744C206.782 183.487 206.179 184.09 205.436 184.09H164.158C163.414 184.09 162.812 183.487 162.812 182.744Z" fill="#DFDFDF"/>
<path d="M162.812 136.979C162.812 136.235 163.414 135.633 164.158 135.633H185.694C186.437 135.633 187.04 136.235 187.04 136.979C187.04 137.722 186.437 138.325 185.694 138.325H164.158C163.414 138.325 162.812 137.722 162.812 136.979Z" fill="#DFDFDF"/>
<path d="M162.812 197.999C162.812 197.255 163.414 196.653 164.158 196.653H185.694C186.437 196.653 187.04 197.255 187.04 197.999C187.04 198.742 186.437 199.345 185.694 199.345H164.158C163.414 199.345 162.812 198.742 162.812 197.999Z" fill="#DFDFDF"/>
<path d="M263.376 218.5C263.376 234.448 250.448 247.376 234.5 247.376C218.552 247.376 205.624 234.448 205.624 218.5C205.624 202.552 218.552 189.624 234.5 189.624C250.448 189.624 263.376 202.552 263.376 218.5Z" fill="#6F6A65"/>
<path fill-rule="evenodd" clip-rule="evenodd" d="M234.5 190.249C218.897 190.249 206.249 202.897 206.249 218.5C206.249 234.103 218.897 246.751 234.5 246.751C250.103 246.751 262.751 234.103 262.751 218.5C262.751 202.897 250.103 190.249 234.5 190.249ZM205 218.5C205 202.208 218.208 189 234.5 189C250.792 189 264 202.208 264 218.5C264 234.792 250.792 248 234.5 248C218.208 248 205 234.792 205 218.5Z" fill="#6F6A65"/>
<path d="M238.37 214.215V214.839H238.994H249.468V222.347H238.994H238.37V222.971V234.193H230.462V222.971V222.347H229.838H219.334V214.839H229.838H230.462V214.215V203.325H238.37V214.215Z" fill="white" stroke="#6F6A65" stroke-width="1.24857"/>
</svg>
