<svg width="300" height="300" viewBox="0 0 300 300" fill="none" xmlns="http://www.w3.org/2000/svg">
<path d="M52.2218 91.5824C65.9849 87.445 80.8948 69.4586 86.6294 60.9826C94.8014 46.3292 68.5654 60.9826 55.6626 67.8783C42.7597 74.7741 35.018 96.7542 52.2218 91.5824Z" fill="#F5F5F5"/>
<path d="M281.031 217.237C281.031 231.879 272.89 246.064 264.772 256.219C258.165 264.484 247.696 268.093 237.128 268.093H48.1501C37.5444 268.093 30.1377 253.051 28.3079 242.583C25.0607 224.006 7.99857 203.289 10.9311 171.553C15.232 125.007 44.4786 110.784 75.0153 93.1139C105.552 75.4435 85.7677 49.5846 138.239 34.0692C190.711 18.5538 246.193 69.8408 244.473 117.68C242.753 165.519 281.031 172.415 281.031 217.237Z" fill="#F5F5F5"/>
<path d="M108.592 208.326C99.8441 217.819 131.336 243.923 131.336 268.093H154.299H177.262C174.929 266.628 170.963 261.853 173.762 254.47C177.262 245.241 198.694 241.725 194.32 232.057C189.946 222.389 179.886 232.057 170.263 226.344C160.641 220.631 171.138 215.358 183.822 202.613C196.507 189.869 173.762 191.187 164.14 196.021C154.517 200.855 154.955 192.066 156.267 173.609C157.579 155.151 149.706 140.21 143.145 143.725C136.585 147.241 147.519 187.672 140.521 183.277C133.523 178.882 126.525 163.062 124.338 178.003C122.151 192.945 138.334 216.236 131.336 217.994C124.338 219.752 119.526 196.461 108.592 208.326Z" fill="white"/>
<path d="M120.233 267.91L116.442 237.159L35.9851 233.789L33.8789 267.91H120.233Z" fill="#A4A2A0"/>
<path d="M64.7042 113.864L63.0192 122.71L64.7042 131.977C69.057 132.539 77.9311 133.662 78.6051 133.662C79.2791 133.662 84.2216 129.45 86.6087 127.344L84.0812 113.864C91.1581 111.505 93.4889 101.086 93.7697 96.1719C95.4547 75.9524 81.975 73.4249 79.4476 73.4249C76.9201 73.4249 60.913 73.4249 58.8068 90.2745C57.1219 103.754 62.0363 111.617 64.7042 113.864Z" fill="white"/>
<path fill-rule="evenodd" clip-rule="evenodd" d="M69.3287 76.3136C64.9851 78.3106 60.6729 82.2868 59.6611 90.3813C58.0052 103.628 62.8545 111.181 65.2586 113.205L65.6442 113.53L63.8949 122.714L65.4386 131.204C67.5906 131.48 70.5549 131.857 73.1393 132.176C74.5619 132.351 75.8676 132.509 76.8587 132.622C77.3546 132.679 77.769 132.725 78.0788 132.756C78.234 132.772 78.3599 132.783 78.4551 132.791C78.471 132.792 78.4858 132.793 78.4995 132.795C78.5279 132.78 78.5645 132.76 78.61 132.733C78.78 132.634 79.0125 132.479 79.3014 132.272C79.876 131.859 80.616 131.279 81.4207 130.625C82.8695 129.446 84.4948 128.052 85.6715 127.021L83.0959 113.284L83.8085 113.047C87.0025 111.982 89.218 109.061 90.6817 105.638C92.1372 102.234 92.7736 98.5018 92.9096 96.1227L92.9102 96.1115L92.9111 96.1003C93.736 86.2019 90.848 80.7982 87.6086 77.8533C84.3222 74.8657 80.5415 74.2861 79.4472 74.2861C78.2014 74.2861 73.7291 74.2904 69.3287 76.3136ZM78.4259 132.828C78.426 132.828 78.4302 132.826 78.4381 132.824C78.4297 132.827 78.4258 132.828 78.4259 132.828ZM79.4398 72.5636H79.4472C80.8804 72.5636 85.1033 73.2478 88.7673 76.5787C92.4771 79.9513 95.4856 85.9179 94.6286 96.2322C94.4824 98.768 93.8126 102.697 92.2656 106.315C90.8201 109.695 88.5415 112.956 85.0605 114.415L87.545 127.666L87.1782 127.989C85.9795 129.047 84.1378 130.635 82.5076 131.961C81.6941 132.623 80.9229 133.228 80.3065 133.671C80.0001 133.891 79.7171 134.082 79.4785 134.221C79.3601 134.29 79.2366 134.356 79.1164 134.407C79.0211 134.448 78.8287 134.524 78.6048 134.524C78.3725 134.524 77.6214 134.444 76.6624 134.334C75.664 134.219 74.3527 134.061 72.9285 133.885C70.0794 133.534 66.771 133.112 64.5936 132.831L63.9691 132.751L62.1428 122.706L63.7671 114.179C60.8086 111.353 56.3103 103.301 57.9519 90.1677C59.0463 81.4126 63.7907 76.9639 68.6091 74.7485C73.3615 72.5636 78.1472 72.5636 79.4398 72.5636Z" fill="#A4A2A0"/>
<path d="M164.771 137.476C163.011 140.069 156.015 147.226 155.214 148.505L158.366 155.858L166.996 157.861C168.938 155.107 174.492 152.244 175.813 147.946C176.87 144.507 172.828 139.838 170.848 139.079L176.891 130.801C177.697 129.696 177.47 128.149 176.379 127.323C175.313 126.516 173.801 126.688 172.943 127.713L164.771 137.476Z" fill="white"/>
<path fill-rule="evenodd" clip-rule="evenodd" d="M176.898 126.637C175.466 125.552 173.434 125.782 172.281 127.16L164.082 136.957L164.058 136.993C163.221 138.225 161.086 140.607 158.995 142.904C158.738 143.187 158.481 143.468 158.229 143.744C157.473 144.574 156.754 145.362 156.154 146.033C155.381 146.899 154.732 147.651 154.483 148.048L154.244 148.43L157.745 156.598L167.365 158.831L167.699 158.358C168.123 157.756 168.771 157.115 169.578 156.399C169.964 156.056 170.375 155.706 170.804 155.34L170.848 155.303C171.291 154.925 171.752 154.532 172.209 154.126C174.01 152.524 175.898 150.596 176.635 148.199C177.281 146.098 176.352 143.783 175.185 142.03C174.585 141.128 173.884 140.315 173.195 139.671C172.842 139.342 172.478 139.044 172.119 138.798L177.586 131.309C178.669 129.825 178.363 127.746 176.898 126.637ZM173.602 128.266C174.166 127.593 175.158 127.48 175.858 128.01C176.574 128.552 176.724 129.568 176.194 130.293L169.488 139.48L170.539 139.883C170.884 140.015 171.412 140.364 172.019 140.93C172.611 141.483 173.226 142.194 173.751 142.984C174.837 144.615 175.4 146.355 174.989 147.692C174.405 149.593 172.855 151.246 171.064 152.839C170.623 153.231 170.175 153.613 169.731 153.991L169.681 154.034C169.257 154.396 168.834 154.756 168.434 155.11C167.779 155.692 167.153 156.287 166.65 156.897L158.985 155.117L156.199 148.619C156.459 148.294 156.881 147.806 157.439 147.181C158.033 146.516 158.742 145.738 159.497 144.91C159.75 144.633 160.008 144.35 160.269 144.063C162.299 141.833 164.52 139.364 165.458 137.997L173.602 128.266Z" fill="#A4A2A0"/>
<path d="M69.3386 105.439C67.6537 115.212 65.2666 116.251 64.2837 115.549C52.489 107.967 52.7736 83.7411 60.0714 75.5311C66.8112 67.9487 71.8661 70.8975 85.767 67.5275C99.668 64.1576 104.302 70.0549 101.774 77.6373C98.1358 88.5522 86.6095 82.6922 83.6608 83.9559C80.7121 85.2196 76.921 88.5896 75.236 95.3294C73.551 102.069 72.7086 100.805 71.4448 97.0143C70.1811 93.2232 66.8112 87.747 64.2837 94.4869C62.2618 99.8788 66.8112 104.035 69.3386 105.439Z" fill="#A4A2A0"/>
<path fill-rule="evenodd" clip-rule="evenodd" d="M82.7419 247.69C68.2793 247.971 38.0904 248.027 33.0355 246.005C31.1987 245.271 30.4298 238.093 30.3046 228.043C25.254 222.929 20.1643 217.24 16.1861 211.885C7.42434 200.09 9.44629 186.47 11.5525 181.134C22.504 149.965 36.2633 133.115 43.144 128.48C43.1445 128.48 43.1449 128.48 43.1453 128.479C46.9365 125.531 57.0463 121.739 62.5224 120.897C63.6457 123.986 67.156 130.164 75.5808 130.164C84.0056 130.164 85.5502 123.986 86.1118 120.897C92.1496 121.037 108.016 124.351 116.441 136.483C122.878 145.752 125.538 153.919 127.306 159.349C128.431 162.804 129.196 165.151 130.342 165.97C131.886 167.073 137.821 161.244 143.729 155.441C149.102 150.163 154.453 144.908 156.459 144.908C160.671 144.908 170.36 153.332 170.36 158.387C170.36 163.442 147.192 206.409 140.452 211.042C133.712 215.676 126.13 213.149 122.339 208.515C123.181 217.642 124.108 240.866 121.075 243.899C118.042 246.932 94.2558 247.69 82.7419 247.69Z" fill="white"/>
<path fill-rule="evenodd" clip-rule="evenodd" d="M63.0898 119.938L63.3314 120.603C64.4041 123.552 67.6931 129.303 75.5804 129.303C79.5475 129.303 81.7816 127.865 83.1161 126.158C84.4887 124.403 84.9873 122.265 85.264 120.743L85.3957 120.019L86.1314 120.036C89.2575 120.109 94.8373 120.994 100.707 123.396C106.581 125.799 112.812 129.748 117.148 135.991C123.657 145.364 126.349 153.629 128.122 159.075L128.125 159.083C128.692 160.823 129.151 162.233 129.609 163.312C130.064 164.387 130.456 164.973 130.809 165.244C130.832 165.244 130.876 165.242 130.947 165.228C131.144 165.188 131.437 165.075 131.835 164.853C132.625 164.413 133.645 163.651 134.842 162.638C137.228 160.618 140.163 157.736 143.125 154.826L143.14 154.812C145.815 152.184 148.51 149.537 150.789 147.546C151.93 146.55 152.988 145.7 153.903 145.093C154.36 144.79 154.799 144.536 155.208 144.356C155.606 144.18 156.036 144.046 156.459 144.046C157.746 144.046 159.306 144.67 160.839 145.558C162.404 146.464 164.061 147.715 165.575 149.121C167.088 150.525 168.481 152.106 169.502 153.68C170.51 155.232 171.221 156.877 171.221 158.387C171.221 158.831 171.1 159.392 170.925 160C170.744 160.627 170.482 161.376 170.154 162.222C169.497 163.917 168.556 166.049 167.413 168.464C165.125 173.296 162.01 179.302 158.686 185.291C155.362 191.278 151.823 197.261 148.688 202.043C147.121 204.433 145.648 206.534 144.349 208.189C143.067 209.821 141.899 211.092 140.939 211.752C134.677 216.057 127.732 214.541 123.393 210.818C123.746 215.532 124.056 222.286 124.021 228.497C124 232.173 123.857 235.683 123.525 238.476C123.359 239.871 123.143 241.111 122.864 242.114C122.594 243.081 122.229 243.962 121.683 244.508C121.15 245.042 120.275 245.435 119.293 245.752C118.277 246.08 117.011 246.367 115.573 246.619C112.695 247.124 109.045 247.506 105.151 247.791C97.3628 248.361 88.5205 248.551 82.7501 248.551C75.511 248.692 64.3408 248.776 54.3428 248.572C49.3431 248.47 44.6266 248.296 40.8378 248.02C38.944 247.882 37.2719 247.718 35.907 247.522C34.5623 247.33 33.4497 247.099 32.7152 246.805C32.2714 246.627 31.9379 246.289 31.6861 245.923C31.4316 245.553 31.2203 245.098 31.0397 244.591C30.6786 243.577 30.3967 242.23 30.1748 240.636C29.74 237.513 29.5162 233.289 29.4475 228.4C24.4593 223.333 19.4399 217.71 15.4943 212.398C6.51019 200.304 8.56888 186.362 10.7449 180.834C16.2402 165.197 22.4452 153.134 28.1531 144.386C33.8369 135.675 39.0611 130.201 42.6381 127.782C44.643 126.231 48.2054 124.516 51.8916 123.095C55.6062 121.662 59.5671 120.48 62.391 120.046L63.0898 119.938ZM86.8151 121.788C86.4899 123.334 85.8804 125.419 84.4731 127.219C82.7887 129.374 80.0381 131.025 75.5804 131.025C67.2027 131.025 63.3955 125.253 61.9756 121.863C59.3718 122.345 55.868 123.407 52.5115 124.702C48.8398 126.118 45.4646 127.766 43.674 129.159C43.6739 129.159 43.6741 129.159 43.674 129.159L43.6498 129.178L43.6248 129.195C40.3217 131.42 35.2367 136.682 29.5957 145.327C23.9677 153.953 17.8195 165.895 12.3646 181.42L12.3592 181.435L12.3532 181.45C10.319 186.604 8.34604 199.887 16.8771 211.371C20.8236 216.684 25.884 222.341 30.9169 227.437L31.161 227.684L31.1653 228.032C31.2278 233.046 31.4509 237.31 31.8808 240.399C32.0964 241.947 32.3589 243.161 32.6625 244.013C32.8142 244.439 32.9654 244.744 33.1049 244.946C33.2472 245.153 33.3396 245.199 33.355 245.206C33.8842 245.417 34.8208 245.627 36.151 245.817C37.4612 246.005 39.0898 246.165 40.9631 246.302C44.7084 246.575 49.3908 246.749 54.3779 246.85C64.3501 247.053 75.501 246.969 82.7247 246.829L82.7331 246.829H82.7415C88.4851 246.829 97.2879 246.64 105.025 246.073C108.897 245.79 112.481 245.413 115.276 244.923C116.674 244.677 117.854 244.407 118.764 244.113C119.709 243.808 120.241 243.515 120.465 243.29C120.678 243.077 120.948 242.569 121.204 241.651C121.451 240.767 121.654 239.624 121.815 238.273C122.135 235.573 122.277 232.137 122.298 228.487C122.34 221.191 121.899 213.132 121.48 208.594L121.222 205.79L123.005 207.969C126.566 212.322 133.659 214.667 139.964 210.333C140.689 209.834 141.719 208.749 142.994 207.125C144.252 205.523 145.695 203.467 147.248 201.099C150.352 196.363 153.869 190.42 157.18 184.455C160.491 178.49 163.588 172.518 165.856 167.727C166.99 165.331 167.912 163.24 168.548 161.6C168.866 160.779 169.109 160.082 169.27 159.522C169.438 158.942 169.498 158.575 169.498 158.387C169.498 157.371 168.998 156.066 168.057 154.617C167.131 153.19 165.839 151.716 164.403 150.383C162.967 149.05 161.413 147.88 159.976 147.048C158.508 146.199 157.277 145.769 156.459 145.769C156.379 145.769 156.203 145.799 155.904 145.932C155.615 146.059 155.265 146.257 154.854 146.529C154.034 147.073 153.042 147.866 151.922 148.844C149.685 150.797 147.024 153.411 144.332 156.055L144.312 156.075C141.373 158.962 138.395 161.887 135.955 163.952C134.737 164.983 133.614 165.834 132.673 166.358C132.205 166.619 131.735 166.826 131.289 166.916C130.846 167.006 130.305 167.002 129.841 166.67C129.057 166.11 128.503 165.116 128.023 163.984C127.533 162.829 127.052 161.35 126.498 159.65L126.487 159.616C124.723 154.201 122.095 146.134 115.733 136.974C111.645 131.086 105.73 127.312 100.055 124.99C94.8177 122.848 89.8414 121.966 86.8151 121.788Z" fill="#A4A2A0"/>
<path d="M60.2072 204.776C61.3915 203.98 62.9969 204.295 63.793 205.479L82.5629 233.403C83.3589 234.587 83.0442 236.193 81.8599 236.989L43.7526 262.604C42.5683 263.4 40.9629 263.085 40.1668 261.901L21.3969 233.977C20.6008 232.793 20.9156 231.188 22.0999 230.392L60.2072 204.776Z" fill="white"/>
<path fill-rule="evenodd" clip-rule="evenodd" d="M59.7268 204.062C61.3059 203 63.4464 203.42 64.5078 204.999L83.2777 232.923C84.3391 234.502 83.9195 236.642 82.3404 237.704L44.2331 263.319C42.654 264.38 40.5135 263.96 39.4521 262.381L20.6822 234.458C19.6208 232.879 20.0404 230.738 21.6195 229.677L59.7268 204.062ZM63.0782 205.96C62.5475 205.17 61.4773 204.96 60.6877 205.491L22.5804 231.106C21.7909 231.637 21.581 232.707 22.1118 233.497L40.8816 261.42C41.4124 262.21 42.4826 262.42 43.2722 261.889L81.3795 236.274C82.169 235.743 82.3788 234.673 81.8481 233.883L63.0782 205.96Z" fill="#A4A2A0"/>
<path d="M66.7358 235.896C64.0398 234.548 62.5234 233.087 62.1021 232.526C59.9959 234.913 55.5308 240.529 54.5198 243.899C53.2561 248.112 59.9959 254.43 62.1021 254.851C64.2083 255.273 70.527 251.481 71.7907 249.375C72.8016 247.69 70.5269 244.601 69.2632 243.478C69.9653 242.495 72.4647 241.372 71.7907 239.687C70.9482 237.581 70.1057 237.581 66.7358 235.896Z" fill="white"/>
<path fill-rule="evenodd" clip-rule="evenodd" d="M62.1564 231.162L62.7912 232.009C63.1125 232.437 64.5114 233.82 67.121 235.125C67.7485 235.439 68.283 235.692 68.755 235.915C68.9095 235.988 69.0574 236.057 69.1995 236.125C69.7638 236.394 70.257 236.639 70.6768 236.909C71.594 237.498 72.1169 238.183 72.5904 239.367C73.1398 240.74 72.309 241.812 71.6451 242.461C71.3622 242.738 71.0445 243.001 70.7735 243.226C70.7137 243.275 70.6562 243.323 70.6019 243.368C70.5579 243.405 70.5162 243.44 70.4767 243.474C71.0514 244.106 71.6729 244.937 72.1396 245.81C72.4655 246.42 72.738 247.091 72.8496 247.759C72.9613 248.429 72.9214 249.165 72.5293 249.818C72.1321 250.48 71.4013 251.19 70.5793 251.85C69.7376 252.526 68.7265 253.209 67.6939 253.806C66.663 254.403 65.5892 254.928 64.6203 255.279C63.6991 255.613 62.7116 255.852 61.9333 255.696C61.5349 255.616 61.1042 255.418 60.6893 255.179C60.2613 254.931 59.7955 254.608 59.3174 254.231C58.3613 253.475 57.3176 252.472 56.3844 251.347C55.4537 250.224 54.6085 248.952 54.0781 247.654C53.5509 246.365 53.3009 244.965 53.695 243.652C54.2449 241.819 55.6906 239.471 57.1978 237.346C58.7239 235.193 60.3863 233.169 61.4564 231.956L62.1564 231.162ZM58.6029 238.342C57.0983 240.464 55.8059 242.61 55.3448 244.147C55.107 244.939 55.2256 245.909 55.6725 247.002C56.1163 248.088 56.8507 249.211 57.7103 250.247C58.5673 251.281 59.5246 252.199 60.3851 252.879C60.8153 253.219 61.2116 253.491 61.5505 253.687C61.9023 253.89 62.143 253.981 62.2711 254.007C62.546 254.062 63.1382 253.984 64.0335 253.66C64.8812 253.353 65.8609 252.877 66.8309 252.316C67.7993 251.755 68.7364 251.121 69.5006 250.507C70.2846 249.877 70.8175 249.323 71.0522 248.932C71.1656 248.743 71.2204 248.461 71.1505 248.043C71.0805 247.623 70.8948 247.135 70.6204 246.622C70.0693 245.591 69.2489 244.617 68.6911 244.122L68.1125 243.607L68.5625 242.977C68.8118 242.628 69.186 242.307 69.4965 242.047C69.5643 241.991 69.631 241.935 69.6967 241.881C69.9644 241.659 70.2137 241.452 70.441 241.23C71.0338 240.65 71.1157 240.318 70.9911 240.007C70.6221 239.084 70.3025 238.716 69.7454 238.358C69.4281 238.154 69.026 237.951 68.4583 237.68C68.3241 237.616 68.1816 237.549 68.0305 237.477C67.5558 237.253 66.9971 236.989 66.3507 236.666C64.3578 235.669 62.954 234.598 62.1263 233.815C61.1238 234.995 59.8174 236.629 58.6029 238.342Z" fill="#A4A2A0"/>
<path d="M16.1861 211.885C7.42434 200.09 9.44629 186.47 11.5525 181.134L43.1455 191.244C43.1455 198.405 65.4713 226.628 64.2076 232.526C62.9438 238.423 54.0978 245.584 50.3066 244.742C46.5155 243.899 27.1384 226.628 16.1861 211.885Z" fill="white"/>
<path fill-rule="evenodd" clip-rule="evenodd" d="M15.4943 212.398C6.50179 200.293 8.57274 186.336 10.751 180.818L12.3532 181.45C10.319 186.604 8.34603 199.887 16.8771 211.371C22.3123 218.688 29.8556 226.653 36.5203 232.898C39.8509 236.018 42.9507 238.699 45.4456 240.647C46.694 241.621 47.7809 242.404 48.6632 242.966C49.5764 243.547 50.1813 243.831 50.493 243.901C51.1574 244.048 52.2042 243.858 53.5357 243.237C54.8326 242.632 56.2688 241.678 57.646 240.505C60.4319 238.132 62.7915 235.022 63.365 232.345C63.4674 231.867 63.3411 230.986 62.8553 229.646C62.3861 228.352 61.6395 226.779 60.6896 225C58.7906 221.444 56.135 217.165 53.4194 212.815C53.281 212.593 53.1425 212.371 53.004 212.149C50.4316 208.03 47.8404 203.88 45.8602 200.303C44.8167 198.418 43.932 196.673 43.3062 195.161C42.691 193.675 42.2838 192.319 42.2838 191.244H44.0064C44.0064 191.96 44.2969 193.051 44.8977 194.502C45.4879 195.928 46.3375 197.609 47.3673 199.469C49.3246 203.004 51.8934 207.118 54.4752 211.253C54.6103 211.47 54.7455 211.686 54.8806 211.903C57.5885 216.24 60.2774 220.571 62.2091 224.189C63.1745 225.997 63.9647 227.652 64.4746 229.059C64.9679 230.419 65.2628 231.71 65.0493 232.706C64.3591 235.927 61.6638 239.346 58.763 241.817C57.2967 243.066 55.7316 244.113 54.2641 244.798C52.8312 245.467 51.3505 245.856 50.1194 245.582C49.4834 245.441 48.6534 245.001 47.7384 244.419C46.7926 243.817 45.6581 242.998 44.3857 242.004C41.8389 240.016 38.699 237.3 35.3425 234.154C28.6328 227.867 21.0113 219.825 15.4943 212.398Z" fill="#A4A2A0"/>
<path d="M118.969 166.812L122.339 208.936C123.687 209.947 126.27 211.885 127.394 212.306C127.057 208.936 121.637 180.573 118.969 166.812Z" fill="#A4A2A0"/>
<path d="M11.9737 180.292C15.0628 185.066 20.3143 198.237 16.6074 212.727C12.6758 208.515 6.24485 196.131 11.9737 180.292Z" fill="#A4A2A0"/>
<path d="M122.338 208.515C132.448 203.797 140.872 205.707 143.821 207.251C142.838 209.217 139.356 213.233 133.29 213.57C127.224 213.907 123.461 210.34 122.338 208.515Z" fill="#A4A2A0"/>
<path d="M48.6224 192.087C48.2854 185.347 51.0094 173.552 52.4136 168.497C51.5711 169.761 49.2121 173.72 46.5162 179.449C43.1463 186.61 42.3038 191.244 44.41 195.456C45.3222 197.281 48.8267 203.302 52.6515 209.779L54.5198 208.21C51.5502 202.181 48.8408 196.454 48.6224 192.087Z" fill="#A4A2A0"/>
<path d="M77.2651 257.8L74.3164 268.331H77.2651V257.8Z" fill="white"/>
<path d="M75.1598 113.736C79.2037 115.084 82.6017 114.297 84.0058 113.736L85.2695 119.633C79.8777 118.959 76.2831 115.28 75.1598 113.736Z" fill="#A4A2A0"/>
<path d="M113.947 63.1118C113.947 60.7334 115.875 58.8054 118.254 58.8054H276.726C279.105 58.8054 281.033 60.7334 281.033 63.1117V184.454C281.033 186.833 279.105 188.761 276.726 188.761H118.254C115.875 188.761 113.947 186.833 113.947 184.454V63.1118Z" fill="white"/>
<path fill-rule="evenodd" clip-rule="evenodd" d="M113.084 63.1118C113.084 60.2578 115.398 57.9442 118.252 57.9442H276.724C279.578 57.9442 281.892 60.2578 281.892 63.1118V184.454C281.892 187.308 279.578 189.622 276.724 189.622H118.252C115.398 189.622 113.084 187.308 113.084 184.454V63.1118ZM118.252 59.6667C116.349 59.6667 114.807 61.2092 114.807 63.1118V184.454C114.807 186.357 116.349 187.9 118.252 187.9H276.724C278.627 187.9 280.169 186.357 280.169 184.454V63.1118C280.169 61.2091 278.627 59.6667 276.724 59.6667H118.252Z" fill="#A4A2A0"/>
<path d="M113.947 63.1117C113.947 60.7334 115.875 58.8054 118.254 58.8054H276.726C279.105 58.8054 281.033 60.7334 281.033 63.1117V79.9312H113.947V63.1117Z" fill="#A4A2A0"/>
<path d="M134.973 68.999C134.973 71.4467 132.989 73.431 130.541 73.431C128.094 73.431 126.109 71.4467 126.109 68.999C126.109 66.5513 128.094 64.567 130.541 64.567C132.989 64.567 134.973 66.5513 134.973 68.999Z" fill="white"/>
<path d="M149.747 68.999C149.747 71.4467 147.762 73.431 145.315 73.431C142.867 73.431 140.883 71.4467 140.883 68.999C140.883 66.5513 142.867 64.567 145.315 64.567C147.762 64.567 149.747 66.5513 149.747 68.999Z" fill="white"/>
<path d="M164.52 68.999C164.52 71.4467 162.536 73.431 160.088 73.431C157.641 73.431 155.656 71.4467 155.656 68.999C155.656 66.5513 157.641 64.567 160.088 64.567C162.536 64.567 164.52 66.5513 164.52 68.999Z" fill="white"/>
<path fill-rule="evenodd" clip-rule="evenodd" d="M134.18 100.582C134.253 97.7448 136.535 95.3944 139.417 95.3944H159.76C162.519 95.3944 164.825 97.5734 164.875 100.362C165.056 110.439 163.873 116.773 158.81 124.379C157.876 125.783 156.29 126.565 154.643 126.565H135.492C131.47 126.565 129.117 122.256 130.65 118.727C132.949 113.439 133.979 108.315 134.18 100.582ZM139.417 97.1169C137.512 97.1169 135.952 98.6792 135.902 100.627C135.697 108.52 134.638 113.873 132.23 119.414C131.12 121.967 132.883 124.842 135.492 124.842H154.643C155.754 124.842 156.783 124.316 157.376 123.424C162.184 116.203 163.33 110.25 163.153 100.393C163.12 98.5736 161.61 97.1169 159.76 97.1169H139.417Z" fill="#A4A2A0"/>
<path fill-rule="evenodd" clip-rule="evenodd" d="M176.828 122.644C176.902 119.806 179.183 117.456 182.065 117.456H202.409C205.167 117.456 207.474 119.635 207.524 122.424C207.705 132.501 206.522 138.835 201.459 146.44C200.524 147.844 198.939 148.627 197.291 148.627H178.141C174.119 148.627 171.765 144.318 173.299 140.789C175.597 135.5 176.628 130.376 176.828 122.644ZM182.065 119.179C180.161 119.179 178.601 120.741 178.55 122.688C178.345 130.581 177.287 135.935 174.878 141.476C173.769 144.029 175.531 146.904 178.141 146.904H197.291C198.402 146.904 199.431 146.378 200.025 145.486C204.832 138.264 205.979 132.312 205.801 122.454C205.769 120.635 204.258 119.179 202.409 119.179H182.065Z" fill="#A4A2A0"/>
<path fill-rule="evenodd" clip-rule="evenodd" d="M232.766 106.984C232.839 104.147 235.121 101.796 238.003 101.796H258.346C261.105 101.796 263.411 103.975 263.461 106.764C263.642 116.841 262.459 123.175 257.396 130.78C256.462 132.184 254.876 132.967 253.229 132.967H234.078C230.056 132.967 227.703 128.658 229.236 125.129C231.535 119.84 232.565 114.716 232.766 106.984ZM238.003 103.519C236.098 103.519 234.538 105.081 234.488 107.028C234.283 114.921 233.224 120.275 230.816 125.816C229.706 128.369 231.469 131.244 234.078 131.244H253.229C254.34 131.244 255.369 130.718 255.962 129.826C260.77 122.604 261.916 116.652 261.739 106.795C261.706 104.975 260.196 103.519 258.346 103.519H238.003Z" fill="#F5F5F5"/>
<path d="M144.994 96.4009C144.994 94.0226 146.922 92.0946 149.3 92.0946H149.65C152.029 92.0946 153.957 94.0226 153.957 96.4009V96.7507C153.957 99.129 152.029 101.057 149.65 101.057H149.3C146.922 101.057 144.994 99.129 144.994 96.7507V96.4009Z" fill="#A4A2A0"/>
<path d="M187.643 118.463C187.643 116.084 189.571 114.156 191.949 114.156H192.299C194.677 114.156 196.605 116.084 196.605 118.463V118.812C196.605 121.191 194.677 123.119 192.299 123.119H191.949C189.571 123.119 187.643 121.191 187.643 118.812V118.463Z" fill="#A4A2A0"/>
<path d="M243.582 102.803C243.582 100.424 245.51 98.4963 247.888 98.4963H248.238C250.616 98.4963 252.544 100.424 252.544 102.803V103.152C252.544 105.531 250.616 107.459 248.238 107.459H247.888C245.51 107.459 243.582 105.531 243.582 103.152V102.803Z" fill="#F5F5F5"/>
<path fill-rule="evenodd" clip-rule="evenodd" d="M155.557 110.24H142.114V108.518H155.557V110.24ZM153.317 117.923H139.873V116.2H153.317V117.923Z" fill="#A4A2A0"/>
<path fill-rule="evenodd" clip-rule="evenodd" d="M198.206 132.302H184.762V130.58H198.206V132.302ZM195.965 139.984H182.521V138.262H195.965V139.984Z" fill="#A4A2A0"/>
<path fill-rule="evenodd" clip-rule="evenodd" d="M190.768 160.814H135.713V159.092H190.768V160.814ZM162.74 171.057H135.713V169.334H162.74V171.057Z" fill="#F5F5F5"/>
<path d="M203.545 222.013C207.259 247.259 226.483 261.85 236.466 266.339C236.786 266.483 237.124 266.55 237.475 266.55H240.289C241.961 266.55 243.194 264.981 242.742 263.371C235.049 235.988 217.208 223.429 206.518 219.509C204.874 218.907 203.29 220.28 203.545 222.013Z" fill="white"/>
<path fill-rule="evenodd" clip-rule="evenodd" d="M206.221 220.318C205.237 219.957 204.229 220.751 204.396 221.887C208.054 246.75 227.005 261.141 236.818 265.554C237.018 265.644 237.235 265.688 237.475 265.688H240.288C241.413 265.688 242.204 264.643 241.912 263.604C234.3 236.509 216.673 224.15 206.221 220.318ZM202.692 222.138C202.35 219.809 204.51 217.856 206.814 218.701C217.743 222.708 235.796 235.468 243.57 263.138C244.183 265.319 242.509 267.411 240.288 267.411H237.475C237.013 267.411 236.553 267.323 236.112 267.125C225.96 262.56 206.463 247.768 202.692 222.138Z" fill="#A4A2A0"/>
<path fill-rule="evenodd" clip-rule="evenodd" d="M219.02 236.544C216.358 233.807 213.953 231.614 211.844 229.74L212.988 228.452C215.474 230.662 218.393 233.332 221.662 236.816C224.09 239.404 226.708 242.439 229.485 246.068V242.354H231.208V248.369C233.58 251.607 236.058 255.279 238.624 259.471C239.842 261.459 241.079 263.565 242.334 265.796L240.833 266.64C239.658 264.552 238.5 262.576 237.36 260.705L231.829 259.776L232.114 258.077L236.155 258.756C233.91 255.174 231.738 251.996 229.653 249.162C226.435 244.788 223.422 241.231 220.66 238.267H215.068V236.544H219.02Z" fill="#A4A2A0"/>
<path d="M233.682 178.173C217.593 212.161 229.139 249.432 237.877 265.58C238.318 266.395 239.172 266.881 240.099 266.881H244.143C245.501 266.881 246.63 265.816 246.713 264.461C249.348 221.593 242.808 191.705 237.866 178.316C237.142 176.354 234.577 176.283 233.682 178.173Z" fill="#A4A2A0"/>
<path d="M270.95 197.545C250.326 211.475 240.313 245.506 237.366 263.982C237.12 265.523 238.327 266.881 239.888 266.881H245.845C246.514 266.881 247.158 266.624 247.631 266.152C266.453 247.406 273.131 216.465 274.482 199.675C274.64 197.708 272.585 196.441 270.95 197.545Z" fill="white"/>
<path fill-rule="evenodd" clip-rule="evenodd" d="M273.622 199.606C273.726 198.311 272.428 197.585 271.431 198.259L270.949 197.545L271.431 198.259C261.318 205.089 253.741 216.904 248.318 229.402C242.902 241.882 239.679 254.937 238.215 264.118C238.056 265.113 238.832 266.02 239.886 266.02H245.844C246.292 266.02 246.715 265.848 247.022 265.542C256.307 256.294 262.626 244.005 266.792 231.9C270.957 219.8 272.951 207.939 273.622 199.606ZM270.467 196.831C272.74 195.296 275.551 197.105 275.339 199.744C274.658 208.201 272.639 220.206 268.421 232.46C264.205 244.71 257.774 257.264 248.237 266.763C247.597 267.4 246.732 267.742 245.844 267.742H239.886C237.819 267.742 236.181 265.933 236.514 263.847C237.997 254.551 241.254 241.353 246.738 228.716C252.214 216.097 259.956 203.931 270.467 196.831Z" fill="#A4A2A0"/>
<path d="M288.283 233.958C267.827 234.724 252.391 251.718 245.326 263.2C244.313 264.847 245.542 266.881 247.475 266.881H254.63C254.989 266.881 255.341 266.808 255.668 266.66C269.088 260.553 282.737 246.549 290.053 237.727C291.351 236.162 290.315 233.882 288.283 233.958Z" fill="#A4A2A0"/>
<path fill-rule="evenodd" clip-rule="evenodd" d="M236.478 183.716C236.25 190.587 236.215 197.223 236.327 203.559C236.414 208.464 236.588 213.189 236.83 217.703L240.519 211.739L241.984 212.645L237.002 220.699C237.351 226.394 237.803 231.727 238.313 236.63C238.919 242.449 239.607 247.662 240.301 252.159L243.498 246.88L244.971 247.772L240.722 254.791C241.569 259.927 242.402 263.953 243.082 266.672L241.41 267.09C240.702 264.257 239.84 260.073 238.97 254.757C238.161 249.814 237.344 243.887 236.636 237.146L230.412 231.735L231.542 230.435L236.381 234.643C235.95 230.243 235.568 225.524 235.266 220.53C234.947 215.258 234.716 209.68 234.609 203.846L230.264 197.428L231.69 196.463L234.564 200.707C234.507 195.222 234.562 189.526 234.756 183.659L236.478 183.716Z" fill="white"/>
<path fill-rule="evenodd" clip-rule="evenodd" d="M260.062 224.439C263.313 217.166 266.664 210.347 269.834 205.009L268.353 204.129C264.875 209.987 261.204 217.56 257.699 225.52C255.791 229.851 253.93 234.304 252.173 238.665L250.714 231.25L249.024 231.582L250.997 241.609C249.179 246.197 247.494 250.63 246.01 254.651C244.286 259.321 242.834 263.439 241.762 266.605L243.393 267.157C244.438 264.073 245.847 260.074 247.52 255.535L256.272 250.388L255.399 248.903L248.468 252.979C249.759 249.525 251.18 245.819 252.692 242.009C254.707 236.929 256.881 231.665 259.121 226.564L267.043 223.948L266.503 222.312L260.062 224.439Z" fill="#A4A2A0"/>
<path fill-rule="evenodd" clip-rule="evenodd" d="M285.347 238.835C280.62 240.884 275.818 243.683 271.235 246.787C268.348 248.743 265.553 250.817 262.925 252.895H267.438V254.617H260.784C254.693 259.604 249.703 264.42 246.854 267.469L245.596 266.293C248.536 263.146 253.676 258.191 259.933 253.089C263.073 250.528 266.498 247.926 270.071 245.495L272.623 240.002L274.185 240.728L272.811 243.685C276.681 241.207 280.686 238.978 284.662 237.255L285.347 238.835Z" fill="white"/>
</svg>
