<svg width="72" height="72" viewBox="0 0 72 72" fill="none" xmlns="http://www.w3.org/2000/svg">
<circle cx="36" cy="36" r="35.5135" fill="#FCFCFC" stroke="#F5F5F5" stroke-width="0.972973"/>
<path d="M45.125 47.875V25.875C45.125 24.3562 43.8938 23.125 42.375 23.125H28.625C27.1062 23.125 25.875 24.3562 25.875 25.875V47.875M45.125 47.875L47.875 47.875M45.125 47.875H38.25M25.875 47.875L23.125 47.875M25.875 47.875H32.75M31.375 28.625H32.75M31.375 34.125H32.75M38.25 28.625H39.625M38.25 34.125H39.625M32.75 47.875V41C32.75 40.2406 33.3656 39.625 34.125 39.625H36.875C37.6344 39.625 38.25 40.2406 38.25 41V47.875M32.75 47.875H38.25" stroke="#605B56" stroke-width="2.75" stroke-linecap="round" stroke-linejoin="round"/>
</svg>
