<svg width="230" height="230" viewBox="0 0 230 230" fill="none" xmlns="http://www.w3.org/2000/svg">
<path d="M50.4893 196.995H183.103C202.243 196.995 215.05 177.3 207.286 159.806C204.678 153.929 204.3 147.304 206.221 141.168L211.43 124.531C216.859 107.188 205.073 89.2114 187.004 87.2754L185.142 87.0759C174.149 85.898 165.084 77.9346 162.499 67.1846C157.782 47.5676 133.57 40.4525 118.99 54.3987L111.082 61.9624C103.828 68.9011 93.7196 71.9999 83.823 70.3185L82.375 70.0725C61.9078 66.5953 43.9711 84.0311 46.8674 104.589C48.4407 115.755 43.7592 126.884 34.677 133.569L30.6402 136.54C22.9753 142.181 18.0729 150.817 17.1581 160.29C15.2582 179.965 30.7235 196.995 50.4893 196.995Z" fill="#FFF7F2"/>
<path d="M98.1093 63.6185C87.4699 71.1429 91.9416 84.5194 93.9462 89.7028L93.0679 100.28C93.9775 103.61 97.2769 110.269 103.198 110.269C109.119 110.269 111.833 104.584 112.45 101.742L111.525 93.7158C118.464 91.2077 118.926 81.1753 118.463 73.1493C117.914 63.6185 107.481 56.9908 98.1093 63.6185Z" fill="#EFC696"/>
<path d="M94.2795 87.0807L93.3578 96.1759C93.0505 95.5022 92.3439 93.5484 91.9753 91.123C91.5145 88.0913 84.1406 76.4696 86.4449 67.8796C88.2884 61.0077 93.3579 61.3108 95.6622 62.3214C97.0448 59.795 105.34 51.205 117.323 52.2156C129.305 53.2262 130.688 70.4061 121.01 72.9325C113.267 74.9537 104.572 73.7747 101.193 72.9325C100.885 73.6063 99.9943 75.8632 98.8882 79.5013C97.5056 84.0489 97.5056 85.0595 97.0448 82.0278C96.5839 78.996 94.7404 73.4378 92.4361 78.996C90.5926 83.4426 92.8969 86.2385 94.2795 87.0807Z" fill="#161616"/>
<path d="M100.975 93.5334C104.146 95.4007 109.049 94.3114 111.105 93.5334L111.545 96.8011C106.965 97.9215 102.59 95.0894 100.975 93.5334Z" fill="#161616"/>
<path d="M102.281 105.998C107.955 105.998 110.971 102.897 111.952 101.053C112.064 100.843 112.28 100.698 112.519 100.702C130.387 101.006 142.816 121.768 146.887 132.339C146.927 132.443 146.935 132.553 146.914 132.662L142.047 157.372C142.033 157.441 139.731 157.509 139.742 157.579C141.511 168.596 144.565 191.48 142.754 195.707C140.937 199.946 126.128 202.899 112.123 202.899C87.8979 202.899 62.7656 202.293 58.8291 198.356C53.9084 193.436 56.5099 132.116 67.4869 116.597C76.0672 104.466 86.7803 100.502 92.4331 100.68C92.6701 100.687 92.8673 100.844 92.9668 101.059C93.8192 102.904 96.6138 105.998 102.281 105.998Z" fill="#EF503A"/>
<path d="M72.3285 184.548C68.3416 179.515 62.915 163.685 60.7 156.4C61.2538 166.445 68.7292 189.184 72.3285 189.184C80.3024 191.304 100.999 174.397 109.767 166.45C97.5 173.922 76.3155 189.582 72.3285 184.548Z" fill="#161616"/>
<path d="M130.262 124.924L134.047 136.28H136.697L130.262 124.924Z" fill="#161616"/>
<path d="M146.47 175.357C144.68 175.967 142.492 175.102 141.621 174.593L151.692 171.538C150.573 174.211 148.708 174.593 146.47 175.357Z" fill="#EFC696"/>
<path d="M85.2333 184.077C77.8733 177.364 69.9 176.134 66.8333 176.358C67.6511 179.378 71.004 185.285 74.1933 186.091C77.3827 186.896 82.5756 185.196 85.2333 184.077Z" fill="#161616"/>
<path d="M132.854 164.2L107.319 171.538L132.217 176.225C132.302 176.241 132.389 176.238 132.473 176.217L165.756 167.824C166.021 167.757 166.207 167.519 166.207 167.246V164.774C166.207 164.444 165.939 164.177 165.61 164.177H133.019C132.963 164.177 132.908 164.185 132.854 164.2Z" fill="white"/>
<path fill-rule="evenodd" clip-rule="evenodd" d="M132.689 163.627C132.796 163.596 132.907 163.58 133.019 163.58H165.61C166.269 163.58 166.803 164.115 166.803 164.774V167.246C166.803 167.792 166.432 168.269 165.902 168.403L132.619 176.796C132.451 176.838 132.277 176.844 132.106 176.812L107.208 172.125L107.154 170.965L132.689 163.627ZM165.61 164.774L133.019 164.774L109.901 171.417L132.327 175.638L165.61 167.246V164.774Z" fill="#161616"/>
<path d="M108.245 171.576L131.785 172.977C132.1 172.996 132.346 173.257 132.346 173.573V175.601C132.346 175.95 132.048 176.224 131.7 176.195L108.16 174.234C107.851 174.208 107.613 173.949 107.613 173.639V172.172C107.613 171.828 107.902 171.555 108.245 171.576Z" fill="white"/>
<path fill-rule="evenodd" clip-rule="evenodd" d="M107.016 172.172C107.016 171.485 107.595 170.939 108.281 170.98L131.82 172.381C132.451 172.419 132.943 172.941 132.943 173.573V175.601C132.943 176.299 132.346 176.848 131.65 176.79L108.111 174.829C107.492 174.777 107.016 174.26 107.016 173.639V172.172ZM131.749 173.573L108.21 172.172L108.245 171.576L108.21 172.172V173.639L131.749 175.601L131.749 173.573Z" fill="#161616"/>
<path d="M84.6264 156.267V140.033L88.7901 155.131C95.1854 154.461 100.612 155.131 104.902 155.131C87.4901 158.159 86.0577 158.288 78.9912 159.466L84.6264 156.267Z" fill="#161616"/>
<path d="M134.821 135.604L132.261 172.541C132.233 172.95 132.615 173.265 133.01 173.159L165.882 164.393C166.116 164.331 166.29 164.132 166.32 163.892L170.709 129.145C170.76 128.743 170.404 128.408 170.006 128.484L135.305 135.058C135.039 135.109 134.84 135.333 134.821 135.604Z" fill="white"/>
<path fill-rule="evenodd" clip-rule="evenodd" d="M169.895 127.897C170.691 127.746 171.403 128.416 171.301 129.22L166.912 163.966C166.851 164.448 166.505 164.845 166.036 164.97L133.164 173.736C132.373 173.947 131.609 173.317 131.666 172.5L134.226 135.562C134.263 135.021 134.661 134.573 135.194 134.472L169.895 127.897ZM170.117 129.07L135.416 135.645L132.856 172.582L165.728 163.817L170.117 129.07Z" fill="#161616"/>
<path d="M156.558 151.992C155.48 156.032 152.641 158.782 150.217 158.136C147.794 157.489 146.702 153.69 147.78 149.65C148.858 145.611 151.697 142.86 154.12 143.507C156.544 144.153 157.635 147.953 156.558 151.992Z" fill="#EF503A"/>
<path d="M107.496 155.155L109.275 166.14C111.498 165.224 114.967 164.492 121.726 165.224C126.173 165.706 131.064 158.816 127.951 156.528C124.838 154.239 121.281 154.697 120.836 154.239C120.392 153.782 118.168 150.578 114.166 152.408C110.965 153.873 108.83 154.697 107.496 155.155Z" fill="#EFC696"/>
<path d="M155.574 111.699C157.729 113.698 158.589 115.225 158.719 118.751C158.726 118.941 158.585 119.103 158.397 119.124L155.745 119.427C155.506 119.455 155.307 119.247 155.336 119.008C155.682 116.156 155.127 114.833 153.151 113.505C152.923 113.352 152.921 113.011 153.156 112.868L155.137 111.657C155.276 111.572 155.455 111.589 155.574 111.699Z" fill="#16AFC0"/>
<path d="M180.206 120.146L179.259 118.071C179.203 117.947 179.22 117.801 179.305 117.695C180.76 115.874 181.969 115.182 185.057 115.214C185.179 115.216 185.293 115.279 185.359 115.382L186.333 116.898C186.494 117.148 186.303 117.478 186.005 117.477C183.468 117.465 182.211 118.192 180.863 120.192C180.7 120.435 180.328 120.413 180.206 120.146Z" fill="#16AFC0"/>
<path d="M188.81 130.751C186.527 129.287 185.14 128.883 182.776 129.084C182.604 129.099 182.467 129.235 182.448 129.408L182.163 132.13C182.134 132.397 182.396 132.603 182.653 132.525C184.719 131.906 185.883 132.245 187.429 133.61C187.623 133.78 187.931 133.714 188.028 133.475L188.95 131.194C189.015 131.032 188.957 130.846 188.81 130.751Z" fill="#16AFC0"/>
<path d="M172.219 107.834L173.581 109.845C173.7 110.021 173.644 110.26 173.466 110.376C170.971 111.987 170.091 114.531 169.908 116.013C169.877 116.266 169.619 116.438 169.381 116.348L167.828 115.756C167.695 115.706 167.603 115.583 167.597 115.441C167.46 111.989 170.099 109.026 171.707 107.75C171.869 107.621 172.103 107.663 172.219 107.834Z" fill="#16AFC0"/>
</svg>
