<svg width="300" height="300" viewBox="0 0 300 300" fill="none" xmlns="http://www.w3.org/2000/svg">
<path d="M58.2922 91.1357C72.1203 86.9718 87.1008 68.8705 92.8625 60.3404C101.073 45.5934 74.7131 60.3404 61.7493 67.2802C48.7854 74.22 41.0071 96.3405 58.2922 91.1357Z" fill="#F5F5F5"/>
<path d="M288.184 217.593C288.184 232.329 280.004 246.604 271.848 256.824C265.21 265.142 254.691 268.774 244.073 268.774H54.2026C43.5467 268.774 36.1051 253.636 34.2666 243.1C31.0041 224.405 13.8613 203.556 16.8077 171.617C21.1289 124.773 50.5137 110.46 81.1948 92.6768C111.876 74.8936 91.998 48.8695 144.718 33.255C197.437 17.6405 253.182 69.2551 251.453 117.4C249.725 165.545 288.184 172.484 288.184 217.593Z" fill="#F5F5F5"/>
<path d="M125.75 269.587H166.422C177.742 265.431 192.837 260.443 189.063 250.884C185.29 241.324 166.422 254.209 161.39 245.065C156.359 235.921 197.03 234.674 192.837 223.036C188.644 211.398 163.067 226.361 166.422 215.139C169.776 203.917 198.288 208.073 197.03 196.435C195.772 184.797 174.388 203.917 171.872 190.616C169.357 177.316 192.418 153.624 174.388 149.468C156.359 145.312 161.39 188.538 155.101 190.616C148.811 192.694 142.941 170.25 134.136 180.225C125.331 190.2 140.426 212.645 134.136 223.036C127.847 233.427 119.042 194.772 108.979 212.645C100.928 226.943 116.806 256.564 125.75 269.587Z" fill="white"/>
<path d="M67.3162 167.974L65.6906 176.507L67.3162 185.446C71.5156 185.988 80.0769 187.071 80.7271 187.071C81.3773 187.071 86.1456 183.008 88.4485 180.976L86.0102 167.974C92.8375 165.698 95.0862 155.648 95.3572 150.907C96.9827 131.403 83.9782 128.965 81.5399 128.965C79.1015 128.965 63.6587 128.965 61.6267 145.219C60.0012 158.221 64.7424 165.806 67.3162 167.974Z" fill="white"/>
<path fill-rule="evenodd" clip-rule="evenodd" d="M71.7572 131.709C67.5539 133.642 63.382 137.49 62.4036 145.316C60.8045 158.107 65.4863 165.409 67.8201 167.374L68.1712 167.669L66.487 176.51L67.9839 184.742C70.0629 185.009 72.9403 185.375 75.4473 185.684C76.8198 185.853 78.0796 186.005 79.036 186.115C79.5145 186.169 79.9145 186.213 80.2138 186.244C80.3636 186.259 80.4854 186.27 80.5776 186.277C80.5983 186.279 80.617 186.281 80.6338 186.282C80.6638 186.267 80.7037 186.245 80.7545 186.216C80.9204 186.119 81.146 185.969 81.4252 185.768C81.9806 185.369 82.6954 184.809 83.472 184.177C84.8786 183.033 86.4572 181.679 87.5943 180.682L85.1122 167.446L85.7609 167.23C88.861 166.196 91.0058 163.364 92.4201 160.057C93.8268 156.767 94.4416 153.162 94.573 150.863L94.5736 150.853L94.5745 150.842C95.3712 141.283 92.5817 136.055 89.4438 133.202C86.2629 130.311 82.6035 129.749 81.5386 129.749C80.3357 129.749 76.0123 129.753 71.7572 131.709ZM80.5699 186.31C80.5699 186.31 80.5736 186.309 80.5808 186.306C80.5734 186.309 80.5699 186.31 80.5699 186.31ZM81.5318 128.181H81.5386C82.9121 128.181 86.9741 128.838 90.4987 132.042C94.065 135.284 96.9642 141.024 96.1382 150.962C95.9975 153.404 95.3522 157.189 93.8621 160.673C92.4648 163.941 90.2627 167.083 86.9011 168.477L89.3001 181.269L88.9661 181.564C87.8099 182.584 86.0337 184.115 84.4616 185.394C83.677 186.032 82.9338 186.615 82.3403 187.041C82.0452 187.253 81.7736 187.437 81.5452 187.57C81.4318 187.636 81.3146 187.699 81.2011 187.747C81.1103 187.785 80.932 187.855 80.7258 187.855C80.5053 187.855 79.7844 187.779 78.8573 187.672C77.8943 187.562 76.6293 187.409 75.2554 187.24C72.5069 186.901 69.3152 186.495 67.2146 186.224L66.646 186.15L64.8918 176.503L66.4619 168.261C63.6209 165.564 59.2617 157.806 60.8474 145.121C61.9009 136.694 66.4664 132.416 71.1021 130.285C75.6776 128.181 80.2863 128.181 81.5318 128.181Z" fill="#A4A2A0"/>
<path d="M27.8943 268.745H91.6977L172.569 268.338C177.574 265.075 178.974 259.81 178.988 255.345C178.999 251.686 176.361 248.743 173.065 247.154C159.969 240.841 140.092 231.073 136.401 228.517C131.118 224.86 126.241 204.95 116.488 189.509C108.685 177.157 94.0005 174.339 88.0401 174.475C87.4983 176.913 85.1954 181.789 77.0676 181.789C68.9398 181.789 65.5532 176.913 64.4695 174.475C60.2701 174.475 48.6202 176.75 38.8668 185.852C26.6836 197.222 21.3994 223.199 16.5255 247.159L16.5153 247.209C12.614 266.388 22.4757 269.286 27.8943 268.745Z" fill="white"/>
<path fill-rule="evenodd" clip-rule="evenodd" d="M88.6477 175.255C88.2675 176.539 87.4783 178.201 85.9295 179.624C84.1062 181.298 81.3008 182.573 77.0681 182.573C69.0305 182.573 65.3535 177.997 63.9789 175.269C59.5736 175.437 48.6269 177.817 39.4024 186.425C33.4657 191.966 29.148 201.137 25.7033 212.021C22.265 222.884 19.7333 235.326 17.2944 247.315L17.2842 247.365C15.3557 256.846 16.8775 262.069 19.3022 264.858C21.7321 267.653 25.257 268.22 27.8167 267.965L27.8557 267.961H91.6982L172.332 267.555C176.876 264.483 178.191 259.606 178.204 255.342C178.214 252.095 175.864 249.373 172.725 247.86C166.175 244.703 157.928 240.681 150.855 237.127C143.814 233.59 137.858 230.479 135.955 229.162C134.457 228.125 133.086 226.029 131.736 223.41C130.366 220.756 128.945 217.412 127.398 213.736C127.293 213.487 127.188 213.237 127.082 212.985C124.047 205.767 120.497 197.325 115.825 189.928C112.031 183.922 106.556 180.22 101.274 178.034C96.3275 175.986 91.5897 175.285 88.6477 175.255ZM101.873 176.585C107.373 178.861 113.142 182.744 117.151 189.091C121.895 196.6 125.488 205.148 128.513 212.341C128.624 212.605 128.734 212.868 128.844 213.128C130.396 216.817 131.794 220.102 133.129 222.692C134.484 225.317 135.704 227.081 136.848 227.873C138.636 229.111 144.465 232.162 151.559 235.726C158.621 239.274 166.86 243.292 173.406 246.448C176.859 248.112 179.785 251.277 179.772 255.347C179.758 259.957 178.308 265.532 172.998 268.995L172.805 269.121L91.7021 269.529L91.6982 269.529H27.9333C25.0761 269.805 20.9855 269.185 18.1185 265.886C15.233 262.567 13.7745 256.751 15.7474 247.053L15.7625 246.978C18.196 235.015 20.7423 222.498 24.208 211.548C27.6697 200.61 32.0858 191.108 38.3323 185.279C48.2501 176.024 60.0999 173.691 64.47 173.691H64.9796L65.1865 174.156C66.1847 176.402 69.3385 181.005 77.0681 181.005C80.9632 181.005 83.3731 179.842 84.8687 178.469C86.3791 177.082 87.0287 175.414 87.2752 174.305L87.4085 173.705L88.0228 173.691C91.1124 173.621 96.3818 174.312 101.873 176.585Z" fill="#A4A2A0"/>
<path d="M55.1241 237.457L61.2199 212.67L60.0007 237.457L87.7588 244.226C91.3229 245.095 94.6559 247.311 95.3303 250.917C96.5333 257.349 94.1338 264.188 91.2928 266.713C93.7312 263.224 93.7312 250.053 90.8865 248.022C88.6107 246.396 60.4071 241.114 46.5898 238.676L55.1241 237.457Z" fill="#A4A2A0"/>
<path d="M115.676 206.169L130.712 268.745H137.215L115.676 206.169Z" fill="#A4A2A0"/>
<path d="M71.7842 159.847C70.1587 169.274 67.8558 170.276 66.9075 169.599C55.5286 162.285 55.8031 138.917 62.8437 130.997C69.3459 123.683 74.2226 126.527 87.6335 123.277C101.044 120.026 105.515 125.715 103.076 133.029C99.5663 143.557 88.4463 137.905 85.6015 139.124C82.7568 140.343 79.0993 143.593 77.4737 150.095C75.8481 156.596 75.0354 155.377 73.8162 151.72C72.597 148.063 69.3459 142.781 66.9075 149.282C64.9569 154.483 69.3459 158.492 71.7842 159.847Z" fill="#A4A2A0"/>
<path d="M119.739 268.745C119.739 257.692 103.348 254.388 95.3553 254.117C95.3553 259.643 91.9688 266.171 90.0723 268.745H119.739Z" fill="white"/>
<path fill-rule="evenodd" clip-rule="evenodd" d="M94.5703 253.306L95.381 253.333C99.4414 253.471 105.643 254.376 110.859 256.67C116.052 258.954 120.522 262.744 120.522 268.745V269.529H88.5195L89.4401 268.28C90.345 267.052 91.6357 264.834 92.6985 262.241C93.7632 259.642 94.5703 256.736 94.5703 254.117V253.306ZM96.116 254.936C95.9713 257.602 95.1495 260.395 94.1497 262.835C93.3344 264.825 92.3849 266.617 91.5448 267.961H118.923C118.558 263.34 114.965 260.189 110.228 258.105C105.572 256.058 100.031 255.153 96.116 254.936Z" fill="#A4A2A0"/>
<path d="M198.726 267.998C198.726 258.174 185.737 256.086 178.73 255.845C178.73 260.757 174.379 265.711 172.717 267.998H198.726Z" fill="white"/>
<path fill-rule="evenodd" clip-rule="evenodd" d="M177.946 255.034L178.757 255.062C182.3 255.183 187.412 255.771 191.666 257.608C195.931 259.449 199.51 262.64 199.51 267.998V268.782H171.178L172.083 267.537C172.316 267.216 172.591 266.855 172.894 266.46C173.718 265.381 174.744 264.038 175.676 262.5C176.947 260.403 177.946 258.086 177.946 255.845V255.034ZM179.478 256.662C179.272 259.047 178.203 261.355 177.018 263.312C176.114 264.804 175.097 266.159 174.292 267.214H197.911C197.589 263.204 194.788 260.664 191.045 259.048C187.342 257.449 182.871 256.837 179.478 256.662Z" fill="#A4A2A0"/>
<path fill-rule="evenodd" clip-rule="evenodd" d="M15.646 254.078C15.4539 261.922 18.2049 268.745 26.5992 268.745H33.9918C32.0412 255.742 21.7231 247.887 16.8462 245.584C16.7391 246.11 16.6323 246.635 16.5257 247.159L16.5155 247.209C15.9957 249.764 15.7203 252.045 15.646 254.078Z" fill="#A4A2A0"/>
<path d="M78.2078 167.85C81.9927 169.111 84.6151 168.375 85.9293 167.85L87.1484 173.539C82.1019 172.908 79.2592 169.295 78.2078 167.85Z" fill="#A4A2A0"/>
<path d="M30.6728 160.665L29.0625 162.817C28.9645 162.948 28.8047 163.011 28.6482 162.98L26.6579 162.591C26.2298 162.507 25.9714 163.069 26.3019 163.365L27.8661 164.767C27.9803 164.87 28.0342 165.027 28.008 165.182L27.6156 167.494C27.5418 167.928 28.0545 168.197 28.3449 167.876L29.9516 166.1C30.046 165.995 30.1828 165.945 30.319 165.964L32.1785 166.229C32.5974 166.288 32.8346 165.743 32.5161 165.453L31.1332 164.194C31.0221 164.093 30.9691 163.939 30.9929 163.787L31.4289 161.01C31.5002 160.556 30.9442 160.302 30.6728 160.665Z" fill="white"/>
<path d="M20.3068 113.608L19.3288 117.89C19.2693 118.151 19.0702 118.355 18.8127 118.419L15.5378 119.24C14.8333 119.417 14.823 120.421 15.5236 120.624L18.8402 121.587C19.0824 121.657 19.2708 121.85 19.3359 122.096L20.3086 125.76C20.4915 126.449 21.4495 126.485 21.6712 125.811L22.8985 122.083C22.9705 121.864 23.1433 121.694 23.3625 121.628L26.355 120.715C27.0291 120.51 27.0189 119.545 26.3404 119.342L23.3948 118.462C23.1582 118.391 22.9737 118.203 22.9069 117.964L21.685 113.586C21.4851 112.87 20.4717 112.887 20.3068 113.608Z" fill="#F5F5F5"/>
<path d="M162.462 57.3477L160.852 59.5C160.754 59.6309 160.594 59.6939 160.437 59.6633L158.447 59.2742C158.019 59.1904 157.76 59.752 158.091 60.0483L159.655 61.4503C159.769 61.5527 159.823 61.7104 159.797 61.865L159.405 64.1769C159.331 64.6115 159.844 64.8805 160.134 64.5595L161.741 62.7829C161.835 62.6786 161.972 62.6282 162.108 62.6475L163.968 62.9118C164.386 62.9713 164.624 62.4265 164.305 62.1364L162.922 60.877C162.811 60.7759 162.758 60.622 162.782 60.4703L163.218 57.6931C163.289 57.2389 162.733 56.9849 162.462 57.3477Z" fill="white"/>
<path d="M145.818 88.7189C145.818 85.7214 148.248 83.2914 151.246 83.2914H283.691C286.689 83.2914 289.119 85.7214 289.119 88.7189V206.653C289.119 209.65 286.689 212.08 283.691 212.08H151.246C148.248 212.08 145.818 209.65 145.818 206.653V88.7189Z" fill="white"/>
<path fill-rule="evenodd" clip-rule="evenodd" d="M145.004 88.719C145.004 85.2721 147.798 82.4779 151.245 82.4779H283.69C287.137 82.4779 289.931 85.2721 289.931 88.719V206.653C289.931 210.1 287.137 212.894 283.69 212.894H151.245C147.798 212.894 145.004 210.1 145.004 206.653V88.719ZM151.245 84.1049C148.697 84.1049 146.631 86.1707 146.631 88.719V206.653C146.631 209.201 148.697 211.267 151.245 211.267H283.69C286.238 211.267 288.304 209.201 288.304 206.653V88.719C288.304 86.1707 286.238 84.1049 283.69 84.1049H151.245Z" fill="#A4A2A0"/>
<path d="M145.818 88.7189C145.818 85.7214 148.248 83.2914 151.246 83.2914H283.667C286.664 83.2914 289.094 85.7214 289.094 88.7189V106.83H145.818V88.7189Z" fill="white"/>
<path fill-rule="evenodd" clip-rule="evenodd" d="M145.004 88.719C145.004 85.2721 147.798 82.4779 151.245 82.4779H283.666C287.112 82.4779 289.907 85.2721 289.907 88.719V107.643H145.004V88.719ZM151.245 84.1049C148.697 84.1049 146.631 86.1707 146.631 88.719V106.016H288.28V88.719C288.28 86.1707 286.214 84.1049 283.666 84.1049H151.245Z" fill="#A4A2A0"/>
<path d="M163.957 95.9889C163.957 97.9925 162.333 99.6168 160.329 99.6168C158.325 99.6168 156.701 97.9925 156.701 95.9889C156.701 93.9853 158.325 92.3611 160.329 92.3611C162.333 92.3611 163.957 93.9853 163.957 95.9889Z" fill="#A4A2A0"/>
<path d="M179.377 95.9889C179.377 97.9925 177.753 99.6168 175.749 99.6168C173.745 99.6168 172.121 97.9925 172.121 95.9889C172.121 93.9853 173.745 92.3611 175.749 92.3611C177.753 92.3611 179.377 93.9853 179.377 95.9889Z" fill="#A4A2A0"/>
<path d="M193.887 95.9889C193.887 97.9925 192.262 99.6168 190.259 99.6168C188.255 99.6168 186.631 97.9925 186.631 95.9889C186.631 93.9853 188.255 92.3611 190.259 92.3611C192.262 92.3611 193.887 93.9853 193.887 95.9889Z" fill="#A4A2A0"/>
<path d="M237.628 109.826L239.27 118.46L237.628 127.506C233.388 128.054 224.742 129.15 224.086 129.15C223.429 129.15 218.614 125.039 216.288 122.983L218.751 109.826C211.856 107.523 209.585 97.3539 209.312 92.557C207.67 72.8213 220.803 70.3544 223.265 70.3544C225.727 70.3544 241.322 70.3544 243.374 86.8008C245.015 99.9579 240.228 107.633 237.628 109.826Z" fill="white"/>
<path fill-rule="evenodd" clip-rule="evenodd" d="M233.12 73.1803C237.35 75.1286 241.549 79.0077 242.534 86.9059C244.147 99.8339 239.424 107.203 237.083 109.177L236.705 109.497L238.409 118.464L236.907 126.744C234.811 127.014 231.925 127.381 229.41 127.692C228.024 127.863 226.752 128.017 225.786 128.128C225.303 128.184 224.899 128.228 224.597 128.259C224.446 128.274 224.324 128.285 224.231 128.293C224.216 128.294 224.202 128.295 224.19 128.296C224.162 128.282 224.127 128.263 224.084 128.238C223.919 128.141 223.692 127.99 223.411 127.787C222.851 127.384 222.131 126.819 221.347 126.18C219.936 125.031 218.355 123.671 217.209 122.665L219.718 109.255L219.018 109.022C215.909 107.983 213.752 105.134 212.326 101.793C210.909 98.4717 210.289 94.8301 210.156 92.5086L210.156 92.4976L210.155 92.4866C209.351 82.8268 212.164 77.5546 215.318 74.682C218.519 71.7672 222.2 71.202 223.265 71.202C224.479 71.202 228.834 71.2061 233.12 73.1803ZM224.262 128.33C224.262 128.329 224.258 128.328 224.25 128.325C224.259 128.329 224.263 128.33 224.262 128.33ZM223.272 69.5067H223.265C221.867 69.5067 217.751 70.175 214.18 73.4276C210.564 76.7211 207.633 82.5473 208.468 92.6164C208.61 95.0921 209.263 98.9274 210.77 102.46C212.178 105.759 214.398 108.941 217.788 110.368L215.368 123.3L215.729 123.618C216.896 124.651 218.691 126.201 220.279 127.495C221.072 128.141 221.823 128.732 222.424 129.164C222.722 129.379 222.998 129.565 223.231 129.701C223.346 129.769 223.467 129.834 223.585 129.884C223.678 129.923 223.866 129.998 224.086 129.998C224.312 129.998 225.045 129.92 225.979 129.812C226.951 129.701 228.229 129.546 229.617 129.375C232.392 129.032 235.615 128.62 237.737 128.346L238.35 128.267L240.131 118.456L238.549 110.136C241.433 107.373 245.812 99.5118 244.213 86.6956C243.147 78.1474 238.523 73.8033 233.827 71.64C229.195 69.5067 224.532 69.5067 223.272 69.5067Z" fill="#A4A2A0"/>
<path d="M227.778 123.805C235.986 123.805 239.406 118.871 240.5 116.404L243.373 117.227L225.316 210.971H222.443H178.532L206.028 122.161L215.467 116.404H216.698C217.245 118.871 219.571 123.805 227.778 123.805Z" fill="white"/>
<path fill-rule="evenodd" clip-rule="evenodd" d="M240.027 115.387L239.728 116.06C238.726 118.319 235.557 122.958 227.779 122.958C223.858 122.958 221.438 121.785 219.939 120.406C218.424 119.012 217.772 117.335 217.525 116.22L217.378 115.557H215.23L205.316 121.603L177.385 211.819H226.015L244.352 116.625L240.027 115.387ZM216.047 117.252C216.437 118.552 217.238 120.223 218.794 121.654C220.647 123.359 223.493 124.653 227.779 124.653C235.746 124.653 239.487 120.205 240.952 117.415L242.396 117.828L224.619 210.123H179.681L206.742 122.718L215.705 117.252H216.047Z" fill="#A4A2A0"/>
<path d="M226.958 165.332C229.256 150.531 237.218 126.272 240.911 115.993C247.888 117.227 263.401 121.996 269.639 131.206C275.876 140.416 284.276 170.952 287.696 185.068C291.389 197.814 291.389 211.793 277.436 211.793H214.236C207.67 199.047 209.722 192.88 211.774 190.413C213.416 188.44 220.698 186.85 224.135 186.302C225.027 178.937 226.009 171.445 226.958 165.332Z" fill="white"/>
<path fill-rule="evenodd" clip-rule="evenodd" d="M240.357 115.034L241.059 115.158C244.609 115.786 250.3 117.306 255.9 119.836C261.482 122.357 267.09 125.932 270.339 130.73C271.954 133.115 273.677 136.824 275.399 141.212C277.127 145.616 278.875 150.758 280.532 156.043C283.842 166.605 286.8 177.777 288.514 184.85C290.369 191.26 291.341 198.112 290.004 203.418C289.33 206.094 288.056 208.421 285.97 210.075C283.883 211.729 281.068 212.641 277.436 212.641H213.721L213.485 212.182C206.847 199.296 208.758 192.716 211.125 189.87C211.665 189.22 212.581 188.686 213.569 188.242C214.586 187.784 215.799 187.371 217.046 187.009C219.26 186.366 221.644 185.868 223.372 185.569C224.245 178.404 225.199 171.154 226.123 165.202C228.435 150.311 236.423 125.984 240.116 115.706L240.357 115.034ZM241.465 116.958C237.678 127.59 230.03 151.064 227.795 165.463C226.848 171.562 225.867 179.042 224.975 186.404L224.898 187.038L224.268 187.139C222.575 187.409 219.931 187.936 217.517 188.637C216.309 188.987 215.179 189.376 214.262 189.788C213.315 190.214 212.704 190.619 212.424 190.956C210.709 193.019 208.548 198.658 214.755 210.946H277.436C280.782 210.946 283.199 210.11 284.92 208.745C286.644 207.379 287.756 205.415 288.364 203.003C289.59 198.138 288.718 191.635 286.884 185.304L286.878 185.286L286.874 185.268C285.167 178.224 282.217 167.079 278.917 156.551C277.267 151.287 275.532 146.186 273.824 141.832C272.11 137.464 270.443 133.902 268.939 131.682C265.951 127.27 260.683 123.855 255.205 121.381C250.103 119.077 244.919 117.632 241.465 116.958Z" fill="#A4A2A0"/>
<path d="M249.939 180.134L243.783 155.053L245.424 179.723L215.051 187.422C212.687 188.022 210.52 189.495 209.851 191.844C207.854 198.854 210.963 206.931 213.414 209.738C210.9 206.859 210.952 192.88 213.824 190.824C216.123 189.18 244.603 183.835 258.557 181.368L249.939 180.134Z" fill="#A4A2A0"/>
<path d="M234.755 97.0798L239.269 116.404C248.134 116.404 257.874 121.338 261.43 123.805C263.482 111.059 255.685 105.714 251.171 95.8463C246.656 85.9784 250.35 62.9535 227.368 62.9535C208.983 62.9535 206.302 79.3999 207.259 87.6231C215.467 85.3206 220.255 76.7959 221.623 72.8213C222.443 74.8771 229.42 93.3793 231.882 88.8566C234.345 84.3338 238.038 83.1004 240.09 88.8566C241.732 93.4616 237.217 96.2575 234.755 97.0798Z" fill="#A4A2A0"/>
<path d="M201.514 120.105C207.095 114.513 209.311 101.603 209.721 95.8463C211.035 105.385 216.288 109.14 218.75 109.826L217.519 116.404C210.296 116.075 203.839 118.734 201.514 120.105Z" fill="#A4A2A0"/>
<path d="M271.69 211.793C273.66 198.636 283.591 190.276 288.516 187.946C291.177 198.697 290.568 211.793 279.077 211.793H271.69Z" fill="#A4A2A0"/>
<path d="M227.348 110.073C223.409 111.389 219.7 110.198 218.332 109.649L217.486 115.159C222.739 114.501 226.254 111.581 227.348 110.073Z" fill="#A4A2A0"/>
<path d="M142.232 140.361C142.832 142.817 145.613 144.543 146.113 145.438L136.981 153.409C135.481 150.467 133.359 144.146 125.858 143.225C115.356 142.073 114.443 134.192 119.693 133.04C123.894 132.119 131.229 133.601 135.105 134.369L130.677 132.44C130.064 132.173 129.857 131.405 130.253 130.865C130.471 130.567 130.83 130.405 131.199 130.427C132.707 130.517 135.476 130.651 137.731 132.302C139.949 133.926 141.482 137.291 142.232 140.361Z" fill="white"/>
<path fill-rule="evenodd" clip-rule="evenodd" d="M130.933 131.367C130.975 131.309 131.053 131.268 131.147 131.273L131.192 131.276C132.733 131.368 135.223 131.517 137.231 132.987C139.201 134.43 140.673 137.549 141.409 140.563C141.766 142.023 142.749 143.205 143.605 144.079C143.915 144.395 144.231 144.694 144.504 144.951C144.608 145.049 144.706 145.141 144.794 145.225C144.84 145.27 144.884 145.312 144.924 145.351L137.259 152.041C137.252 152.024 137.244 152.008 137.236 151.991C135.746 148.823 133.132 143.264 125.959 142.383L125.949 142.382C120.871 141.825 118.381 139.677 117.655 137.823C117.291 136.896 117.351 136.029 117.71 135.354C118.067 134.683 118.769 134.111 119.873 133.869C121.823 133.441 124.584 133.563 127.416 133.913C130.138 134.249 132.827 134.782 134.758 135.164C134.819 135.177 134.88 135.189 134.939 135.2L135.441 133.592L131.013 131.663C130.897 131.613 130.859 131.468 130.933 131.367ZM131.248 129.581C130.604 129.542 129.964 129.824 129.569 130.363C129.089 131.019 129.099 131.86 129.491 132.489C128.877 132.396 128.251 132.308 127.623 132.23C124.769 131.878 121.762 131.719 119.511 132.212C117.99 132.546 116.837 133.39 116.216 134.557C115.598 135.72 115.558 137.111 116.08 138.442C117.122 141.104 120.338 143.471 125.759 144.067C131.942 144.828 134.155 149.473 135.679 152.67C135.87 153.071 136.05 153.449 136.226 153.794L136.719 154.76L147.186 145.625L146.85 145.025C146.651 144.669 146.282 144.305 145.963 144C145.857 143.898 145.748 143.796 145.638 143.692C145.373 143.443 145.098 143.182 144.813 142.891C144.003 142.064 143.296 141.156 143.052 140.16C142.288 137.033 140.693 133.422 138.229 131.618C135.814 129.85 132.895 129.678 131.375 129.588C131.331 129.586 131.289 129.583 131.248 129.581Z" fill="#A4A2A0"/>
<path fill-rule="evenodd" clip-rule="evenodd" d="M215.878 115.993C211.774 125.587 202.91 148.886 200.283 165.332C197.657 181.779 195.632 202.885 194.948 211.793H174.839L175.496 210.148C170.393 210.108 164.939 208.675 161.706 206.448C155.14 201.926 132.611 160.398 132.611 155.465C132.611 150.531 142.05 142.307 146.154 142.307C148.109 142.307 153.322 147.437 158.556 152.588C164.312 158.252 170.094 163.942 171.598 162.865C172.715 162.066 173.46 159.775 174.556 156.404C176.279 151.103 178.87 143.131 185.141 134.084C187.742 130.332 190.82 127.237 193.998 124.756C200.634 118.389 211.254 116.258 215.878 115.993Z" fill="white"/>
<path fill-rule="evenodd" clip-rule="evenodd" d="M217.194 115.069L216.656 116.327C212.556 125.91 203.728 149.129 201.119 165.466C198.498 181.881 196.475 202.962 195.792 211.858L195.732 212.641H173.59L174.261 210.96C169.408 210.721 164.373 209.314 161.227 207.147C160.292 206.503 159.155 205.269 157.907 203.687C156.642 202.083 155.209 200.049 153.684 197.735C150.634 193.106 147.191 187.317 143.958 181.524C140.725 175.731 137.695 169.919 135.471 165.241C134.359 162.903 133.444 160.838 132.804 159.194C132.485 158.373 132.23 157.646 132.054 157.036C131.883 156.446 131.766 155.899 131.766 155.465C131.766 153.988 132.459 152.381 133.441 150.866C134.437 149.329 135.794 147.786 137.268 146.415C138.743 145.043 140.358 143.82 141.883 142.936C143.377 142.069 144.898 141.46 146.154 141.46C146.567 141.46 146.987 141.591 147.376 141.763C147.774 141.939 148.202 142.187 148.648 142.483C149.54 143.075 150.571 143.905 151.682 144.878C153.903 146.821 156.529 149.405 159.135 151.97L159.149 151.984C162.035 154.824 164.895 157.637 167.218 159.608C168.385 160.597 169.377 161.341 170.147 161.77C170.534 161.986 170.819 162.096 171.01 162.135C171.077 162.148 171.118 162.151 171.141 162.15C171.483 161.887 171.863 161.316 172.306 160.268C172.751 159.216 173.199 157.84 173.752 156.141L173.754 156.133C175.482 150.818 178.105 142.75 184.446 133.601C187.092 129.784 190.218 126.637 193.444 124.114C196.88 120.83 201.306 118.663 205.424 117.282C209.559 115.897 213.444 115.284 215.83 115.147L217.194 115.069ZM176.089 210.946H194.166C194.904 201.621 196.891 181.212 199.448 165.198C201.98 149.347 210.247 127.24 214.551 116.958C212.309 117.207 209.22 117.798 205.961 118.89C201.967 120.229 197.78 122.301 194.583 125.368L194.552 125.398L194.518 125.424C191.399 127.859 188.383 130.893 185.836 134.568C179.639 143.508 177.079 151.381 175.36 156.666L175.35 156.699C174.81 158.358 174.341 159.802 173.864 160.93C173.397 162.035 172.856 163.007 172.09 163.555C171.636 163.881 171.107 163.884 170.674 163.796C170.239 163.708 169.78 163.505 169.324 163.251C168.406 162.739 167.312 161.908 166.125 160.902C163.748 158.886 160.846 156.03 157.983 153.212L157.964 153.193C155.341 150.612 152.748 148.061 150.569 146.155C149.479 145.201 148.513 144.427 147.713 143.896C147.314 143.631 146.973 143.438 146.692 143.313C146.401 143.184 146.23 143.155 146.154 143.155C145.359 143.155 144.161 143.574 142.731 144.403C141.332 145.214 139.818 146.356 138.42 147.657C137.021 148.958 135.763 150.396 134.86 151.789C133.944 153.203 133.458 154.474 133.458 155.465C133.458 155.647 133.516 156.002 133.679 156.565C133.836 157.108 134.071 157.783 134.381 158.579C134.999 160.168 135.895 162.192 136.998 164.512C139.203 169.149 142.215 174.927 145.435 180.697C148.655 186.468 152.076 192.218 155.096 196.801C156.607 199.093 158.011 201.084 159.235 202.636C160.476 204.21 161.479 205.263 162.186 205.75C165.239 207.853 170.512 209.261 175.503 209.3L176.742 209.31L176.089 210.946Z" fill="#A4A2A0"/>
<path d="M188.793 156.698C187.485 172.68 182.252 201.279 180.072 211.793H174.84C177.282 206.41 185.305 173.521 188.793 156.698Z" fill="#A4A2A0"/>
<path d="M153.498 195.758C156.371 200.692 159.654 207.271 166.63 208.915C169.689 209.937 172.806 210.248 175.659 210.166L180.173 204.115C170.553 198.586 158.92 196.098 153.498 195.758Z" fill="#A4A2A0"/>
<path d="M184.688 211.793C184.688 200.61 201.24 197.266 209.311 196.992C209.311 202.583 212.184 208.093 214.646 211.793H184.688Z" fill="white"/>
<path fill-rule="evenodd" clip-rule="evenodd" d="M210.159 196.115L209.284 196.144C205.179 196.284 198.909 197.201 193.634 199.526C188.383 201.839 183.843 205.688 183.843 211.793V212.641H216.229L215.352 211.323C212.914 207.66 210.159 202.325 210.159 196.992V196.115ZM208.489 197.878C208.735 202.763 210.957 207.469 213.099 210.946H185.571C185.963 206.331 189.558 203.174 194.315 201.077C198.986 199.019 204.544 198.103 208.489 197.878Z" fill="#A4A2A0"/>
</svg>
