<svg width="230" height="230" viewBox="0 0 230 230" fill="none" xmlns="http://www.w3.org/2000/svg">
<path d="M63.2421 184.947H135.456H199.066C215.283 184.947 224.997 166.933 216.079 153.399C211.266 146.095 211.661 136.538 217.004 129.612C217.275 129.261 217.546 128.91 217.817 128.558C228.87 114.221 220.547 86.1544 202.973 81.7772C200.059 81.0515 197.195 80.373 194.453 79.7665C187.438 78.2146 181.071 74.3525 176.889 68.5151L168.929 57.4077C160.092 45.0755 143.349 41.4269 130.176 48.963L104.658 63.5614C99.032 66.7802 92.5033 68.063 86.0762 67.2128L55.036 63.1063C34.7841 60.4271 18.7868 79.9746 25.435 99.2766L28.0004 106.725C30.4967 113.972 27.8577 121.994 21.5447 126.348C12.8363 132.354 11.6219 144.742 18.9983 152.323L42.0314 175.993C47.6015 181.717 55.2519 184.947 63.2421 184.947Z" fill="#F5F5F5"/>
<path d="M34.9024 63.8059C34.9024 61.632 36.6668 59.8698 38.8434 59.8698H200.497C202.674 59.8698 204.438 61.632 204.438 63.8059V179.828C204.438 182.002 202.674 183.764 200.497 183.764H38.8434C36.6668 183.764 34.9024 182.002 34.9024 179.828V63.8059Z" fill="white"/>
<path fill-rule="evenodd" clip-rule="evenodd" d="M34.3116 63.8059C34.3116 61.3062 36.3406 59.2798 38.8434 59.2798H200.497C203 59.2798 205.029 61.3062 205.029 63.8059V179.828C205.029 182.328 203 184.354 200.497 184.354H38.8434C36.3406 184.354 34.3116 182.328 34.3116 179.828V63.8059ZM38.8434 60.4597C36.9931 60.4597 35.4931 61.9579 35.4931 63.8059V179.828C35.4931 181.676 36.9931 183.174 38.8434 183.174H200.497C202.348 183.174 203.848 181.676 203.848 179.828V63.8059C203.848 61.9578 202.348 60.4597 200.497 60.4597H38.8434Z" fill="#A4A2A0"/>
<path d="M34.9024 63.8059C34.9024 61.632 36.6668 59.8698 38.8434 59.8698H200.497C202.674 59.8698 204.438 61.632 204.438 63.8059V73.4391H34.9024V63.8059Z" fill="#A4A2A0"/>
<path d="M47.3706 66.7509C47.3706 68.3797 46.0486 69.7001 44.4177 69.7001C42.7869 69.7001 41.4649 68.3797 41.4649 66.7509C41.4649 65.1221 42.7869 63.8018 44.4177 63.8018C46.0486 63.8018 47.3706 65.1221 47.3706 66.7509Z" fill="white"/>
<path d="M57.2144 66.7509C57.2144 68.3797 55.8923 69.7001 54.2615 69.7001C52.6307 69.7001 51.3086 68.3797 51.3086 66.7509C51.3086 65.1221 52.6307 63.8018 54.2615 63.8018C55.8923 63.8018 57.2144 65.1221 57.2144 66.7509Z" fill="white"/>
<path d="M67.0558 66.7509C67.0558 68.3797 65.7338 69.7001 64.103 69.7001C62.4721 69.7001 61.1501 68.3797 61.1501 66.7509C61.1501 65.1221 62.4721 63.8018 64.103 63.8018C65.7338 63.8018 67.0558 65.1221 67.0558 66.7509Z" fill="white"/>
<path d="M63.8475 109.518V94.0882C63.8475 92.459 62.5252 91.1383 60.8939 91.1383H50.6059C49.8226 91.1383 49.0713 91.4491 48.5174 92.0023L46.9911 93.5267C46.4372 94.0799 46.126 94.8302 46.126 95.6126V109.518C46.126 111.147 47.4484 112.468 49.0796 112.468H60.8939C62.5252 112.468 63.8475 111.147 63.8475 109.518Z" fill="white"/>
<path fill-rule="evenodd" clip-rule="evenodd" d="M48.0997 91.5851C48.7644 90.9213 49.6659 90.5483 50.6059 90.5483H60.8939C62.8514 90.5483 64.4382 92.1332 64.4382 94.0882V109.518C64.4382 111.473 62.8514 113.058 60.8939 113.058H49.0796C47.1221 113.058 45.5353 111.473 45.5353 109.518V95.6126C45.5353 94.6738 45.9087 93.7734 46.5734 93.1096L48.0997 91.5851L48.5174 92.0023L48.0997 91.5851ZM50.6059 91.7283C49.9793 91.7283 49.3782 91.9769 48.9351 92.4195L47.4088 93.9439C46.9656 94.3865 46.7167 94.9867 46.7167 95.6126V109.518C46.7167 110.822 47.7746 111.878 49.0796 111.878H60.8939C62.1989 111.878 63.2568 110.822 63.2568 109.518V94.0882C63.2568 92.7848 62.1989 91.7283 60.8939 91.7283H50.6059Z" fill="#A4A2A0"/>
<path d="M46.2016 94.3907L49.4581 91.1383V92.6208C49.4581 93.5983 48.6647 94.3907 47.6859 94.3907H46.2016Z" fill="#A4A2A0"/>
<path fill-rule="evenodd" clip-rule="evenodd" d="M53.7751 95.8883H49.837V94.7084H53.7751V95.8883ZM59.8338 99.5189H49.837V98.339H59.8338V99.5189ZM59.8338 102.62H49.837V101.44H59.8338V102.62ZM59.8338 105.797H49.837V104.617H59.8338V105.797ZM58.0162 108.747H49.837V107.567H58.0162V108.747Z" fill="#A4A2A0"/>
<path d="M63.8475 141.967V126.537C63.8475 124.907 62.5252 123.587 60.8939 123.587H50.6059C49.8226 123.587 49.0713 123.898 48.5174 124.451L46.9911 125.975C46.4372 126.528 46.126 127.279 46.126 128.061V141.967C46.126 143.596 47.4484 144.917 49.0796 144.917H60.8939C62.5252 144.917 63.8475 143.596 63.8475 141.967Z" fill="white"/>
<path fill-rule="evenodd" clip-rule="evenodd" d="M48.0997 124.034C48.7644 123.37 49.6659 122.997 50.6059 122.997H60.8939C62.8514 122.997 64.4382 124.582 64.4382 126.537V141.967C64.4382 143.922 62.8514 145.507 60.8939 145.507H49.0796C47.1221 145.507 45.5353 143.922 45.5353 141.967V128.061C45.5353 127.122 45.9087 126.222 46.5734 125.558L48.0997 124.034L48.5174 124.451L48.0997 124.034ZM50.6059 124.177C49.9793 124.177 49.3782 124.425 48.9351 124.868L47.4088 126.392C46.9656 126.835 46.7167 127.435 46.7167 128.061V141.967C46.7167 143.27 47.7746 144.327 49.0796 144.327H60.8939C62.1989 144.327 63.2568 143.27 63.2568 141.967V126.537C63.2568 125.233 62.1989 124.177 60.8939 124.177H50.6059Z" fill="#A4A2A0"/>
<path d="M46.2016 126.839L49.4581 123.587V125.069C49.4581 126.047 48.6647 126.839 47.6859 126.839H46.2016Z" fill="#A4A2A0"/>
<path fill-rule="evenodd" clip-rule="evenodd" d="M53.7751 128.337H49.837V127.157H53.7751V128.337ZM59.8338 131.967H49.837V130.787H59.8338V131.967ZM59.8338 135.069H49.837V133.889H59.8338V135.069ZM59.8338 138.245H49.837V137.065H59.8338V138.245ZM58.0162 141.195H49.837V140.015H58.0162V141.195Z" fill="#A4A2A0"/>
<path d="M63.8475 173.825V158.395C63.8475 156.766 62.5252 155.445 60.8939 155.445H50.6059C49.8226 155.445 49.0713 155.756 48.5174 156.309L46.9911 157.834C46.4372 158.387 46.126 159.137 46.126 159.92V173.825C46.126 175.454 47.4484 176.775 49.0796 176.775H60.8939C62.5252 176.775 63.8475 175.454 63.8475 173.825Z" fill="white"/>
<path fill-rule="evenodd" clip-rule="evenodd" d="M48.0997 155.892C48.7644 155.228 49.6659 154.855 50.6059 154.855H60.8939C62.8514 154.855 64.4382 156.44 64.4382 158.395V173.825C64.4382 175.78 62.8514 177.365 60.8939 177.365H49.0796C47.1221 177.365 45.5353 175.78 45.5353 173.825V159.92C45.5353 158.981 45.9087 158.08 46.5734 157.417L48.0997 155.892L48.5174 156.309L48.0997 155.892ZM50.6059 156.035C49.9793 156.035 49.3782 156.284 48.9351 156.726L47.4088 158.251C46.9656 158.693 46.7167 159.294 46.7167 159.92V173.825C46.7167 175.129 47.7746 176.185 49.0796 176.185H60.8939C62.1989 176.185 63.2568 175.129 63.2568 173.825V158.395C63.2568 157.092 62.1989 156.035 60.8939 156.035H50.6059Z" fill="#A4A2A0"/>
<path d="M46.2016 158.698L49.4581 155.445V156.928C49.4581 157.905 48.6647 158.698 47.6859 158.698H46.2016Z" fill="#A4A2A0"/>
<path fill-rule="evenodd" clip-rule="evenodd" d="M53.7751 160.195H49.837V159.015H53.7751V160.195ZM59.8338 163.826H49.837V162.646H59.8338V163.826ZM59.8338 166.927H49.837V165.747H59.8338V166.927ZM59.8338 170.104H49.837V168.924H59.8338V170.104ZM58.0162 173.054H49.837V171.874H58.0162V173.054Z" fill="#A4A2A0"/>
<path d="M46.126 82.2887C46.126 81.3112 46.9194 80.5188 47.8981 80.5188H60.8939C61.8727 80.5188 62.6661 81.3112 62.6661 82.2887C62.6661 83.2662 61.8727 84.0586 60.8939 84.0586H47.8981C46.9194 84.0586 46.126 83.2662 46.126 82.2887Z" fill="#A4A2A0"/>
<path d="M109.333 103.528C109.333 102.55 110.126 101.758 111.105 101.758H135.915C136.894 101.758 137.687 102.55 137.687 103.528C137.687 104.505 136.894 105.298 135.915 105.298H111.105C110.126 105.298 109.333 104.505 109.333 103.528Z" fill="#A4A2A0"/>
<path d="M109.333 117.097C109.333 116.445 109.862 115.917 110.514 115.917H171.949C172.601 115.917 173.13 116.445 173.13 117.097C173.13 117.749 172.601 118.277 171.949 118.277H110.514C109.862 118.277 109.333 117.749 109.333 117.097Z" fill="#F5F5F5"/>
<path d="M109.333 130.076C109.333 129.425 109.862 128.896 110.514 128.896H171.949C172.601 128.896 173.13 129.425 173.13 130.076C173.13 130.728 172.601 131.256 171.949 131.256H110.514C109.862 131.256 109.333 130.728 109.333 130.076Z" fill="#F5F5F5"/>
<path d="M109.333 143.056C109.333 142.404 109.862 141.876 110.514 141.876H171.949C172.601 141.876 173.13 142.404 173.13 143.056C173.13 143.707 172.601 144.236 171.949 144.236H110.514C109.862 144.236 109.333 143.707 109.333 143.056Z" fill="#F5F5F5"/>
<path fill-rule="evenodd" clip-rule="evenodd" d="M93.3834 91.1382C93.3834 89.8349 94.4413 88.7783 95.7463 88.7783H186.717C188.022 88.7783 189.08 89.8349 189.08 91.1382V155.445C189.08 156.749 188.022 157.805 186.717 157.805H95.7463C94.4413 157.805 93.3834 156.749 93.3834 155.445V91.1382ZM95.7463 89.9583C95.0938 89.9583 94.5648 90.4865 94.5648 91.1382V155.445C94.5648 156.097 95.0938 156.625 95.7463 156.625H186.717C187.369 156.625 187.898 156.097 187.898 155.445V91.1382C187.898 90.4865 187.369 89.9583 186.717 89.9583H95.7463Z" fill="#F5F5F5"/>
<path fill-rule="evenodd" clip-rule="evenodd" d="M93.3834 170.785C93.3834 169.481 94.4413 168.425 95.7463 168.425H186.717C188.022 168.425 189.08 169.481 189.08 170.785V183.174H93.3834V170.785ZM95.7463 169.605C95.0938 169.605 94.5648 170.133 94.5648 170.785V181.994H187.898V170.785C187.898 170.133 187.369 169.605 186.717 169.605H95.7463Z" fill="#F5F5F5"/>
<path d="M78.9108 80.5188C79.4002 80.5188 79.7969 80.915 79.7969 81.4038L79.7969 175.799C79.7969 176.288 79.4002 176.684 78.9108 176.684C78.4215 176.684 78.0247 176.288 78.0247 175.799L78.0248 81.4038C78.0248 80.915 78.4215 80.5188 78.9108 80.5188Z" fill="#F5F5F5"/>
<path d="M161.101 96.937C167.996 101.802 165.098 110.451 163.799 113.802L164.368 120.641C163.779 122.794 161.641 127.1 157.804 127.1C153.967 127.1 152.208 123.424 151.808 121.586L152.408 116.397C147.912 114.775 147.612 108.289 147.912 103.099C148.268 96.937 155.028 92.6517 161.101 96.937Z" fill="white"/>
<path fill-rule="evenodd" clip-rule="evenodd" d="M152.561 96.4781C154.911 95.2479 157.947 95.2338 160.854 97.2854C164.157 99.6157 165.119 102.842 165.095 105.934C165.071 109.042 164.046 111.982 163.4 113.648L163.365 113.74L163.936 120.6C163.643 121.632 162.991 123.149 161.971 124.41C160.928 125.7 159.545 126.673 157.804 126.673C156.041 126.673 154.753 125.835 153.844 124.758C152.951 123.699 152.441 122.427 152.242 121.564L152.872 116.11L152.553 115.996C150.501 115.255 149.361 113.396 148.777 110.986C148.193 108.576 148.189 105.709 148.339 103.124C148.508 100.193 150.2 97.7149 152.561 96.4781ZM164.794 120.602L164.234 113.864C164.889 112.161 165.925 109.152 165.951 105.941C165.976 102.654 164.94 99.1232 161.348 96.5884C158.183 94.3547 154.802 94.3406 152.164 95.7223C149.538 97.0974 147.671 99.8429 147.485 103.075C147.334 105.679 147.33 108.65 147.945 111.186C148.533 113.61 149.709 115.722 151.945 116.674L151.375 121.608L151.39 121.677C151.602 122.651 152.168 124.096 153.19 125.307C154.22 126.527 155.73 127.527 157.804 127.527C159.9 127.527 161.504 126.348 162.637 124.946C163.72 123.606 164.412 122.019 164.739 120.903L164.824 120.894L164.794 120.602Z" fill="#A4A2A0"/>
<path d="M158.169 124.65C153.667 124.65 151.554 121.891 151.06 120.512C146.876 121.109 138.355 124.615 133.846 131.364C128.466 139.415 124.282 160.886 122.788 165.955C121.592 170.011 116.977 179.484 114.486 183.758H130.326H175.053C179.594 184.054 189.507 184.172 192.825 182.28C196.972 179.916 200.822 167.799 192.825 143.86C186.427 124.709 171.399 120.315 164.686 120.512C164.389 121.891 162.671 124.65 158.169 124.65Z" fill="white"/>
<path fill-rule="evenodd" clip-rule="evenodd" d="M151.346 120.04L151 120.09C148.847 120.396 145.62 121.443 142.366 123.258C139.11 125.075 135.793 127.681 133.49 131.127C130.755 135.22 128.349 142.668 126.447 149.666C125.492 153.176 124.66 156.592 123.973 159.444C123.893 159.779 123.815 160.105 123.738 160.422C123.161 162.822 122.704 164.728 122.377 165.835C121.79 167.827 120.351 171.182 118.736 174.592C117.124 177.995 115.353 181.42 114.116 183.543L113.743 184.185H175.039C177.323 184.333 180.946 184.436 184.419 184.265C186.159 184.18 187.869 184.026 189.359 183.771C190.839 183.519 192.141 183.162 193.037 182.651C194.18 181.999 195.249 180.71 196.09 178.819C196.933 176.922 197.562 174.388 197.805 171.193C198.292 164.803 197.241 155.731 193.231 143.725C186.765 124.37 171.548 119.884 164.673 120.085L164.338 120.095L164.267 120.423C164.011 121.618 162.456 124.223 158.169 124.223C153.868 124.223 151.903 121.597 151.463 120.369L151.346 120.04ZM165.015 120.933C171.718 120.886 186.189 125.347 192.419 143.995C196.406 155.928 197.428 164.883 196.952 171.128C196.714 174.251 196.103 176.685 195.308 178.473C194.51 180.267 193.543 181.379 192.613 181.91C191.85 182.344 190.669 182.682 189.215 182.93C187.771 183.176 186.097 183.328 184.377 183.413C180.936 183.582 177.339 183.479 175.08 183.332L175.067 183.331H115.224C116.444 181.172 118.044 178.051 119.509 174.957C121.124 171.548 122.59 168.139 123.198 166.076C123.531 164.946 123.995 163.017 124.569 160.626C124.646 160.306 124.725 159.979 124.805 159.644C125.492 156.793 126.322 153.387 127.272 149.89C129.18 142.872 131.556 135.56 134.202 131.601C136.408 128.299 139.606 125.776 142.784 124.003C145.797 122.322 148.763 121.331 150.793 120.986C151.524 122.566 153.787 125.076 158.169 125.076C162.57 125.076 164.503 122.542 165.015 120.933Z" fill="#A4A2A0"/>
<path d="M132.65 152.536L126.374 183.847H129.064L132.65 152.536Z" fill="#A4A2A0"/>
<path d="M179.74 183.775C186.881 175.092 194.431 171.993 197.313 171.529C197.313 174.312 195.918 179.6 193.408 182.105C191.399 184.109 183.459 184.054 179.74 183.775Z" fill="#A4A2A0"/>
<path d="M158.761 151.84C160.834 152.726 176.237 159.918 183.346 163.366C182.457 161.888 178.903 159.524 178.014 158.637C177.125 157.75 173.867 147.407 173.867 148.884C173.867 150.362 175.644 157.159 174.756 157.159C173.867 157.159 161.427 151.84 158.761 151.84Z" fill="#A4A2A0"/>
<path d="M152.541 160.41C165.1 177.197 175.348 183.167 178.903 184.054H172.682C162.019 175.778 154.812 164.843 152.541 160.41Z" fill="#A4A2A0"/>
<path d="M149.025 138.601L151.3 160.733C151.329 161.015 151.078 161.247 150.798 161.197L140.108 159.282C139.927 159.25 139.787 159.106 139.76 158.925L136.626 137.884C136.586 137.614 136.806 137.376 137.079 137.396L148.629 138.219C148.837 138.234 149.003 138.395 149.025 138.601Z" fill="white"/>
<path fill-rule="evenodd" clip-rule="evenodd" d="M137.11 136.97C136.564 136.931 136.122 137.407 136.203 137.947L139.337 158.988C139.391 159.35 139.671 159.637 140.032 159.702L150.723 161.617C151.283 161.717 151.783 161.254 151.725 160.689L149.45 138.558C149.408 138.145 149.074 137.823 148.66 137.793L137.11 136.97ZM137.049 137.822L148.599 138.645L150.874 160.777L140.184 158.862L137.049 137.822Z" fill="#A4A2A0"/>
<path d="M163.582 112.107L164.179 117.988C164.379 117.552 164.836 116.289 165.075 114.721C165.374 112.76 170.152 105.246 168.659 99.6921C167.465 95.2489 164.179 95.4449 162.686 96.0983C161.79 94.4648 156.415 88.9107 148.65 89.5642C140.885 90.2176 139.989 101.326 146.261 102.959C151.278 104.266 156.912 103.504 159.102 102.959C159.302 103.395 159.879 104.854 160.596 107.206C161.492 110.147 161.492 110.8 161.79 108.84C162.089 106.88 163.284 103.286 164.777 106.88C165.971 109.755 164.478 111.562 163.582 112.107Z" fill="#A4A2A0"/>
<path d="M159.244 116.279C157.189 117.487 154.011 116.782 152.679 116.279L152.394 118.392C155.362 119.116 158.197 117.285 159.244 116.279Z" fill="#A4A2A0"/>
<path d="M154.319 148.884C155.03 150.776 156.392 152.037 156.985 152.431L153.134 158.342C151.949 157.159 150.468 157.159 147.21 155.682C143.952 154.204 143.063 148.884 143.952 145.929C144.663 143.564 148.79 145.338 150.468 146.52L150.172 143.269C152.245 144.156 153.43 146.52 154.319 148.884Z" fill="white"/>
<path fill-rule="evenodd" clip-rule="evenodd" d="M149.681 142.595L149.964 145.697C149.105 145.204 147.992 144.712 146.94 144.478C146.244 144.323 145.528 144.271 144.915 144.447C144.274 144.632 143.765 145.065 143.542 145.806C143.071 147.372 143.077 149.524 143.613 151.472C144.148 153.415 145.239 155.257 147.033 156.07C148.358 156.671 149.4 157.034 150.231 157.323C150.435 157.393 150.625 157.46 150.805 157.524C151.72 157.853 152.31 158.123 152.831 158.643L153.205 159.016L157.574 152.31L157.222 152.076C156.691 151.722 155.393 150.528 154.719 148.734C154.271 147.542 153.739 146.324 153.046 145.286C152.351 144.247 151.479 143.364 150.34 142.877L149.681 142.595ZM152.334 145.759C152.973 146.716 153.478 147.862 153.918 149.034C154.554 150.727 155.683 151.94 156.408 152.533L153.045 157.694C152.481 157.255 151.851 156.993 151.094 156.721C150.906 156.653 150.709 156.585 150.502 156.513C149.672 156.224 148.673 155.877 147.387 155.293C145.923 154.629 144.941 153.072 144.438 151.246C143.938 149.427 143.944 147.441 144.361 146.052C144.494 145.61 144.768 145.378 145.152 145.268C145.566 145.148 146.12 145.17 146.754 145.311C148.018 145.592 149.418 146.303 150.221 146.869L150.978 147.401L150.67 144.022C151.308 144.444 151.854 145.041 152.334 145.759Z" fill="#A4A2A0"/>
<path d="M14.1968 158.482C24.1775 158.482 33.2433 175.865 36.4038 184.432H30.4154C20.9338 175.865 4.21618 158.482 14.1968 158.482Z" fill="#A4A2A0"/>
<path d="M14.4463 128.041C31.8127 128.041 41.6436 165.136 44.3883 183.683H33.9086C20.1852 165.136 -2.92002 128.041 14.4463 128.041Z" fill="white"/>
<path fill-rule="evenodd" clip-rule="evenodd" d="M43.6995 183.09H34.2077C27.3753 173.831 18.308 160.098 13.0576 148.659C10.4007 142.871 8.7645 137.76 8.82375 134.136C8.85318 132.336 9.29971 130.984 10.1624 130.08C11.0186 129.184 12.378 128.634 14.4464 128.634C18.558 128.634 22.2812 130.826 25.6256 134.524C28.9704 138.223 31.8823 143.373 34.3557 149.14C39.181 160.391 42.2814 173.858 43.6995 183.09ZM26.5049 133.729C23.0359 129.893 19.0179 127.448 14.4464 127.448C12.1731 127.448 10.4557 128.057 9.30506 129.262C8.16086 130.46 7.67054 132.15 7.63837 134.117C7.57442 138.028 9.31604 143.35 11.9801 149.154C17.326 160.8 26.5608 174.749 33.4321 184.036L33.6098 184.276H45.0753L44.9747 183.596C43.5977 174.291 40.4434 160.327 35.4452 148.673C32.947 142.848 29.9735 137.565 26.5049 133.729Z" fill="#A4A2A0"/>
<path fill-rule="evenodd" clip-rule="evenodd" d="M19.1801 142.501L15.1585 134.034L16.2294 133.525L24.9782 151.944L26.5938 144.876L27.7495 145.14L25.7993 153.673L35.4157 173.918L36.316 167.63L37.4896 167.798L36.336 175.855L39.9334 183.429L38.8625 183.937L30.0758 165.439L23.7178 163.028L24.1381 161.92L29.3413 163.893L19.9892 144.204L13.9403 141.301L14.4533 140.232L19.1801 142.501Z" fill="#A4A2A0"/>
</svg>
