<svg width="280" height="197" viewBox="0 0 280 197" fill="none" xmlns="http://www.w3.org/2000/svg">
<g clip-path="url(#clip0_532_4350)">
<path d="M194.627 31.5583C184.082 33.1091 161.543 16.4379 151.592 7.9085C147.327 -5.27337 189.975 11.7855 201.218 17.9888C212.461 24.192 207.809 29.6198 194.627 31.5583Z" fill="#F5F5F5"/>
<path d="M2.17297 120.368C-2.34892 132.619 0.791393 147.535 6.06824 160.512C12.8507 177.192 30.5463 185.476 48.5526 185.476H167.29C195.245 185.476 221.193 152.537 235.777 128.687C252.809 100.835 241.575 72.2597 229.979 55.2591C218.384 38.2586 190.843 53.0888 165.115 38.2585C139.387 23.4283 144.098 15.8323 122.356 6.42777C93.9473 -5.86018 32.2496 -6.43655 32.2496 59.238C32.2496 86.7878 12.3193 92.8774 2.17297 120.368Z" fill="#F5F5F5"/>
<path d="M46.3003 81.2639C46.3003 78.6975 49.367 76.6169 53.1499 76.6169H215.009C218.792 76.6169 221.859 78.6975 221.859 81.2639V191.074C221.859 193.641 218.792 195.721 215.009 195.721H53.1499C49.367 195.721 46.3003 193.641 46.3003 191.074V81.2639Z" fill="white"/>
<path fill-rule="evenodd" clip-rule="evenodd" d="M45.2742 81.2639C45.2742 78.3128 48.8005 75.9204 53.1504 75.9204H215.01C219.36 75.9204 222.886 78.3128 222.886 81.2639V191.074C222.886 194.026 219.36 196.418 215.01 196.418H53.1504C48.8005 196.418 45.2742 194.026 45.2742 191.074V81.2639ZM53.1504 77.3134C49.9345 77.3134 47.3275 79.0821 47.3275 81.2639V191.074C47.3275 193.256 49.9346 195.025 53.1504 195.025H215.01C218.226 195.025 220.833 193.256 220.833 191.074V81.2639C220.833 79.0821 218.226 77.3134 215.01 77.3134H53.1504Z" fill="#161616"/>
<path d="M45.9694 81.2639C45.9694 78.6975 49.0361 76.6169 52.819 76.6169H214.678C218.461 76.6169 221.528 78.6975 221.528 81.2639V92.6368H45.9694V81.2639Z" fill="#161616"/>
<path d="M60.6717 84.7409C60.6717 86.6638 59.1129 88.2227 57.1899 88.2227C55.267 88.2227 53.7082 86.6638 53.7082 84.7409C53.7082 82.818 55.267 81.2592 57.1899 81.2592C59.1129 81.2592 60.6717 82.818 60.6717 84.7409Z" fill="white"/>
<path d="M72.2784 84.7409C72.2784 86.6638 70.7196 88.2227 68.7966 88.2227C66.8737 88.2227 65.3149 86.6638 65.3149 84.7409C65.3149 82.818 66.8737 81.2592 68.7966 81.2592C70.7196 81.2592 72.2784 82.818 72.2784 84.7409Z" fill="white"/>
<path d="M83.8833 84.7409C83.8833 86.6638 82.3244 88.2227 80.4015 88.2227C78.4786 88.2227 76.9198 86.6638 76.9198 84.7409C76.9198 82.818 78.4786 81.2592 80.4015 81.2592C82.3244 81.2592 83.8833 82.818 83.8833 84.7409Z" fill="white"/>
<path d="M278.473 76.1312C278.473 106.715 253.68 131.508 223.097 131.508C192.513 131.508 167.72 106.715 167.72 76.1312C167.72 45.5475 192.513 20.7545 223.097 20.7545C253.68 20.7545 278.473 45.5475 278.473 76.1312Z" fill="white"/>
<path fill-rule="evenodd" clip-rule="evenodd" d="M223.097 22.0066C193.204 22.0066 168.972 46.239 168.972 76.1312C168.972 106.023 193.204 130.256 223.097 130.256C252.989 130.256 277.221 106.023 277.221 76.1312C277.221 46.239 252.989 22.0066 223.097 22.0066ZM166.468 76.1312C166.468 44.856 191.821 19.5024 223.097 19.5024C254.372 19.5024 279.725 44.856 279.725 76.1312C279.725 107.406 254.372 132.76 223.097 132.76C191.821 132.76 166.468 107.406 166.468 76.1312Z" fill="#161616"/>
<path d="M215.273 93.5436C215.273 88.5815 215.87 84.6296 217.064 81.6878C218.258 78.746 220.436 75.8574 223.597 73.0219C226.793 70.151 228.918 67.8295 229.971 66.0573C231.025 64.2497 231.552 62.3535 231.552 60.3686C231.552 54.3787 228.812 51.3837 223.333 51.3837C220.734 51.3837 218.645 52.1989 217.064 53.8293C215.519 55.4243 214.711 57.6395 214.641 60.475H199.363C199.434 53.7053 201.594 48.4065 205.843 44.5786C210.128 40.7507 215.958 38.8368 223.333 38.8368C230.779 38.8368 236.556 40.6621 240.665 44.3128C244.775 47.928 246.829 53.0496 246.829 59.6775C246.829 62.6902 246.162 65.5434 244.827 68.2371C243.493 70.8953 241.157 73.8548 237.821 77.1156L233.553 81.2093C230.884 83.7967 229.357 86.8271 228.97 90.3005L228.759 93.5436H215.273ZM213.745 109.865C213.745 107.491 214.536 105.541 216.116 104.017C217.732 102.458 219.786 101.678 222.28 101.678C224.773 101.678 226.81 102.458 228.391 104.017C230.006 105.541 230.814 107.491 230.814 109.865C230.814 112.205 230.024 114.136 228.443 115.66C226.898 117.184 224.844 117.946 222.28 117.946C219.716 117.946 217.644 117.184 216.063 115.66C214.518 114.136 213.745 112.205 213.745 109.865Z" fill="#A4A2A0"/>
</g>
<defs>
<clipPath id="clip0_532_4350">
<rect width="280" height="196.418" fill="white"/>
</clipPath>
</defs>
</svg>
