<svg width="128" height="128" viewBox="0 0 128 128" fill="none" xmlns="http://www.w3.org/2000/svg">
<path d="M103.896 42.3896C103.896 63.9646 86.406 81.4546 64.831 81.4546C43.2561 81.4546 25.7661 63.9646 25.7661 42.3896C25.7661 20.8147 43.2561 3.32471 64.831 3.32471C86.406 3.32471 103.896 20.8147 103.896 42.3896Z" fill="#DFDFDF"/>
<path d="M17.4546 88.935C17.4546 88.017 18.1988 87.2727 19.1169 87.2727H63.3813C64.2994 87.2727 65.0437 88.017 65.0437 88.935V90.7092C65.0437 91.6273 64.2994 92.3715 63.3813 92.3715H19.1169C18.1988 92.3715 17.4546 91.6273 17.4546 90.7092V88.935Z" fill="#A4A2A0"/>
<path d="M17.4546 101.403C17.4546 100.484 18.1988 99.7402 19.1169 99.7402H108.052C108.97 99.7402 109.714 100.484 109.714 101.403V118.026C109.714 118.944 108.97 119.688 108.052 119.688H19.1169C18.1988 119.688 17.4546 118.944 17.4546 118.026V101.403Z" fill="#F5F5F5"/>
<path d="M65.2061 42.8607C54.2108 42.8607 45.1514 51.2726 43.9344 62.1013C43.7807 63.4699 44.9118 64.5909 46.289 64.5909H84.1231C85.5003 64.5909 86.6315 63.4699 86.4777 62.1013C85.2607 51.2726 76.2013 42.8607 65.2061 42.8607Z" fill="white"/>
<path d="M75.751 30.0782C75.751 35.7259 71.1727 40.3042 65.525 40.3042C59.8774 40.3042 55.2991 35.7259 55.2991 30.0782C55.2991 24.4306 59.8774 19.8523 65.525 19.8523C71.1727 19.8523 75.751 24.4306 75.751 30.0782Z" fill="white"/>
</svg>
