<svg width="300" height="300" viewBox="0 0 300 300" fill="none" xmlns="http://www.w3.org/2000/svg">
<path d="M86.6661 255.639H138.08H210.916C222.229 255.639 233.159 251.549 241.69 244.123L243.296 242.725C264.068 224.643 263.869 192.323 242.876 174.497L241.452 173.289C233.143 166.233 228.024 156.132 227.249 145.262L223.171 88.0239C222.225 74.7558 205.954 68.9365 196.801 78.5932C190.951 84.765 181.187 84.9835 175.067 79.0795L151.493 56.3391C130.487 36.0753 95.5866 43.9402 85.3135 71.2531C83.0283 77.3287 79.3178 82.7675 74.4936 87.1129L29.0608 128.036C7.37065 147.573 3.67292 180.213 20.4434 204.102L39.3667 231.059C50.1831 246.466 67.8338 255.639 86.6661 255.639Z" fill="#F5F5F5"/>
<path d="M16.5008 223.163C16.3077 237.809 26.2965 250.175 31.3697 254.506H39.1444C33.3647 234.965 23.8093 225.248 18.4547 222.014C17.5633 221.476 16.5145 222.122 16.5008 223.163Z" fill="#A4A2A0"/>
<path d="M15.6789 175.11C7.71422 205.058 27.7902 240.525 36.423 253.728H53.9159C46.4021 197.224 33.8051 183.492 17.8794 174.213C17.0243 173.714 15.9333 174.154 15.6789 175.11Z" fill="white"/>
<path fill-rule="evenodd" clip-rule="evenodd" d="M17.4881 174.885C17.0679 174.64 16.5504 174.859 16.4304 175.31C12.5066 190.064 15.4796 206.24 20.5591 220.436C25.5445 234.37 32.5259 246.304 36.8445 252.951H53.0275C49.2883 225.249 44.3175 208.038 38.3629 196.621C32.3668 185.124 25.356 179.469 17.4881 174.885ZM14.9277 174.911C15.3165 173.449 16.9811 172.789 18.2709 173.541C26.3287 178.236 33.5793 184.087 39.7416 195.902C45.8826 207.676 50.9254 225.34 54.6868 253.626L54.8038 254.506H36.0026L35.7725 254.154C31.437 247.523 24.2254 235.299 19.095 220.96C13.9695 206.635 10.8868 190.104 14.9277 174.911Z" fill="#A4A2A0"/>
<path d="M43.8837 193.534C37.004 218.63 44.8794 244.71 50.0283 254.506H62.8563C65.7417 223.92 54.0139 201.679 46.3032 192.935C45.5424 192.073 44.1878 192.425 43.8837 193.534Z" fill="#A4A2A0"/>
<path fill-rule="evenodd" clip-rule="evenodd" d="M26.5677 196.42L22.3829 184.662L20.918 185.184L30.5034 212.114L24.2064 210.223L23.7592 211.713L31.1504 213.932L39.8681 238.424L32.0218 235.507L31.4799 236.964L40.5486 240.336L45.408 253.989L46.8729 253.468L37.0038 225.74L40.6531 215.505L39.1885 214.983L36.1791 223.423L27.4493 198.896L30.1698 189.811L28.6803 189.365L26.5677 196.42Z" fill="#A4A2A0"/>
<path fill-rule="evenodd" clip-rule="evenodd" d="M50.4448 213.574L48.4615 202.665L46.9317 202.944L50.9574 225.085L45.7265 222.331L45.002 223.706L51.3108 227.029L54.7636 246.019L50.4386 242.621L49.478 243.844L55.1831 248.326L56.2612 254.256L57.7911 253.978L55.0256 238.768L59.5867 232.821L58.3529 231.875L54.65 236.702L50.7927 215.487L54.4869 211.496L53.3457 210.44L50.4448 213.574Z" fill="white"/>
<path d="M23.1777 64.1282C23.1777 61.2635 25.5 58.9412 28.3647 58.9412H163.376C166.241 58.9412 168.563 61.2635 168.563 64.1282V217.021C168.563 219.886 166.241 222.208 163.376 222.208H28.3647C25.5 222.208 23.1777 219.886 23.1777 217.021V64.1282Z" fill="white"/>
<path fill-rule="evenodd" clip-rule="evenodd" d="M22.4004 64.1282C22.4004 60.8341 25.0708 58.1637 28.3648 58.1637H163.376C166.67 58.1637 169.341 60.8341 169.341 64.1281V217.021C169.341 220.315 166.67 222.986 163.376 222.986H28.3648C25.0708 222.986 22.4004 220.315 22.4004 217.021V64.1282ZM28.3648 59.7186C25.9295 59.7186 23.9553 61.6928 23.9553 64.1282V217.021C23.9553 219.457 25.9295 221.431 28.3648 221.431H163.376C165.812 221.431 167.786 219.457 167.786 217.021V64.1281C167.786 61.6928 165.812 59.7186 163.376 59.7186H28.3648Z" fill="#A4A2A0"/>
<path d="M39.5059 94.7045C39.5059 93.4163 40.5501 92.3721 41.8382 92.3721H80.7114C81.9995 92.3721 83.0438 93.4163 83.0438 94.7045C83.0438 95.9926 81.9995 97.0368 80.7114 97.0368H41.8382C40.5501 97.0368 39.5059 95.9926 39.5059 94.7045Z" fill="#A4A2A0"/>
<path d="M23.1777 64.1282C23.1777 61.2635 25.5 58.9412 28.3647 58.9412H163.376C166.241 58.9412 168.563 61.2635 168.563 64.1282V76.8228H23.1777V64.1282Z" fill="#A4A2A0"/>
<path d="M39.5872 68.0092C39.5872 70.1556 37.8472 71.8956 35.7009 71.8956C33.5545 71.8956 31.8145 70.1556 31.8145 68.0092C31.8145 65.8628 33.5545 64.1228 35.7009 64.1228C37.8472 64.1228 39.5872 65.8628 39.5872 68.0092Z" fill="white"/>
<path d="M52.5423 68.0092C52.5423 70.1556 50.8023 71.8956 48.6559 71.8956C46.5095 71.8956 44.7695 70.1556 44.7695 68.0092C44.7695 65.8628 46.5095 64.1228 48.6559 64.1228C50.8023 64.1228 52.5423 65.8628 52.5423 68.0092Z" fill="white"/>
<path d="M65.4974 68.0092C65.4974 70.1556 63.7574 71.8956 61.611 71.8956C59.4646 71.8956 57.7246 70.1556 57.7246 68.0092C57.7246 65.8628 59.4646 64.1228 61.611 64.1228C63.7574 64.1228 65.4974 65.8628 65.4974 68.0092Z" fill="white"/>
<path d="M41.0605 112.586C41.0605 111.298 42.1048 110.254 43.3929 110.254H83.821C85.1091 110.254 86.1534 111.298 86.1534 112.586V149.127C86.1534 150.415 85.1091 151.459 83.821 151.459H43.3929C42.1048 151.459 41.0605 150.415 41.0605 149.127V112.586Z" fill="#F5F5F5"/>
<path d="M41.0605 166.231C41.0605 164.943 42.1048 163.899 43.3929 163.899H83.821C85.1091 163.899 86.1534 164.943 86.1534 166.231V202.772C86.1534 204.06 85.1091 205.104 83.821 205.104H43.3929C42.1048 205.104 41.0605 204.06 41.0605 202.772V166.231Z" fill="#F5F5F5"/>
<path d="M107.145 124.637C107.145 123.993 107.667 123.471 108.311 123.471H144.074C144.718 123.471 145.24 123.993 145.24 124.637C145.24 125.281 144.718 125.803 144.074 125.803H108.311C107.667 125.803 107.145 125.281 107.145 124.637Z" fill="#F5F5F5"/>
<path d="M107.145 177.504C107.145 176.86 107.667 176.338 108.311 176.338H144.074C144.718 176.338 145.24 176.86 145.24 177.504C145.24 178.148 144.718 178.67 144.074 178.67H108.311C107.667 178.67 107.145 178.148 107.145 177.504Z" fill="#F5F5F5"/>
<path d="M107.145 137.854C107.145 137.21 107.667 136.687 108.311 136.687H126.97C127.614 136.687 128.136 137.21 128.136 137.854C128.136 138.498 127.614 139.02 126.97 139.02H108.311C107.667 139.02 107.145 138.498 107.145 137.854Z" fill="#F5F5F5"/>
<path d="M107.145 190.721C107.145 190.077 107.667 189.555 108.311 189.555H126.97C127.614 189.555 128.136 190.077 128.136 190.721C128.136 191.365 127.614 191.887 126.97 191.887H108.311C107.667 191.887 107.145 191.365 107.145 190.721Z" fill="#F5F5F5"/>
<path d="M192.215 140.337L191.434 145.791C192.085 148.258 194.714 153.192 200.026 153.192C205.337 153.192 207.445 148.258 207.836 145.791L205.883 138C206.534 138 207.992 135.897 208.617 127.483C209.398 116.965 204.321 111.512 196.12 112.291C187.919 113.07 186.357 120.861 186.357 129.82C186.357 136.987 190.263 139.818 192.215 140.337Z" fill="white"/>
<path fill-rule="evenodd" clip-rule="evenodd" d="M205.23 116.078C203.203 113.697 200.116 112.574 196.181 112.948C194.237 113.133 192.722 113.728 191.532 114.625C190.34 115.524 189.438 116.753 188.766 118.257C187.41 121.287 187.017 125.355 187.017 129.82C187.017 136.716 190.747 139.264 192.383 139.699L192.951 139.85L192.106 145.749C192.431 146.896 193.197 148.574 194.47 149.973C195.78 151.412 197.598 152.532 200.023 152.532C202.442 152.532 204.118 151.42 205.257 150.003C206.369 148.621 206.955 146.959 207.158 145.817L205.033 137.34H205.796C205.825 137.315 205.88 137.261 205.958 137.153C206.142 136.9 206.379 136.444 206.629 135.689C207.129 134.184 207.644 131.615 207.955 127.434C208.338 122.275 207.274 118.48 205.23 116.078ZM206.239 115.223C208.588 117.983 209.673 122.173 209.275 127.531C208.96 131.764 208.434 134.454 207.886 136.104C207.613 136.927 207.324 137.522 207.031 137.926C206.924 138.074 206.797 138.223 206.65 138.348L208.508 145.761L208.487 145.894C208.278 147.218 207.615 149.182 206.29 150.829C204.949 152.497 202.916 153.852 200.023 153.852C197.138 153.852 194.986 152.504 193.49 150.86C192.005 149.228 191.14 147.278 190.792 145.959L190.758 145.83L191.48 140.787C189.161 139.859 185.693 136.677 185.693 129.82C185.693 125.326 186.081 121.019 187.557 117.719C188.3 116.058 189.327 114.633 190.734 113.572C192.143 112.509 193.899 111.839 196.055 111.634C200.321 111.229 203.873 112.443 206.239 115.223Z" fill="#A4A2A0"/>
<path d="M160.191 255.639L161.363 244.343L239.466 241.226V255.639H160.191Z" fill="#A4A2A0"/>
<path d="M165.268 117.355C163.706 121.406 161.493 125.535 160.582 127.093L168.783 130.599C170.475 128.911 174.484 125.224 176.984 123.977C180.108 122.419 179.717 120.082 178.936 119.692C178.312 119.381 176.333 119.562 175.422 119.692C177.244 116.965 180.108 112.525 180.108 111.902C180.108 111.122 178.155 109.564 174.25 109.564C170.345 109.564 167.221 112.291 165.268 117.355Z" fill="white"/>
<path fill-rule="evenodd" clip-rule="evenodd" d="M174.25 110.224C170.731 110.224 167.788 112.659 165.886 117.592C164.49 121.212 162.584 124.885 161.524 126.778L168.634 129.817C169.505 128.965 170.789 127.77 172.153 126.619C173.682 125.328 175.361 124.048 176.688 123.387C178.12 122.672 178.64 121.837 178.78 121.245C178.852 120.941 178.828 120.687 178.771 120.512C178.718 120.35 178.652 120.293 178.641 120.284C178.639 120.282 178.638 120.282 178.64 120.283C178.602 120.264 178.467 120.224 178.195 120.2C177.943 120.178 177.637 120.176 177.308 120.186C176.651 120.208 175.953 120.283 175.515 120.346L174.05 120.554L174.871 119.326C175.78 117.966 176.946 116.181 177.884 114.662C178.354 113.901 178.762 113.214 179.05 112.684C179.195 112.417 179.304 112.2 179.375 112.038C179.402 111.976 179.421 111.928 179.434 111.892C179.416 111.855 179.371 111.777 179.262 111.663C179.083 111.475 178.784 111.249 178.347 111.031C177.477 110.597 176.117 110.224 174.25 110.224ZM164.65 117.118C166.653 111.923 169.959 108.904 174.25 108.904C176.288 108.904 177.857 109.31 178.939 109.85C179.478 110.119 179.912 110.429 180.221 110.752C180.51 111.055 180.769 111.455 180.769 111.902C180.769 112.044 180.733 112.176 180.706 112.261C180.675 112.359 180.633 112.463 180.587 112.568C180.495 112.779 180.366 113.033 180.214 113.313C179.908 113.875 179.486 114.586 179.011 115.354C178.314 116.485 177.493 117.756 176.745 118.893C176.917 118.882 177.092 118.873 177.264 118.867C177.622 118.855 177.985 118.857 178.308 118.885C178.611 118.911 178.958 118.965 179.232 119.102C179.635 119.303 179.896 119.696 180.029 120.102C180.167 120.523 180.192 121.024 180.068 121.548C179.818 122.611 178.971 123.724 177.279 124.567C176.107 125.152 174.531 126.34 173.008 127.626C171.497 128.902 170.085 130.233 169.251 131.066L168.934 131.382L159.633 127.406L160.01 126.761C160.91 125.222 163.105 121.126 164.65 117.118Z" fill="#A4A2A0"/>
<path d="M200.025 149.686C205.336 149.686 207.966 146.31 208.616 144.622C229.314 144.767 244.544 162.151 246.496 178.122C248.058 190.899 244.804 212.012 242.982 220.971C243.372 227.333 243.606 240.837 241.42 243.953C238.686 247.849 213.302 249.017 199.634 249.017C185.966 249.017 161.754 248.238 158.239 243.953C155.428 240.525 159.411 203.572 161.754 185.523C161.364 185.913 158.474 187.003 150.039 188.25C139.495 189.808 129.732 185.523 131.294 169.552C132.856 153.582 155.506 127.093 158.63 126.314C161.754 125.535 171.517 129.431 170.736 132.936C169.955 136.442 162.145 151.634 162.926 151.634C163.551 151.634 168.914 149.297 171.517 148.128C179.64 144.389 187.398 144.233 190.262 144.622C191.304 146.31 194.714 149.686 200.025 149.686Z" fill="white"/>
<path fill-rule="evenodd" clip-rule="evenodd" d="M170.079 129.845C170.985 130.742 171.652 131.865 171.382 133.08C171.17 134.029 170.507 135.696 169.684 137.599C168.85 139.524 167.822 141.759 166.846 143.876L166.751 144.082C165.808 146.127 164.925 148.044 164.315 149.465C164.114 149.933 163.946 150.34 163.817 150.676C163.854 150.662 163.893 150.648 163.932 150.633C164.552 150.4 165.353 150.075 166.223 149.711C167.959 148.984 169.944 148.11 171.242 147.528C179.487 143.732 187.373 143.563 190.351 143.968L190.661 144.011L190.825 144.276C191.78 145.825 195.002 149.026 200.025 149.026C205.016 149.026 207.428 145.864 207.998 144.385L208.163 143.959L208.621 143.962C229.694 144.11 245.165 161.786 247.153 178.042C247.943 184.507 247.513 193.041 246.666 201.047C245.823 209.015 244.561 216.509 243.647 221.017C243.841 224.216 243.993 229.157 243.828 233.703C243.744 235.996 243.58 238.204 243.295 240.043C243.015 241.846 242.605 243.415 241.961 244.332C241.505 244.981 240.658 245.485 239.652 245.899C238.62 246.325 237.309 246.7 235.802 247.032C232.785 247.698 228.897 248.213 224.688 248.603C216.266 249.385 206.481 249.677 199.634 249.677C192.791 249.677 183.299 249.483 175.07 248.75C170.957 248.383 167.14 247.881 164.121 247.196C162.611 246.853 161.283 246.461 160.209 246.009C159.149 245.563 158.268 245.031 157.727 244.371C157.461 244.048 157.282 243.593 157.15 243.102C157.014 242.595 156.909 241.978 156.829 241.273C156.669 239.862 156.603 238.038 156.61 235.913C156.625 231.66 156.934 226.136 157.403 220.169C158.301 208.751 159.788 195.664 160.942 186.644C160.476 186.811 159.864 186.999 159.08 187.204C157.224 187.689 154.368 188.278 150.135 188.903C144.77 189.696 139.476 189.024 135.71 185.988C131.915 182.929 129.841 177.609 130.635 169.488C131.037 165.377 132.787 160.642 135.193 155.872C137.605 151.091 140.7 146.229 143.838 141.853C146.976 137.475 150.165 133.572 152.77 130.709C154.072 129.279 155.235 128.101 156.179 127.251C156.65 126.827 157.075 126.476 157.44 126.216C157.787 125.969 158.145 125.755 158.469 125.674C159.409 125.44 160.733 125.569 162.099 125.884C163.491 126.206 165.026 126.746 166.435 127.424C167.837 128.098 169.153 128.928 170.079 129.845ZM163.531 151.557C163.531 151.557 163.531 151.554 163.532 151.547C163.532 151.553 163.531 151.557 163.531 151.557ZM161.8 127.17C160.48 126.865 159.413 126.8 158.79 126.955C158.724 126.971 158.539 127.056 158.21 127.29C157.9 127.511 157.516 127.825 157.066 128.231C156.166 129.041 155.035 130.185 153.75 131.597C151.181 134.419 148.024 138.282 144.914 142.621C141.803 146.96 138.748 151.763 136.376 156.465C133.998 161.178 132.331 165.743 131.952 169.617C131.184 177.467 133.21 182.275 136.542 184.961C139.904 187.671 144.763 188.362 149.941 187.597C154.144 186.976 156.95 186.396 158.745 185.927C159.643 185.692 160.279 185.487 160.706 185.323C160.92 185.24 161.073 185.171 161.176 185.117C161.26 185.073 161.292 185.049 161.294 185.048L162.659 183.686L162.41 185.608C161.239 194.626 159.659 208.364 158.723 220.273C158.255 226.229 157.949 231.714 157.934 235.918C157.927 238.022 157.993 239.788 158.144 241.125C158.22 241.794 158.315 242.34 158.428 242.759C158.545 243.194 158.665 243.431 158.751 243.535C159.088 243.947 159.732 244.376 160.723 244.793C161.699 245.204 162.946 245.575 164.414 245.909C167.35 246.575 171.099 247.07 175.187 247.435C183.36 248.162 192.808 248.357 199.634 248.357C206.454 248.357 216.195 248.065 224.565 247.289C228.753 246.9 232.578 246.392 235.516 245.743C236.986 245.419 238.214 245.063 239.147 244.679C240.105 244.284 240.649 243.899 240.877 243.575C241.327 242.934 241.707 241.646 241.986 239.841C242.26 238.074 242.423 235.923 242.505 233.655C242.67 229.122 242.515 224.177 242.32 221.011L242.315 220.925L242.332 220.84C243.24 216.379 244.506 208.882 245.349 200.909C246.194 192.925 246.61 184.514 245.839 178.202C243.935 162.629 229.147 145.668 209.045 145.288C208.083 147.249 205.255 150.346 200.025 150.346C194.691 150.346 191.172 147.126 189.876 145.24C186.905 144.916 179.522 145.17 171.794 148.728L171.788 148.73L171.788 148.73C170.483 149.316 168.486 150.195 166.735 150.928C165.86 151.294 165.041 151.627 164.399 151.868C164.078 151.989 163.794 152.09 163.565 152.161C163.451 152.197 163.343 152.228 163.248 152.25C163.164 152.27 163.045 152.294 162.925 152.294C162.767 152.294 162.593 152.241 162.45 152.111C162.32 151.994 162.264 151.857 162.24 151.768C162.194 151.607 162.21 151.455 162.219 151.378C162.243 151.199 162.304 150.984 162.376 150.767C162.526 150.316 162.78 149.687 163.098 148.946C163.715 147.508 164.605 145.576 165.543 143.542L165.643 143.324C166.62 141.205 167.642 138.984 168.468 137.075C169.304 135.144 169.911 133.597 170.09 132.793C170.21 132.255 169.949 131.577 169.147 130.782C168.364 130.007 167.191 129.253 165.86 128.613C164.535 127.976 163.092 127.469 161.8 127.17Z" fill="#A4A2A0"/>
<path d="M203.148 131.378L205.881 138.39C206.663 138.13 209.162 135.429 212.911 126.704C216.66 117.978 212.911 113.2 210.568 111.901C210.177 108.006 200.805 101.384 189.87 102.942C178.936 104.5 176.202 115.018 182.06 118.523C186.746 121.328 194.947 120.211 198.462 119.303C199.243 120.861 198.852 128.262 200.805 125.146C202.757 122.029 205.491 123.587 205.881 126.704C206.194 129.197 204.189 130.859 203.148 131.378Z" fill="#A4A2A0"/>
<path d="M222.673 229.151C234.545 237.253 240.246 226.035 242.98 220.581V229.151C238.294 236.007 229.833 235.124 226.188 233.825C212.754 229.774 202.366 201.494 198.852 187.86C201.846 198.248 210.801 221.049 222.673 229.151Z" fill="#A4A2A0"/>
<path d="M230.875 195.651C225.714 190.503 214.831 180.085 211.294 178.276C211.178 178.223 211.066 178.171 210.959 178.122C211.062 178.163 211.174 178.215 211.294 178.276C214.551 179.783 221.042 183.027 223.456 185.134L224.627 178.901L226.58 187.86L230.875 195.651Z" fill="#A4A2A0"/>
<path d="M146.523 158.645L164.487 151.634C161.988 152.569 163.446 149.427 164.487 147.739L146.523 158.645Z" fill="#A4A2A0"/>
<path d="M148.085 188.25C144.336 176.408 135.328 170.591 131.293 169.163C130.903 171.89 130.981 178.667 134.417 183.965C137.854 189.263 144.961 189.029 148.085 188.25Z" fill="#A4A2A0"/>
<path d="M218.379 225.645C226.814 219.724 238.295 220.062 242.981 220.971C241.81 224.217 238.061 231.021 232.438 232.267C226.814 233.514 220.722 228.372 218.379 225.645Z" fill="#A4A2A0"/>
<path d="M240.249 113.896C240.949 113.053 242.2 112.936 243.045 113.634L246.836 116.766C247.681 117.464 247.798 118.712 247.099 119.555L190.141 188.148C189.441 188.99 188.19 189.107 187.345 188.41L183.554 185.277C182.709 184.58 182.592 183.331 183.291 182.489L240.249 113.896Z" fill="#A4A2A0"/>
<path d="M290.625 102.553C290.625 122.345 274.539 138.39 254.697 138.39C234.855 138.39 218.77 122.345 218.77 102.553C218.77 82.7605 234.855 66.7157 254.697 66.7157C274.539 66.7157 290.625 82.7605 290.625 102.553Z" fill="#A4A2A0"/>
<path d="M282.815 102.553C282.815 118.042 270.226 130.599 254.697 130.599C239.169 130.599 226.58 118.042 226.58 102.553C226.58 87.0631 239.169 74.5063 254.697 74.5063C270.226 74.5063 282.815 87.0631 282.815 102.553Z" fill="white"/>
<path fill-rule="evenodd" clip-rule="evenodd" d="M270.457 97.847C269.78 95.2906 268.669 93.0925 267.427 91.4719C266.509 90.2758 266.274 88.5544 267.194 87.3607C268.115 86.1671 269.847 85.9379 270.856 87.058C273.052 89.4952 274.784 92.8339 275.742 96.4539C276.99 101.163 277.02 106.676 274.778 111.82C270.819 120.901 262.344 124.105 255.703 123.848C254.194 123.79 253.23 122.337 253.526 120.861C253.822 119.384 255.271 118.446 256.78 118.414C261.405 118.315 267.043 115.889 269.764 109.645C271.424 105.837 271.454 101.612 270.457 97.847Z" fill="#F5F5F5"/>
<path d="M162.925 179.291L161.753 185.523C158.629 186.458 153.682 187.471 151.6 187.86C159.098 185.367 162.274 181.108 162.925 179.291Z" fill="#A4A2A0"/>
<path d="M200.806 184.744L207.835 178.901C207.835 177.733 205.883 176.564 207.445 172.669C208.694 169.552 207.705 167.994 207.054 167.605C205.101 169.552 203.93 171.812 202.368 169.942C200.415 167.605 199.634 162.541 197.682 162.541C195.729 162.541 192.605 167.994 192.214 169.552C191.824 171.11 193.776 176.953 195.729 178.512C197.291 179.758 199.764 183.186 200.806 184.744Z" fill="white"/>
<path fill-rule="evenodd" clip-rule="evenodd" d="M193.546 168.102C193.172 168.824 192.934 169.401 192.856 169.712C192.797 169.946 192.815 170.474 192.973 171.261C193.123 172.013 193.381 172.905 193.713 173.804C194.046 174.703 194.446 175.594 194.876 176.347C195.313 177.113 195.751 177.684 196.142 177.996C196.99 178.673 198.041 179.898 198.984 181.105C199.722 182.049 200.419 183.015 200.942 183.771L207.116 178.639C207.082 178.543 207.03 178.422 206.955 178.264C206.934 178.218 206.91 178.17 206.886 178.119C206.744 177.824 206.562 177.447 206.422 177.006C206.079 175.921 205.998 174.498 206.83 172.423C207.679 170.305 207.384 169.118 207.053 168.558C206.84 168.788 206.635 169.018 206.432 169.246C206.358 169.329 206.284 169.412 206.211 169.494C205.806 169.946 205.391 170.395 204.973 170.724C204.559 171.049 204.045 171.333 203.446 171.298C202.831 171.263 202.311 170.905 201.859 170.364C201.316 169.715 200.873 168.899 200.487 168.08C200.237 167.549 199.997 166.984 199.768 166.446C199.648 166.163 199.531 165.888 199.418 165.629C199.076 164.85 198.76 164.206 198.43 163.761C198.093 163.305 197.85 163.201 197.681 163.201C197.466 163.201 197.069 163.378 196.51 163.899C195.985 164.39 195.43 165.077 194.907 165.836C194.387 166.591 193.913 167.395 193.546 168.102ZM195.606 162.935C196.194 162.386 196.92 161.881 197.681 161.881C198.489 161.881 199.076 162.41 199.495 162.976C199.922 163.553 200.289 164.321 200.631 165.1C200.757 165.389 200.88 165.679 201.003 165.968C201.224 166.488 201.444 167.008 201.685 167.519C202.056 168.307 202.442 169 202.876 169.519C203.205 169.914 203.417 169.974 203.522 169.98C203.643 169.987 203.837 169.935 204.155 169.686C204.469 169.44 204.811 169.075 205.224 168.615C205.292 168.538 205.363 168.459 205.434 168.378C205.782 167.988 206.167 167.555 206.586 167.138L206.951 166.773L207.394 167.039C208.434 167.661 209.374 169.634 208.059 172.914C207.328 174.735 207.442 175.843 207.685 176.609C207.793 176.953 207.93 177.238 208.072 177.533C208.099 177.588 208.125 177.644 208.152 177.7C208.306 178.024 208.496 178.442 208.496 178.901V179.21L200.663 185.722L200.255 185.11C199.741 184.343 198.872 183.11 197.94 181.917C196.996 180.709 196.029 179.597 195.315 179.027C194.729 178.56 194.192 177.817 193.725 177C193.252 176.171 192.823 175.211 192.471 174.26C192.12 173.309 191.841 172.351 191.675 171.52C191.515 170.725 191.435 169.938 191.572 169.392C191.689 168.925 191.987 168.236 192.37 167.496C192.76 166.743 193.263 165.892 193.816 165.088C194.367 164.289 194.984 163.516 195.606 162.935Z" fill="#A4A2A0"/>
</svg>
