<svg width="154" height="154" viewBox="0 0 154 154" fill="none" xmlns="http://www.w3.org/2000/svg">
<g clip-path="url(#clip0_1807_12923)">
<path d="M122.593 21.8782C115.951 22.855 101.754 12.354 95.4859 6.98137C92.7996 -1.32177 119.663 9.42347 126.745 13.3308C133.827 17.2382 130.896 20.6571 122.593 21.8782Z" fill="#F5F5F5"/>
<path d="M1.36849 77.8184C-1.47981 85.5356 0.498242 94.9308 3.82208 103.105C8.0943 113.612 19.2406 118.83 30.5826 118.83H105.374C122.983 118.83 139.327 98.0814 148.514 83.0588C159.242 65.5151 152.166 47.5157 144.862 36.8072C137.558 26.0987 120.21 35.4402 104.004 26.0987C87.7983 16.7573 90.7656 11.9726 77.0704 6.0488C59.1763 -1.69127 20.3135 -2.05433 20.3135 39.3134C20.3135 56.6669 7.75956 60.5026 1.36849 77.8184Z" fill="#F5F5F5"/>
<path d="M68.3682 76.8367L74.1535 80.9924L54.2061 108.762L48.4207 104.606L68.3682 76.8367Z" fill="#DFDFDF"/>
<path d="M104.39 75.5248C96.3572 86.708 80.7794 89.2616 69.5963 81.2287C58.4132 73.1957 55.8595 57.618 63.8925 46.4349C71.9255 35.2517 87.5032 32.6981 98.6863 40.731C109.869 48.764 112.423 64.3417 104.39 75.5248Z" fill="white"/>
<path d="M47.115 96.6529C48.4921 94.7358 51.1625 94.298 53.0796 95.6751L61.1792 101.493C63.0963 102.87 63.534 105.541 62.1569 107.458L39.7161 138.699C38.339 140.616 35.6685 141.054 33.7514 139.677L25.6519 133.859C23.7348 132.481 23.297 129.811 24.6741 127.894L47.115 96.6529Z" fill="#A4A2A0"/>
<path fill-rule="evenodd" clip-rule="evenodd" d="M66.2737 85.8567C80.013 95.7258 99.1513 92.5884 109.02 78.8492C118.89 65.1099 115.752 45.9716 102.013 36.1025C88.2736 26.2334 69.1353 29.3708 59.2662 43.11C49.3971 56.8493 52.5345 75.9876 66.2737 85.8567ZM70.4294 80.0713C80.9735 87.6453 95.6611 85.2375 103.235 74.6935C110.809 64.1494 108.401 49.4618 97.8571 41.8879C87.3131 34.3139 72.6255 36.7217 65.0515 47.2657C57.4776 57.8098 59.8854 72.4974 70.4294 80.0713Z" fill="#A4A2A0"/>
</g>
<defs>
<clipPath id="clip0_1807_12923">
<rect width="154" height="154" fill="white"/>
</clipPath>
</defs>
</svg>
