<svg width="154" height="154" viewBox="0 0 154 154" fill="none" xmlns="http://www.w3.org/2000/svg">
<path d="M122.593 21.8782C115.951 22.855 101.754 12.354 95.4859 6.98137C92.7996 -1.32177 119.663 9.42347 126.745 13.3308C133.827 17.2382 130.896 20.6571 122.593 21.8782Z" fill="#F5F5F5"/>
<path d="M1.36849 77.8184C-1.47981 85.5356 0.498242 94.9308 3.82208 103.105C8.0943 113.612 19.2406 118.83 30.5826 118.83H105.374C122.983 118.83 139.327 98.0814 148.514 83.0588C159.242 65.5151 152.166 47.5157 144.862 36.8072C137.558 26.0987 120.21 35.4402 104.004 26.0987C87.7983 16.7573 90.7656 11.9726 77.0704 6.0488C59.1763 -1.69127 20.3135 -2.05433 20.3135 39.3134C20.3135 56.6669 7.75956 60.5026 1.36849 77.8184Z" fill="#F5F5F5"/>
<path d="M29.1611 86C29.1611 114.63 52.3701 137.839 80.9997 137.839C90.8874 137.839 100.129 135.07 107.99 130.267L123.419 135.739C125.998 136.653 128.576 134.376 127.986 131.704L124.22 114.633C129.666 106.429 132.838 96.5849 132.838 86C132.838 57.3703 109.629 34.1614 80.9997 34.1614C52.3701 34.1614 29.1611 57.3703 29.1611 86Z" fill="white"/>
<path fill-rule="evenodd" clip-rule="evenodd" d="M81 35.3228C53.0118 35.3228 30.3228 58.0118 30.3228 86C30.3228 113.988 53.0118 136.677 81 136.677C90.668 136.677 99.7003 133.971 107.385 129.275L107.857 128.987L123.808 134.644C125.527 135.254 127.246 133.736 126.853 131.955L122.98 114.401L123.253 113.99C128.576 105.971 131.677 96.3494 131.677 86C131.677 58.0118 108.988 35.3228 81 35.3228ZM28 86C28 56.7289 51.7289 33 81 33C110.271 33 134 56.7289 134 86C134 96.6429 130.862 106.556 125.46 114.861L129.121 131.454C129.907 135.016 126.469 138.053 123.031 136.833L108.12 131.545C100.185 136.28 90.9086 139 81 139C51.7289 139 28 115.271 28 86Z" fill="#A4A2A0"/>
<path d="M81.4478 85.3723C68.8652 85.3723 58.4884 94.9572 57.0189 107.325C56.8217 108.985 58.1957 110.347 59.8673 110.347H103.028C104.7 110.347 106.074 108.985 105.877 107.325C104.407 94.9572 94.0303 85.3723 81.4478 85.3723Z" fill="#A4A2A0"/>
<path d="M93.0463 70.7526C93.0463 77.2434 87.7845 82.5053 81.2937 82.5053C74.8029 82.5053 69.541 77.2434 69.541 70.7526C69.541 64.2618 74.8029 59 81.2937 59C87.7845 59 93.0463 64.2618 93.0463 70.7526Z" fill="#A4A2A0"/>
</svg>
