<svg width="122" height="56" viewBox="0 0 122 56" fill="none" xmlns="http://www.w3.org/2000/svg">
<circle cx="60.7998" cy="28" r="28" fill="#FFF7F2"/>
<path d="M53.0081 34.3334C49.7865 34.3334 47.1748 31.7217 47.1748 28.5C47.1748 25.7189 49.121 23.3924 51.7258 22.8081C51.6106 22.2933 51.5498 21.7579 51.5498 21.2084C51.5498 17.1813 54.8144 13.9167 58.8415 13.9167C62.3696 13.9167 65.3125 16.4225 65.9876 19.7514C66.036 19.7505 66.0845 19.75 66.1331 19.75C70.1602 19.75 73.4248 23.0146 73.4248 27.0417C73.4248 30.5693 70.9197 33.5119 67.5915 34.1875M64.6748 29.9584L60.2998 25.5834M60.2998 25.5834L55.9248 29.9584M60.2998 25.5834L60.2998 43.0834" stroke="#EF503A" stroke-width="2.91667" stroke-linecap="round" stroke-linejoin="round"/>
</svg>
