<svg width="21" height="15" viewBox="0 0 21 15" fill="none" xmlns="http://www.w3.org/2000/svg">
<g clip-path="url(#clip0_504_21)">
<mask id="mask0_504_21" style="mask-type:alpha" maskUnits="userSpaceOnUse" x="0" y="0" width="21" height="15">
<path d="M19 0H2C0.89543 0 0 0.89543 0 2V13C0 14.1046 0.89543 15 2 15H19C20.1046 15 21 14.1046 21 13V2C21 0.89543 20.1046 0 19 0Z" fill="white"/>
</mask>
<g mask="url(#mask0_504_21)">
<path d="M19 0H2C0.89543 0 0 0.89543 0 2V13C0 14.1046 0.89543 15 2 15H19C20.1046 15 21 14.1046 21 13V2C21 0.89543 20.1046 0 19 0Z" fill="#F5F5F5"/>
<path d="M19 0.5H2C1.17157 0.5 0.5 1.17157 0.5 2V13C0.5 13.8284 1.17157 14.5 2 14.5H19C19.8284 14.5 20.5 13.8284 20.5 13V2C20.5 1.17157 19.8284 0.5 19 0.5Z" stroke="black" stroke-opacity="0.1"/>
</g>
<path d="M8.7 7.5C8.7 7.99706 8.29706 8.4 7.8 8.4C7.30295 8.4 6.9 7.99706 6.9 7.5C6.9 7.00294 7.30295 6.6 7.8 6.6C8.29706 6.6 8.7 7.00294 8.7 7.5Z" fill="#DFDFDF"/>
<path d="M11.4 7.5C11.4 7.99706 10.9971 8.4 10.5 8.4C10.0029 8.4 9.6 7.99706 9.6 7.5C9.6 7.00294 10.0029 6.6 10.5 6.6C10.9971 6.6 11.4 7.00294 11.4 7.5Z" fill="#DFDFDF"/>
<path d="M13.2 8.4C13.6971 8.4 14.1 7.99706 14.1 7.5C14.1 7.00294 13.6971 6.6 13.2 6.6C12.7029 6.6 12.3 7.00294 12.3 7.5C12.3 7.99706 12.7029 8.4 13.2 8.4Z" fill="#DFDFDF"/>
</g>
<defs>
<clipPath id="clip0_504_21">
<rect width="21" height="15" fill="white"/>
</clipPath>
</defs>
</svg>
