<svg width="649" height="101" viewBox="0 0 649 101" fill="none" xmlns="http://www.w3.org/2000/svg">
<g clip-path="url(#clip0_192_2381)">
<rect width="649" height="101" rx="16" fill="#FCFCFC"/>
<g clip-path="url(#clip1_192_2381)">
<rect x="27" y="30" width="40" height="40" rx="8" fill="#D4F9DD"/>
<g clip-path="url(#clip2_192_2381)">
<path d="M51 40L56 45V59.008C55.9997 59.2712 55.895 59.5235 55.7088 59.7095C55.5226 59.8955 55.2702 60 55.007 60H38.993C38.7304 59.9982 38.479 59.8931 38.2932 59.7075C38.1074 59.5219 38.0021 59.2706 38 59.008V40.992C38 40.444 38.445 40 38.993 40H51ZM46 45V55H48V45H46ZM50 49V55H52V49H50ZM42 51V55H44V51H42Z" fill="#1CA843"/>
</g>
</g>
<path d="M87.4148 45.9998H84.1186V35.8179H87.5192C88.5168 35.8179 89.3736 36.0218 90.0895 36.4294C90.8054 36.8338 91.3539 37.4155 91.7351 38.1745C92.1196 38.9302 92.3118 39.8366 92.3118 40.8939C92.3118 41.9545 92.1179 42.866 91.7301 43.6283C91.3456 44.3906 90.7888 44.9773 90.0597 45.3883C89.3305 45.7959 88.4489 45.9998 87.4148 45.9998ZM85.6548 44.6574H87.3303C88.1058 44.6574 88.7505 44.5116 89.2642 44.2199C89.7779 43.9249 90.1624 43.499 90.4176 42.9422C90.6728 42.3821 90.8004 41.6993 90.8004 40.8939C90.8004 40.0952 90.6728 39.4174 90.4176 38.8606C90.1657 38.3037 89.7895 37.8811 89.2891 37.5928C88.7886 37.3044 88.1671 37.1603 87.4247 37.1603H85.6548V44.6574ZM97.3194 46.1539C96.6035 46.1539 95.9788 45.9898 95.4451 45.6617C94.9115 45.3336 94.4972 44.8745 94.2022 44.2846C93.9073 43.6946 93.7598 43.0052 93.7598 42.2164C93.7598 41.4242 93.9073 40.7315 94.2022 40.1382C94.4972 39.545 94.9115 39.0843 95.4451 38.7561C95.9788 38.428 96.6035 38.264 97.3194 38.264C98.0353 38.264 98.6601 38.428 99.1937 38.7561C99.7273 39.0843 100.142 39.545 100.437 40.1382C100.732 40.7315 100.879 41.4242 100.879 42.2164C100.879 43.0052 100.732 43.6946 100.437 44.2846C100.142 44.8745 99.7273 45.3336 99.1937 45.6617C98.6601 45.9898 98.0353 46.1539 97.3194 46.1539ZM97.3244 44.906C97.7884 44.906 98.1729 44.7834 98.4778 44.5381C98.7827 44.2928 99.0081 43.9664 99.1539 43.5587C99.3031 43.151 99.3777 42.7019 99.3777 42.2114C99.3777 41.7242 99.3031 41.2767 99.1539 40.8691C99.0081 40.4581 98.7827 40.1283 98.4778 39.8797C98.1729 39.6311 97.7884 39.5069 97.3244 39.5069C96.8571 39.5069 96.4693 39.6311 96.161 39.8797C95.8561 40.1283 95.6291 40.4581 95.4799 40.8691C95.3341 41.2767 95.2612 41.7242 95.2612 42.2114C95.2612 42.7019 95.3341 43.151 95.4799 43.5587C95.6291 43.9664 95.8561 44.2928 96.161 44.5381C96.4693 44.7834 96.8571 44.906 97.3244 44.906ZM103.961 45.9998L101.714 38.3634H103.251L104.747 43.9713H104.822L106.323 38.3634H107.859L109.351 43.9465H109.425L110.912 38.3634H112.448L110.206 45.9998H108.689L107.138 40.4863H107.024L105.473 45.9998H103.961ZM115.345 41.4657V45.9998H113.859V38.3634H115.286V39.6063H115.38C115.556 39.2019 115.831 38.8771 116.205 38.6319C116.583 38.3866 117.059 38.264 117.632 38.264C118.152 38.264 118.608 38.3733 118.999 38.5921C119.39 38.8075 119.694 39.129 119.909 39.5566C120.125 39.9841 120.232 40.5128 120.232 41.1425V45.9998H118.746V41.3215C118.746 40.768 118.602 40.3355 118.313 40.0239C118.025 39.709 117.629 39.5516 117.125 39.5516C116.78 39.5516 116.474 39.6262 116.205 39.7753C115.94 39.9245 115.73 40.1432 115.574 40.4316C115.421 40.7166 115.345 41.0613 115.345 41.4657ZM123.712 35.8179V45.9998H122.226V35.8179H123.712ZM128.929 46.1539C128.213 46.1539 127.588 45.9898 127.055 45.6617C126.521 45.3336 126.107 44.8745 125.812 44.2846C125.517 43.6946 125.369 43.0052 125.369 42.2164C125.369 41.4242 125.517 40.7315 125.812 40.1382C126.107 39.545 126.521 39.0843 127.055 38.7561C127.588 38.428 128.213 38.264 128.929 38.264C129.645 38.264 130.269 38.428 130.803 38.7561C131.337 39.0843 131.751 39.545 132.046 40.1382C132.341 40.7315 132.488 41.4242 132.488 42.2164C132.488 43.0052 132.341 43.6946 132.046 44.2846C131.751 44.8745 131.337 45.3336 130.803 45.6617C130.269 45.9898 129.645 46.1539 128.929 46.1539ZM128.934 44.906C129.398 44.906 129.782 44.7834 130.087 44.5381C130.392 44.2928 130.617 43.9664 130.763 43.5587C130.912 43.151 130.987 42.7019 130.987 42.2114C130.987 41.7242 130.912 41.2767 130.763 40.8691C130.617 40.4581 130.392 40.1283 130.087 39.8797C129.782 39.6311 129.398 39.5069 128.934 39.5069C128.466 39.5069 128.079 39.6311 127.77 39.8797C127.465 40.1283 127.238 40.4581 127.089 40.8691C126.943 41.2767 126.871 41.7242 126.871 42.2114C126.871 42.7019 126.943 43.151 127.089 43.5587C127.238 43.9664 127.465 44.2928 127.77 44.5381C128.079 44.7834 128.466 44.906 128.934 44.906ZM136.37 46.1688C135.886 46.1688 135.449 46.0793 135.058 45.9003C134.666 45.718 134.357 45.4545 134.128 45.1098C133.902 44.7651 133.79 44.3426 133.79 43.8421C133.79 43.4112 133.873 43.0566 134.038 42.7782C134.204 42.4998 134.428 42.2793 134.71 42.1169C134.991 41.9545 135.306 41.8319 135.654 41.749C136.002 41.6662 136.357 41.6032 136.718 41.5601C137.175 41.5071 137.547 41.464 137.832 41.4309C138.117 41.3944 138.324 41.3364 138.453 41.2569C138.582 41.1773 138.647 41.0481 138.647 40.8691V40.8343C138.647 40.4001 138.524 40.0637 138.279 39.825C138.037 39.5864 137.676 39.4671 137.195 39.4671C136.695 39.4671 136.3 39.5781 136.012 39.8002C135.727 40.0189 135.53 40.2625 135.42 40.531L134.023 40.2128C134.189 39.7488 134.431 39.3743 134.749 39.0892C135.071 38.8009 135.44 38.5921 135.858 38.4628C136.276 38.3302 136.715 38.264 137.175 38.264C137.48 38.264 137.804 38.3004 138.145 38.3733C138.49 38.4429 138.811 38.5722 139.109 38.7611C139.411 38.95 139.658 39.2202 139.85 39.5715C140.042 39.9195 140.138 40.3719 140.138 40.9287V45.9998H138.687V44.9557H138.627C138.531 45.148 138.387 45.3369 138.195 45.5225C138.002 45.7081 137.755 45.8622 137.454 45.9848C137.152 46.1075 136.791 46.1688 136.37 46.1688ZM136.693 44.9756C137.104 44.9756 137.455 44.8944 137.747 44.732C138.042 44.5696 138.266 44.3575 138.418 44.0956C138.574 43.8305 138.652 43.5471 138.652 43.2455V42.2611C138.599 42.3141 138.496 42.3639 138.344 42.4103C138.195 42.4534 138.024 42.4915 137.832 42.5246C137.639 42.5544 137.452 42.5826 137.27 42.6091C137.088 42.6323 136.935 42.6522 136.812 42.6688C136.524 42.7052 136.261 42.7666 136.022 42.8527C135.787 42.9389 135.598 43.0632 135.455 43.2256C135.316 43.3847 135.246 43.5968 135.246 43.862C135.246 44.2299 135.382 44.5083 135.654 44.6972C135.926 44.8828 136.272 44.9756 136.693 44.9756ZM144.977 46.1489C144.361 46.1489 143.81 45.9915 143.327 45.6766C142.846 45.3584 142.468 44.906 142.193 44.3194C141.921 43.7294 141.785 43.0218 141.785 42.1965C141.785 41.3712 141.923 40.6652 142.198 40.0786C142.476 39.4919 142.858 39.0428 143.341 38.7313C143.825 38.4197 144.374 38.264 144.987 38.264C145.461 38.264 145.842 38.3435 146.131 38.5026C146.422 38.6584 146.648 38.8407 146.807 39.0495C146.969 39.2583 147.095 39.4422 147.184 39.6013H147.274V35.8179H148.76V45.9998H147.309V44.8115H147.184C147.095 44.974 146.966 45.1596 146.797 45.3684C146.631 45.5772 146.402 45.7595 146.111 45.9152C145.819 46.071 145.441 46.1489 144.977 46.1489ZM145.305 44.8811C145.733 44.8811 146.094 44.7685 146.389 44.5431C146.687 44.3144 146.913 43.9979 147.065 43.5935C147.221 43.1891 147.299 42.7185 147.299 42.1816C147.299 41.6513 147.223 41.1873 147.07 40.7895C146.918 40.3918 146.694 40.0819 146.399 39.8598C146.104 39.6378 145.739 39.5267 145.305 39.5267C144.858 39.5267 144.485 39.6427 144.187 39.8748C143.888 40.1068 143.663 40.4233 143.51 40.8243C143.361 41.2254 143.287 41.6778 143.287 42.1816C143.287 42.692 143.363 43.151 143.515 43.5587C143.668 43.9664 143.893 44.2895 144.192 44.5282C144.493 44.7635 144.864 44.8811 145.305 44.8811ZM160.309 40.2277L158.962 40.4664C158.906 40.294 158.816 40.13 158.694 39.9742C158.574 39.8184 158.412 39.6908 158.206 39.5914C158.001 39.4919 157.744 39.4422 157.436 39.4422C157.015 39.4422 156.664 39.5367 156.382 39.7256C156.1 39.9112 155.959 40.1515 155.959 40.4465C155.959 40.7017 156.054 40.9072 156.243 41.063C156.432 41.2187 156.737 41.3463 157.157 41.4458L158.371 41.7242C159.073 41.8866 159.597 42.1368 159.942 42.4749C160.286 42.813 160.459 43.2521 160.459 43.7924C160.459 44.2498 160.326 44.6574 160.061 45.0154C159.799 45.37 159.433 45.6484 158.962 45.8506C158.495 46.0528 157.953 46.1539 157.336 46.1539C156.481 46.1539 155.784 45.9716 155.243 45.607C154.703 45.2391 154.372 44.7171 154.249 44.0409L155.686 43.8222C155.775 44.1967 155.959 44.4801 156.238 44.6723C156.516 44.8613 156.879 44.9557 157.327 44.9557C157.814 44.9557 158.203 44.8546 158.495 44.6525C158.787 44.447 158.932 44.1967 158.932 43.9017C158.932 43.6631 158.843 43.4626 158.664 43.3002C158.488 43.1378 158.218 43.0151 157.854 42.9323L156.561 42.6489C155.848 42.4865 155.321 42.228 154.98 41.8733C154.642 41.5187 154.473 41.0696 154.473 40.526C154.473 40.0753 154.599 39.6809 154.851 39.3428C155.103 39.0047 155.451 38.7412 155.895 38.5523C156.339 38.3601 156.848 38.264 157.421 38.264C158.246 38.264 158.896 38.4429 159.37 38.8009C159.844 39.1555 160.157 39.6311 160.309 40.2277ZM164.315 46.1688C163.831 46.1688 163.394 46.0793 163.003 45.9003C162.612 45.718 162.302 45.4545 162.073 45.1098C161.848 44.7651 161.735 44.3426 161.735 43.8421C161.735 43.4112 161.818 43.0566 161.984 42.7782C162.149 42.4998 162.373 42.2793 162.655 42.1169C162.937 41.9545 163.251 41.8319 163.599 41.749C163.947 41.6662 164.302 41.6032 164.663 41.5601C165.121 41.5071 165.492 41.464 165.777 41.4309C166.062 41.3944 166.269 41.3364 166.398 41.2569C166.528 41.1773 166.592 41.0481 166.592 40.8691V40.8343C166.592 40.4001 166.47 40.0637 166.224 39.825C165.982 39.5864 165.621 39.4671 165.141 39.4671C164.64 39.4671 164.246 39.5781 163.957 39.8002C163.672 40.0189 163.475 40.2625 163.366 40.531L161.969 40.2128C162.134 39.7488 162.376 39.3743 162.695 39.0892C163.016 38.8009 163.386 38.5921 163.803 38.4628C164.221 38.3302 164.66 38.264 165.121 38.264C165.426 38.264 165.749 38.3004 166.09 38.3733C166.435 38.4429 166.756 38.5722 167.055 38.7611C167.356 38.95 167.603 39.2202 167.795 39.5715C167.988 39.9195 168.084 40.3719 168.084 40.9287V45.9998H166.632V44.9557H166.572C166.476 45.148 166.332 45.3369 166.14 45.5225C165.948 45.7081 165.701 45.8622 165.399 45.9848C165.098 46.1075 164.736 46.1688 164.315 46.1688ZM164.638 44.9756C165.049 44.9756 165.401 44.8944 165.692 44.732C165.987 44.5696 166.211 44.3575 166.364 44.0956C166.519 43.8305 166.597 43.5471 166.597 43.2455V42.2611C166.544 42.3141 166.442 42.3639 166.289 42.4103C166.14 42.4534 165.969 42.4915 165.777 42.5246C165.585 42.5544 165.397 42.5826 165.215 42.6091C165.033 42.6323 164.88 42.6522 164.758 42.6688C164.469 42.7052 164.206 42.7666 163.967 42.8527C163.732 42.9389 163.543 43.0632 163.401 43.2256C163.261 43.3847 163.192 43.5968 163.192 43.862C163.192 44.2299 163.328 44.5083 163.599 44.6972C163.871 44.8828 164.218 44.9756 164.638 44.9756ZM170.064 45.9998V38.3634H171.491V39.6063H171.585C171.744 39.1854 172.004 38.8572 172.366 38.6219C172.727 38.3833 173.159 38.264 173.663 38.264C174.174 38.264 174.601 38.3833 174.946 38.6219C175.294 38.8606 175.551 39.1887 175.716 39.6063H175.796C175.978 39.1986 176.268 38.8738 176.666 38.6319C177.064 38.3866 177.538 38.264 178.088 38.264C178.781 38.264 179.346 38.4811 179.783 38.9152C180.224 39.3494 180.444 40.004 180.444 40.879V45.9998H178.958V41.0182C178.958 40.5012 178.817 40.1266 178.535 39.8946C178.254 39.6626 177.917 39.5466 177.526 39.5466C177.042 39.5466 176.666 39.6958 176.398 39.9941C176.129 40.2891 175.995 40.6686 175.995 41.1326V45.9998H174.513V40.9238C174.513 40.5095 174.384 40.1764 174.126 39.9245C173.867 39.6726 173.531 39.5466 173.116 39.5466C172.835 39.5466 172.574 39.6212 172.336 39.7704C172.1 39.9162 171.91 40.12 171.764 40.3819C171.622 40.6437 171.55 40.947 171.55 41.2917V45.9998H170.064ZM182.437 48.8634V38.3634H183.888V39.6013H184.013C184.099 39.4422 184.223 39.2583 184.386 39.0495C184.548 38.8407 184.773 38.6584 185.062 38.5026C185.35 38.3435 185.731 38.264 186.205 38.264C186.822 38.264 187.372 38.4197 187.856 38.7313C188.34 39.0428 188.719 39.4919 188.994 40.0786C189.273 40.6652 189.412 41.3712 189.412 42.1965C189.412 43.0218 189.274 43.7294 188.999 44.3194C188.724 44.906 188.346 45.3584 187.866 45.6766C187.385 45.9915 186.837 46.1489 186.22 46.1489C185.756 46.1489 185.377 46.071 185.082 45.9152C184.79 45.7595 184.561 45.5772 184.396 45.3684C184.23 45.1596 184.102 44.974 184.013 44.8115H183.923V48.8634H182.437ZM183.893 42.1816C183.893 42.7185 183.971 43.1891 184.127 43.5935C184.283 43.9979 184.508 44.3144 184.803 44.5431C185.098 44.7685 185.46 44.8811 185.887 44.8811C186.331 44.8811 186.702 44.7635 187.001 44.5282C187.299 44.2895 187.524 43.9664 187.677 43.5587C187.833 43.151 187.911 42.692 187.911 42.1816C187.911 41.6778 187.834 41.2254 187.682 40.8243C187.533 40.4233 187.307 40.1068 187.006 39.8748C186.707 39.6427 186.335 39.5267 185.887 39.5267C185.456 39.5267 185.092 39.6378 184.793 39.8598C184.498 40.0819 184.275 40.3918 184.122 40.7895C183.97 41.1873 183.893 41.6513 183.893 42.1816ZM192.564 35.8179V45.9998H191.077V35.8179H192.564ZM197.855 46.1539C197.103 46.1539 196.455 45.9931 195.911 45.6716C195.371 45.3468 194.953 44.8911 194.658 44.3044C194.367 43.7145 194.221 43.0234 194.221 42.2313C194.221 41.4491 194.367 40.7597 194.658 40.1631C194.953 39.5665 195.364 39.1008 195.891 38.7661C196.421 38.4313 197.041 38.264 197.751 38.264C198.181 38.264 198.599 38.3352 199.003 38.4777C199.408 38.6203 199.771 38.844 200.092 39.1489C200.414 39.4538 200.667 39.8499 200.853 40.3371C201.038 40.821 201.131 41.4093 201.131 42.102V42.629H195.061V41.5154H199.675C199.675 41.1243 199.595 40.7779 199.436 40.4763C199.277 40.1714 199.053 39.9311 198.765 39.7554C198.48 39.5798 198.145 39.4919 197.76 39.4919C197.343 39.4919 196.978 39.5947 196.667 39.8002C196.358 40.0024 196.12 40.2675 195.951 40.5956C195.785 40.9204 195.702 41.2734 195.702 41.6546V42.5246C195.702 43.035 195.792 43.4692 195.971 43.8272C196.153 44.1851 196.407 44.4586 196.731 44.6475C197.056 44.8331 197.436 44.9259 197.87 44.9259C198.152 44.9259 198.408 44.8861 198.64 44.8066C198.872 44.7237 199.073 44.6011 199.242 44.4387C199.411 44.2763 199.54 44.0758 199.63 43.8371L201.037 44.0907C200.924 44.505 200.722 44.8679 200.43 45.1794C200.142 45.4877 199.779 45.728 199.341 45.9003C198.907 46.0694 198.412 46.1539 197.855 46.1539ZM207.674 35.8179L210.11 39.8002H210.189L212.626 35.8179H214.405L211.233 40.9088L214.425 45.9998H212.635L210.189 42.0722H210.11L207.664 45.9998H205.874L209.121 40.9088L205.894 35.8179H207.674ZM215.929 45.9998V35.8179H217.465V44.6773H222.079V45.9998H215.929ZM229.385 38.4927C229.332 38.022 229.113 37.6574 228.729 37.3989C228.344 37.1371 227.86 37.0061 227.277 37.0061C226.859 37.0061 226.498 37.0724 226.193 37.205C225.888 37.3343 225.651 37.5132 225.482 37.7419C225.316 37.9673 225.233 38.2242 225.233 38.5125C225.233 38.7545 225.29 38.9633 225.403 39.139C225.519 39.3146 225.669 39.4621 225.855 39.5814C226.044 39.6974 226.246 39.7952 226.461 39.8748C226.677 39.951 226.884 40.014 227.083 40.0637L228.077 40.3222C228.402 40.4017 228.735 40.5095 229.077 40.6454C229.418 40.7812 229.734 40.9602 230.026 41.1823C230.318 41.4043 230.553 41.6794 230.732 42.0076C230.914 42.3357 231.006 42.7284 231.006 43.1858C231.006 43.7625 230.856 44.2746 230.558 44.7221C230.263 45.1695 229.834 45.5225 229.27 45.781C228.71 46.0395 228.032 46.1688 227.237 46.1688C226.475 46.1688 225.815 46.0478 225.258 45.8059C224.702 45.5639 224.266 45.2209 223.951 44.7767C223.636 44.3293 223.462 43.799 223.429 43.1858H224.97C225 43.5537 225.119 43.8603 225.328 44.1056C225.54 44.3475 225.81 44.5282 226.138 44.6475C226.47 44.7635 226.833 44.8215 227.227 44.8215C227.661 44.8215 228.047 44.7535 228.385 44.6177C228.727 44.4784 228.995 44.2862 229.191 44.0409C229.386 43.7924 229.484 43.5024 229.484 43.1709C229.484 42.8693 229.398 42.6224 229.226 42.4302C229.057 42.2379 228.826 42.0788 228.535 41.9529C228.246 41.8269 227.92 41.7159 227.555 41.6198L226.352 41.2917C225.537 41.0696 224.89 40.7431 224.413 40.3123C223.939 39.8814 223.702 39.3113 223.702 38.602C223.702 38.0154 223.861 37.5033 224.18 37.0658C224.498 36.6283 224.929 36.2886 225.472 36.0466C226.016 35.8014 226.629 35.6787 227.312 35.6787C228.001 35.6787 228.609 35.7997 229.136 36.0417C229.666 36.2836 230.084 36.6167 230.389 37.0409C230.694 37.4619 230.853 37.9458 230.866 38.4927H229.385ZM240.061 38.3634V39.5566H235.746V38.3634H240.061ZM236.929 45.9998V37.4784C236.929 37.0012 237.034 36.6051 237.242 36.2902C237.451 35.9721 237.728 35.7351 238.073 35.5793C238.417 35.4202 238.792 35.3407 239.196 35.3407C239.494 35.3407 239.75 35.3655 239.962 35.4152C240.174 35.4616 240.331 35.5047 240.434 35.5445L240.086 36.7476C240.017 36.7277 239.927 36.7045 239.818 36.678C239.708 36.6482 239.576 36.6333 239.42 36.6333C239.059 36.6333 238.8 36.7228 238.644 36.9017C238.492 37.0807 238.416 37.3392 238.416 37.6773V45.9998H236.929ZM241.595 45.9998V38.3634H243.081V45.9998H241.595ZM242.346 37.1851C242.087 37.1851 241.865 37.099 241.68 36.9266C241.497 36.7509 241.406 36.5421 241.406 36.3002C241.406 36.0549 241.497 35.8461 241.68 35.6738C241.865 35.4981 242.087 35.4103 242.346 35.4103C242.604 35.4103 242.825 35.4981 243.007 35.6738C243.193 35.8461 243.285 36.0549 243.285 36.3002C243.285 36.5421 243.193 36.7509 243.007 36.9266C242.825 37.099 242.604 37.1851 242.346 37.1851ZM246.568 35.8179V45.9998H245.081V35.8179H246.568ZM251.859 46.1539C251.106 46.1539 250.459 45.9931 249.915 45.6716C249.375 45.3468 248.957 44.8911 248.662 44.3044C248.37 43.7145 248.225 43.0234 248.225 42.2313C248.225 41.4491 248.37 40.7597 248.662 40.1631C248.957 39.5665 249.368 39.1008 249.895 38.7661C250.425 38.4313 251.045 38.264 251.754 38.264C252.185 38.264 252.603 38.3352 253.007 38.4777C253.412 38.6203 253.775 38.844 254.096 39.1489C254.418 39.4538 254.671 39.8499 254.857 40.3371C255.042 40.821 255.135 41.4093 255.135 42.102V42.629H249.065V41.5154H253.678C253.678 41.1243 253.599 40.7779 253.44 40.4763C253.281 40.1714 253.057 39.9311 252.769 39.7554C252.484 39.5798 252.149 39.4919 251.764 39.4919C251.347 39.4919 250.982 39.5947 250.671 39.8002C250.362 40.0024 250.124 40.2675 249.955 40.5956C249.789 40.9204 249.706 41.2734 249.706 41.6546V42.5246C249.706 43.035 249.796 43.4692 249.975 43.8272C250.157 44.1851 250.41 44.4586 250.735 44.6475C251.06 44.8331 251.44 44.9259 251.874 44.9259C252.155 44.9259 252.412 44.8861 252.644 44.8066C252.876 44.7237 253.077 44.6011 253.246 44.4387C253.415 44.2763 253.544 44.0758 253.634 43.8371L255.041 44.0907C254.928 44.505 254.726 44.8679 254.434 45.1794C254.146 45.4877 253.783 45.728 253.345 45.9003C252.911 46.0694 252.416 46.1539 251.859 46.1539Z" fill="#161616"/>
<path d="M89.7841 56.2727H90.8409V62.0511C90.8409 62.6477 90.7003 63.1804 90.419 63.6491C90.1406 64.1151 89.7472 64.483 89.2386 64.7528C88.7301 65.0199 88.1335 65.1534 87.4489 65.1534C86.7642 65.1534 86.1676 65.0199 85.6591 64.7528C85.1506 64.483 84.7557 64.1151 84.4744 63.6491C84.196 63.1804 84.0568 62.6477 84.0568 62.0511V56.2727H85.1136V61.9659C85.1136 62.392 85.2074 62.7713 85.3949 63.1037C85.5824 63.4332 85.8494 63.6932 86.196 63.8835C86.5455 64.071 86.9631 64.1648 87.4489 64.1648C87.9347 64.1648 88.3523 64.071 88.7017 63.8835C89.0511 63.6932 89.3182 63.4332 89.5028 63.1037C89.6903 62.7713 89.7841 62.392 89.7841 61.9659V56.2727ZM97.4513 59.9205L96.5479 60.1761C96.4911 60.0256 96.4073 59.8793 96.2965 59.7372C96.1886 59.5923 96.0408 59.473 95.8533 59.3793C95.6658 59.2855 95.4258 59.2386 95.1332 59.2386C94.7326 59.2386 94.3988 59.331 94.1317 59.5156C93.8675 59.6974 93.7354 59.929 93.7354 60.2102C93.7354 60.4602 93.8263 60.6577 94.0082 60.8026C94.19 60.9474 94.4741 61.0682 94.8604 61.1648L95.832 61.4034C96.4173 61.5455 96.8533 61.7628 97.1403 62.0554C97.4272 62.3452 97.5707 62.7187 97.5707 63.1761C97.5707 63.5511 97.4627 63.8864 97.2468 64.1818C97.0337 64.4773 96.7354 64.7102 96.3519 64.8807C95.9684 65.0511 95.5224 65.1364 95.0138 65.1364C94.3462 65.1364 93.7937 64.9915 93.3562 64.7017C92.9187 64.4119 92.6417 63.9886 92.5252 63.4318L93.4798 63.1932C93.5707 63.5455 93.7425 63.8097 93.9954 63.9858C94.2511 64.1619 94.5849 64.25 94.9968 64.25C95.4656 64.25 95.8377 64.1506 96.1133 63.9517C96.3917 63.75 96.5309 63.5085 96.5309 63.2273C96.5309 63 96.4513 62.8097 96.2923 62.6562C96.1332 62.5 95.8888 62.3835 95.5593 62.3068L94.4684 62.0511C93.869 61.9091 93.4286 61.6889 93.1474 61.3906C92.869 61.0895 92.7298 60.7131 92.7298 60.2614C92.7298 59.892 92.8335 59.5653 93.0408 59.2812C93.2511 58.9972 93.5366 58.7741 93.8974 58.6122C94.261 58.4503 94.6729 58.3693 95.1332 58.3693C95.7809 58.3693 96.2894 58.5114 96.6587 58.7955C97.0309 59.0795 97.2951 59.4545 97.4513 59.9205ZM101.829 65.1364C101.198 65.1364 100.654 64.9972 100.197 64.7188C99.7422 64.4375 99.3913 64.0455 99.1442 63.5426C98.8999 63.0369 98.7777 62.4489 98.7777 61.7784C98.7777 61.108 98.8999 60.517 99.1442 60.0057C99.3913 59.4915 99.7351 59.0909 100.175 58.804C100.619 58.5142 101.136 58.3693 101.727 58.3693C102.067 58.3693 102.404 58.4261 102.737 58.5398C103.069 58.6534 103.371 58.8381 103.644 59.0938C103.917 59.3466 104.134 59.6818 104.296 60.0994C104.458 60.517 104.539 61.0312 104.539 61.642V62.0682H99.4936V61.1989H103.516C103.516 60.8295 103.442 60.5 103.295 60.2102C103.15 59.9205 102.942 59.6918 102.673 59.5241C102.406 59.3565 102.09 59.2727 101.727 59.2727C101.326 59.2727 100.979 59.3722 100.687 59.571C100.397 59.767 100.174 60.0227 100.018 60.3381C99.8615 60.6534 99.7834 60.9915 99.7834 61.3523V61.9318C99.7834 62.4261 99.8686 62.8452 100.039 63.1889C100.212 63.5298 100.452 63.7898 100.759 63.9688C101.066 64.1449 101.423 64.233 101.829 64.233C102.093 64.233 102.332 64.196 102.545 64.1222C102.761 64.0455 102.947 63.9318 103.103 63.7812C103.259 63.6278 103.38 63.4375 103.465 63.2102L104.437 63.483C104.335 63.8125 104.163 64.1023 103.921 64.3523C103.68 64.5994 103.381 64.7926 103.026 64.9318C102.671 65.0682 102.272 65.1364 101.829 65.1364ZM112.103 65.1364C111.512 65.1364 110.994 64.9957 110.548 64.7145C110.104 64.4332 109.758 64.0398 109.508 63.5341C109.261 63.0284 109.137 62.4375 109.137 61.7614C109.137 61.0795 109.261 60.4844 109.508 59.9759C109.758 59.4673 110.104 59.0724 110.548 58.7912C110.994 58.5099 111.512 58.3693 112.103 58.3693C112.694 58.3693 113.211 58.5099 113.654 58.7912C114.1 59.0724 114.447 59.4673 114.694 59.9759C114.944 60.4844 115.069 61.0795 115.069 61.7614C115.069 62.4375 114.944 63.0284 114.694 63.5341C114.447 64.0398 114.1 64.4332 113.654 64.7145C113.211 64.9957 112.694 65.1364 112.103 65.1364ZM112.103 64.233C112.552 64.233 112.921 64.1179 113.211 63.8878C113.501 63.6577 113.715 63.3551 113.854 62.9801C113.994 62.6051 114.063 62.1989 114.063 61.7614C114.063 61.3239 113.994 60.9162 113.854 60.5384C113.715 60.1605 113.501 59.8551 113.211 59.6222C112.921 59.3892 112.552 59.2727 112.103 59.2727C111.654 59.2727 111.285 59.3892 110.995 59.6222C110.705 59.8551 110.491 60.1605 110.352 60.5384C110.212 60.9162 110.143 61.3239 110.143 61.7614C110.143 62.1989 110.212 62.6051 110.352 62.9801C110.491 63.3551 110.705 63.6577 110.995 63.8878C111.285 64.1179 111.654 64.233 112.103 64.233ZM120.729 62.3239V58.4545H121.735V65H120.729V63.892H120.661C120.507 64.2244 120.269 64.5071 119.945 64.7401C119.621 64.9702 119.212 65.0852 118.718 65.0852C118.309 65.0852 117.945 64.9957 117.627 64.8168C117.309 64.6349 117.059 64.3622 116.877 63.9986C116.695 63.6321 116.604 63.1705 116.604 62.6136V58.4545H117.61V62.5455C117.61 63.0227 117.743 63.4034 118.01 63.6875C118.28 63.9716 118.624 64.1136 119.042 64.1136C119.292 64.1136 119.546 64.0497 119.804 63.9219C120.066 63.794 120.284 63.598 120.461 63.3338C120.64 63.0696 120.729 62.733 120.729 62.3239ZM123.577 65V58.4545H124.548V59.4432H124.616C124.736 59.1193 124.952 58.8565 125.264 58.6548C125.577 58.4531 125.929 58.3523 126.321 58.3523C126.395 58.3523 126.487 58.3537 126.598 58.3565C126.709 58.3594 126.793 58.3636 126.849 58.3693V59.392C126.815 59.3835 126.737 59.3707 126.615 59.3537C126.496 59.3338 126.369 59.3239 126.236 59.3239C125.918 59.3239 125.634 59.3906 125.384 59.5241C125.136 59.6548 124.94 59.8366 124.795 60.0696C124.653 60.2997 124.582 60.5625 124.582 60.858V65H123.577ZM134.263 58.4545V59.3068H130.871V58.4545H134.263ZM131.86 56.8864H132.865V63.125C132.865 63.4091 132.907 63.6222 132.989 63.7642C133.074 63.9034 133.182 63.9972 133.313 64.0455C133.446 64.0909 133.587 64.1136 133.735 64.1136C133.846 64.1136 133.936 64.108 134.007 64.0966C134.078 64.0824 134.135 64.071 134.178 64.0625L134.382 64.9659C134.314 64.9915 134.219 65.017 134.097 65.0426C133.975 65.071 133.82 65.0852 133.632 65.0852C133.348 65.0852 133.07 65.0241 132.797 64.902C132.527 64.7798 132.303 64.5938 132.124 64.3438C131.948 64.0938 131.86 63.7784 131.86 63.3977V56.8864ZM138.45 65.1364C137.819 65.1364 137.275 64.9972 136.818 64.7188C136.363 64.4375 136.012 64.0455 135.765 63.5426C135.521 63.0369 135.399 62.4489 135.399 61.7784C135.399 61.108 135.521 60.517 135.765 60.0057C136.012 59.4915 136.356 59.0909 136.797 58.804C137.24 58.5142 137.757 58.3693 138.348 58.3693C138.689 58.3693 139.025 58.4261 139.358 58.5398C139.69 58.6534 139.993 58.8381 140.265 59.0938C140.538 59.3466 140.755 59.6818 140.917 60.0994C141.079 60.517 141.16 61.0312 141.16 61.642V62.0682H136.115V61.1989H140.137C140.137 60.8295 140.064 60.5 139.916 60.2102C139.771 59.9205 139.564 59.6918 139.294 59.5241C139.027 59.3565 138.711 59.2727 138.348 59.2727C137.947 59.2727 137.6 59.3722 137.308 59.571C137.018 59.767 136.795 60.0227 136.639 60.3381C136.483 60.6534 136.404 60.9915 136.404 61.3523V61.9318C136.404 62.4261 136.49 62.8452 136.66 63.1889C136.833 63.5298 137.074 63.7898 137.38 63.9688C137.687 64.1449 138.044 64.233 138.45 64.233C138.714 64.233 138.953 64.196 139.166 64.1222C139.382 64.0455 139.568 63.9318 139.724 63.7812C139.88 63.6278 140.001 63.4375 140.086 63.2102L141.058 63.483C140.956 63.8125 140.784 64.1023 140.542 64.3523C140.301 64.5994 140.002 64.7926 139.647 64.9318C139.292 65.0682 138.893 65.1364 138.45 65.1364ZM142.69 65V58.4545H143.662V59.4773H143.747C143.883 59.1278 144.103 58.8565 144.407 58.6634C144.711 58.4673 145.076 58.3693 145.502 58.3693C145.934 58.3693 146.294 58.4673 146.581 58.6634C146.87 58.8565 147.096 59.1278 147.258 59.4773H147.326C147.494 59.1392 147.745 58.8707 148.081 58.6719C148.416 58.4702 148.818 58.3693 149.287 58.3693C149.872 58.3693 150.35 58.5526 150.723 58.919C151.095 59.2827 151.281 59.8494 151.281 60.6193V65H150.275V60.6193C150.275 60.1364 150.143 59.7912 149.879 59.5838C149.615 59.3764 149.304 59.2727 148.946 59.2727C148.485 59.2727 148.129 59.4119 147.876 59.6903C147.623 59.9659 147.497 60.3153 147.497 60.7386V65H146.474V60.517C146.474 60.1449 146.353 59.8452 146.112 59.6179C145.87 59.3878 145.559 59.2727 145.179 59.2727C144.917 59.2727 144.673 59.3423 144.446 59.4815C144.221 59.6207 144.039 59.8139 143.9 60.0611C143.764 60.3054 143.696 60.5881 143.696 60.9091V65H142.69ZM153.12 67.4545V58.4545H154.091V59.4943H154.211C154.284 59.3807 154.387 59.2358 154.517 59.0597C154.651 58.8807 154.841 58.7216 155.088 58.5824C155.338 58.4403 155.676 58.3693 156.103 58.3693C156.654 58.3693 157.14 58.5071 157.56 58.7827C157.98 59.0582 158.309 59.4489 158.544 59.9545C158.78 60.4602 158.898 61.0568 158.898 61.7443C158.898 62.4375 158.78 63.0384 158.544 63.5469C158.309 64.0526 157.982 64.4446 157.564 64.723C157.147 64.9986 156.665 65.1364 156.12 65.1364C155.699 65.1364 155.363 65.0668 155.11 64.9276C154.857 64.7855 154.662 64.625 154.526 64.446C154.39 64.2642 154.284 64.1136 154.211 63.9943H154.125V67.4545H153.12ZM154.108 61.7273C154.108 62.2216 154.181 62.6577 154.326 63.0355C154.471 63.4105 154.682 63.7045 154.961 63.9176C155.239 64.1278 155.58 64.233 155.983 64.233C156.404 64.233 156.755 64.1222 157.036 63.9006C157.32 63.6761 157.533 63.375 157.675 62.9972C157.82 62.6165 157.892 62.1932 157.892 61.7273C157.892 61.267 157.821 60.8523 157.679 60.483C157.54 60.1108 157.328 59.8168 157.044 59.6009C156.763 59.3821 156.409 59.2727 155.983 59.2727C155.574 59.2727 155.23 59.3764 154.952 59.5838C154.674 59.7884 154.463 60.0753 154.321 60.4446C154.179 60.8111 154.108 61.2386 154.108 61.7273ZM161.438 56.2727V65H160.432V56.2727H161.438ZM165.206 65.1534C164.791 65.1534 164.415 65.0753 164.077 64.919C163.739 64.7599 163.47 64.5312 163.271 64.233C163.072 63.9318 162.973 63.5682 162.973 63.142C162.973 62.767 163.047 62.4631 163.195 62.2301C163.342 61.9943 163.54 61.8097 163.787 61.6761C164.034 61.5426 164.307 61.4432 164.605 61.3778C164.906 61.3097 165.209 61.2557 165.513 61.2159C165.911 61.1648 166.233 61.1264 166.48 61.1009C166.73 61.0724 166.912 61.0256 167.026 60.9602C167.142 60.8949 167.2 60.7812 167.2 60.6193V60.5852C167.2 60.1648 167.085 59.8381 166.855 59.6051C166.628 59.3722 166.283 59.2557 165.82 59.2557C165.339 59.2557 164.963 59.3608 164.69 59.571C164.418 59.7812 164.226 60.0057 164.115 60.2443L163.161 59.9034C163.331 59.5057 163.558 59.196 163.842 58.9744C164.129 58.75 164.442 58.5937 164.78 58.5057C165.121 58.4148 165.456 58.3693 165.786 58.3693C165.996 58.3693 166.237 58.3949 166.51 58.446C166.786 58.4943 167.051 58.5952 167.307 58.7486C167.565 58.902 167.78 59.1335 167.95 59.4432C168.121 59.7528 168.206 60.1676 168.206 60.6875V65H167.2V64.1136H167.149C167.081 64.2557 166.967 64.4077 166.808 64.5696C166.649 64.7315 166.438 64.8693 166.173 64.983C165.909 65.0966 165.587 65.1534 165.206 65.1534ZM165.359 64.25C165.757 64.25 166.092 64.1719 166.365 64.0156C166.641 63.8594 166.848 63.6577 166.987 63.4105C167.129 63.1634 167.2 62.9034 167.2 62.6307V61.7102C167.158 61.7614 167.064 61.8082 166.919 61.8509C166.777 61.8906 166.612 61.9261 166.425 61.9574C166.24 61.9858 166.06 62.0114 165.884 62.0341C165.71 62.054 165.57 62.071 165.462 62.0852C165.2 62.1193 164.956 62.1747 164.729 62.2514C164.504 62.3253 164.322 62.4375 164.183 62.5881C164.047 62.7358 163.979 62.9375 163.979 63.1932C163.979 63.5426 164.108 63.8068 164.366 63.9858C164.628 64.1619 164.959 64.25 165.359 64.25ZM172.888 58.4545V59.3068H169.496V58.4545H172.888ZM170.485 56.8864H171.49V63.125C171.49 63.4091 171.532 63.6222 171.614 63.7642C171.699 63.9034 171.807 63.9972 171.938 64.0455C172.071 64.0909 172.212 64.1136 172.36 64.1136C172.471 64.1136 172.561 64.108 172.632 64.0966C172.703 64.0824 172.76 64.071 172.803 64.0625L173.007 64.9659C172.939 64.9915 172.844 65.017 172.722 65.0426C172.6 65.071 172.445 65.0852 172.257 65.0852C171.973 65.0852 171.695 65.0241 171.422 64.902C171.152 64.7798 170.928 64.5938 170.749 64.3438C170.573 64.0938 170.485 63.7784 170.485 63.3977V56.8864ZM177.075 65.1364C176.444 65.1364 175.9 64.9972 175.443 64.7188C174.988 64.4375 174.637 64.0455 174.39 63.5426C174.146 63.0369 174.024 62.4489 174.024 61.7784C174.024 61.108 174.146 60.517 174.39 60.0057C174.637 59.4915 174.981 59.0909 175.422 58.804C175.865 58.5142 176.382 58.3693 176.973 58.3693C177.314 58.3693 177.65 58.4261 177.983 58.5398C178.315 58.6534 178.618 58.8381 178.89 59.0938C179.163 59.3466 179.38 59.6818 179.542 60.0994C179.704 60.517 179.785 61.0312 179.785 61.642V62.0682H174.74V61.1989H178.762C178.762 60.8295 178.689 60.5 178.541 60.2102C178.396 59.9205 178.189 59.6918 177.919 59.5241C177.652 59.3565 177.336 59.2727 176.973 59.2727C176.572 59.2727 176.225 59.3722 175.933 59.571C175.643 59.767 175.42 60.0227 175.264 60.3381C175.108 60.6534 175.029 60.9915 175.029 61.3523V61.9318C175.029 62.4261 175.115 62.8452 175.285 63.1889C175.458 63.5298 175.699 63.7898 176.005 63.9688C176.312 64.1449 176.669 64.233 177.075 64.233C177.339 64.233 177.578 64.196 177.791 64.1222C178.007 64.0455 178.193 63.9318 178.349 63.7812C178.505 63.6278 178.626 63.4375 178.711 63.2102L179.683 63.483C179.581 63.8125 179.409 64.1023 179.167 64.3523C178.926 64.5994 178.627 64.7926 178.272 64.9318C177.917 65.0682 177.518 65.1364 177.075 65.1364ZM187.537 58.4545V59.3068H184.145V58.4545H187.537ZM185.133 56.8864H186.139V63.125C186.139 63.4091 186.18 63.6222 186.262 63.7642C186.348 63.9034 186.456 63.9972 186.586 64.0455C186.72 64.0909 186.86 64.1136 187.008 64.1136C187.119 64.1136 187.21 64.108 187.281 64.0966C187.352 64.0824 187.409 64.071 187.451 64.0625L187.656 64.9659C187.588 64.9915 187.493 65.017 187.37 65.0426C187.248 65.071 187.093 65.0852 186.906 65.0852C186.622 65.0852 186.343 65.0241 186.071 64.902C185.801 64.7798 185.576 64.5938 185.397 64.3438C185.221 64.0938 185.133 63.7784 185.133 63.3977V56.8864ZM191.638 65.1364C191.047 65.1364 190.529 64.9957 190.083 64.7145C189.64 64.4332 189.293 64.0398 189.043 63.5341C188.796 63.0284 188.672 62.4375 188.672 61.7614C188.672 61.0795 188.796 60.4844 189.043 59.9759C189.293 59.4673 189.64 59.0724 190.083 58.7912C190.529 58.5099 191.047 58.3693 191.638 58.3693C192.229 58.3693 192.746 58.5099 193.189 58.7912C193.635 59.0724 193.982 59.4673 194.229 59.9759C194.479 60.4844 194.604 61.0795 194.604 61.7614C194.604 62.4375 194.479 63.0284 194.229 63.5341C193.982 64.0398 193.635 64.4332 193.189 64.7145C192.746 64.9957 192.229 65.1364 191.638 65.1364ZM191.638 64.233C192.087 64.233 192.456 64.1179 192.746 63.8878C193.036 63.6577 193.25 63.3551 193.39 62.9801C193.529 62.6051 193.598 62.1989 193.598 61.7614C193.598 61.3239 193.529 60.9162 193.39 60.5384C193.25 60.1605 193.036 59.8551 192.746 59.6222C192.456 59.3892 192.087 59.2727 191.638 59.2727C191.189 59.2727 190.82 59.3892 190.53 59.6222C190.24 59.8551 190.026 60.1605 189.887 60.5384C189.748 60.9162 189.678 61.3239 189.678 61.7614C189.678 62.1989 189.748 62.6051 189.887 62.9801C190.026 63.3551 190.24 63.6577 190.53 63.8878C190.82 64.1179 191.189 64.233 191.638 64.233ZM202.156 67.5909C201.67 67.5909 201.253 67.5284 200.903 67.4034C200.554 67.2812 200.263 67.1193 200.03 66.9176C199.8 66.7188 199.616 66.5057 199.48 66.2784L200.281 65.7159C200.372 65.8352 200.487 65.9716 200.626 66.125C200.766 66.2812 200.956 66.4162 201.197 66.5298C201.442 66.6463 201.761 66.7045 202.156 66.7045C202.685 66.7045 203.121 66.5767 203.464 66.321C203.808 66.0653 203.98 65.6648 203.98 65.1193V63.7898H203.895C203.821 63.9091 203.716 64.0568 203.58 64.233C203.446 64.4062 203.253 64.5611 203 64.6974C202.75 64.831 202.412 64.8977 201.986 64.8977C201.457 64.8977 200.983 64.7727 200.562 64.5227C200.145 64.2727 199.814 63.9091 199.57 63.4318C199.328 62.9545 199.207 62.375 199.207 61.6932C199.207 61.0227 199.325 60.4389 199.561 59.9418C199.797 59.4418 200.125 59.0554 200.545 58.7827C200.966 58.5071 201.452 58.3693 202.003 58.3693C202.429 58.3693 202.767 58.4403 203.017 58.5824C203.27 58.7216 203.463 58.8807 203.597 59.0597C203.733 59.2358 203.838 59.3807 203.912 59.4943H204.014V58.4545H204.986V65.1875C204.986 65.75 204.858 66.2074 204.602 66.5597C204.349 66.9148 204.009 67.1747 203.58 67.3395C203.153 67.5071 202.679 67.5909 202.156 67.5909ZM202.122 63.9943C202.526 63.9943 202.866 63.902 203.145 63.7173C203.423 63.5327 203.635 63.267 203.78 62.9205C203.925 62.5739 203.997 62.1591 203.997 61.6761C203.997 61.2045 203.926 60.7884 203.784 60.4276C203.642 60.0668 203.432 59.7841 203.153 59.5795C202.875 59.375 202.531 59.2727 202.122 59.2727C201.696 59.2727 201.341 59.3807 201.057 59.5966C200.776 59.8125 200.564 60.1023 200.422 60.4659C200.283 60.8295 200.213 61.233 200.213 61.6761C200.213 62.1307 200.284 62.5327 200.426 62.8821C200.571 63.2287 200.784 63.5014 201.065 63.7003C201.349 63.8963 201.702 63.9943 202.122 63.9943ZM209.571 65.1364C208.94 65.1364 208.396 64.9972 207.939 64.7188C207.484 64.4375 207.134 64.0455 206.886 63.5426C206.642 63.0369 206.52 62.4489 206.52 61.7784C206.52 61.108 206.642 60.517 206.886 60.0057C207.134 59.4915 207.477 59.0909 207.918 58.804C208.361 58.5142 208.878 58.3693 209.469 58.3693C209.81 58.3693 210.146 58.4261 210.479 58.5398C210.811 58.6534 211.114 58.8381 211.386 59.0938C211.659 59.3466 211.876 59.6818 212.038 60.0994C212.2 60.517 212.281 61.0312 212.281 61.642V62.0682H207.236V61.1989H211.259C211.259 60.8295 211.185 60.5 211.037 60.2102C210.892 59.9205 210.685 59.6918 210.415 59.5241C210.148 59.3565 209.832 59.2727 209.469 59.2727C209.068 59.2727 208.722 59.3722 208.429 59.571C208.139 59.767 207.916 60.0227 207.76 60.3381C207.604 60.6534 207.526 60.9915 207.526 61.3523V61.9318C207.526 62.4261 207.611 62.8452 207.781 63.1889C207.955 63.5298 208.195 63.7898 208.501 63.9688C208.808 64.1449 209.165 64.233 209.571 64.233C209.835 64.233 210.074 64.196 210.287 64.1222C210.503 64.0455 210.689 63.9318 210.845 63.7812C211.001 63.6278 211.122 63.4375 211.207 63.2102L212.179 63.483C212.077 63.8125 211.905 64.1023 211.663 64.3523C211.422 64.5994 211.124 64.7926 210.768 64.9318C210.413 65.0682 210.014 65.1364 209.571 65.1364ZM216.658 58.4545V59.3068H213.266V58.4545H216.658ZM214.254 56.8864H215.26V63.125C215.26 63.4091 215.301 63.6222 215.384 63.7642C215.469 63.9034 215.577 63.9972 215.707 64.0455C215.841 64.0909 215.982 64.1136 216.129 64.1136C216.24 64.1136 216.331 64.108 216.402 64.0966C216.473 64.0824 216.53 64.071 216.572 64.0625L216.777 64.9659C216.709 64.9915 216.614 65.017 216.491 65.0426C216.369 65.071 216.214 65.0852 216.027 65.0852C215.743 65.0852 215.464 65.0241 215.192 64.902C214.922 64.7798 214.697 64.5938 214.518 64.3438C214.342 64.0938 214.254 63.7784 214.254 63.3977V56.8864ZM226.182 59.9205L225.278 60.1761C225.222 60.0256 225.138 59.8793 225.027 59.7372C224.919 59.5923 224.771 59.473 224.584 59.3793C224.396 59.2855 224.156 59.2386 223.864 59.2386C223.463 59.2386 223.129 59.331 222.862 59.5156C222.598 59.6974 222.466 59.929 222.466 60.2102C222.466 60.4602 222.557 60.6577 222.739 60.8026C222.92 60.9474 223.205 61.0682 223.591 61.1648L224.562 61.4034C225.148 61.5455 225.584 61.7628 225.871 62.0554C226.158 62.3452 226.301 62.7187 226.301 63.1761C226.301 63.5511 226.193 63.8864 225.977 64.1818C225.764 64.4773 225.466 64.7102 225.082 64.8807C224.699 65.0511 224.253 65.1364 223.744 65.1364C223.077 65.1364 222.524 64.9915 222.087 64.7017C221.649 64.4119 221.372 63.9886 221.256 63.4318L222.21 63.1932C222.301 63.5455 222.473 63.8097 222.726 63.9858C222.982 64.1619 223.315 64.25 223.727 64.25C224.196 64.25 224.568 64.1506 224.844 63.9517C225.122 63.75 225.261 63.5085 225.261 63.2273C225.261 63 225.182 62.8097 225.023 62.6562C224.864 62.5 224.619 62.3835 224.29 62.3068L223.199 62.0511C222.599 61.9091 222.159 61.6889 221.878 61.3906C221.599 61.0895 221.46 60.7131 221.46 60.2614C221.46 59.892 221.564 59.5653 221.771 59.2812C221.982 58.9972 222.267 58.7741 222.628 58.6122C222.991 58.4503 223.403 58.3693 223.864 58.3693C224.511 58.3693 225.02 58.5114 225.389 58.7955C225.761 59.0795 226.026 59.4545 226.182 59.9205ZM230.662 58.4545V59.3068H227.27V58.4545H230.662ZM228.258 56.8864H229.264V63.125C229.264 63.4091 229.305 63.6222 229.387 63.7642C229.473 63.9034 229.581 63.9972 229.711 64.0455C229.845 64.0909 229.985 64.1136 230.133 64.1136C230.244 64.1136 230.335 64.108 230.406 64.0966C230.477 64.0824 230.534 64.071 230.576 64.0625L230.781 64.9659C230.713 64.9915 230.618 65.017 230.495 65.0426C230.373 65.071 230.218 65.0852 230.031 65.0852C229.747 65.0852 229.468 65.0241 229.196 64.902C228.926 64.7798 228.701 64.5938 228.522 64.3438C228.346 64.0938 228.258 63.7784 228.258 63.3977V56.8864ZM234.1 65.1534C233.686 65.1534 233.309 65.0753 232.971 64.919C232.633 64.7599 232.365 64.5312 232.166 64.233C231.967 63.9318 231.868 63.5682 231.868 63.142C231.868 62.767 231.941 62.4631 232.089 62.2301C232.237 61.9943 232.434 61.8097 232.681 61.6761C232.929 61.5426 233.201 61.4432 233.5 61.3778C233.801 61.3097 234.103 61.2557 234.407 61.2159C234.805 61.1648 235.127 61.1264 235.375 61.1009C235.625 61.0724 235.806 61.0256 235.92 60.9602C236.037 60.8949 236.095 60.7812 236.095 60.6193V60.5852C236.095 60.1648 235.98 59.8381 235.75 59.6051C235.522 59.3722 235.177 59.2557 234.714 59.2557C234.234 59.2557 233.858 59.3608 233.585 59.571C233.312 59.7812 233.12 60.0057 233.01 60.2443L232.055 59.9034C232.225 59.5057 232.453 59.196 232.737 58.9744C233.024 58.75 233.336 58.5937 233.674 58.5057C234.015 58.4148 234.35 58.3693 234.68 58.3693C234.89 58.3693 235.132 58.3949 235.404 58.446C235.68 58.4943 235.946 58.5952 236.201 58.7486C236.46 58.902 236.674 59.1335 236.845 59.4432C237.015 59.7528 237.1 60.1676 237.1 60.6875V65H236.095V64.1136H236.044C235.975 64.2557 235.862 64.4077 235.703 64.5696C235.544 64.7315 235.332 64.8693 235.068 64.983C234.804 65.0966 234.481 65.1534 234.1 65.1534ZM234.254 64.25C234.652 64.25 234.987 64.1719 235.26 64.0156C235.535 63.8594 235.743 63.6577 235.882 63.4105C236.024 63.1634 236.095 62.9034 236.095 62.6307V61.7102C236.052 61.7614 235.958 61.8082 235.814 61.8509C235.672 61.8906 235.507 61.9261 235.319 61.9574C235.135 61.9858 234.954 62.0114 234.778 62.0341C234.605 62.054 234.464 62.071 234.356 62.0852C234.095 62.1193 233.85 62.1747 233.623 62.2514C233.399 62.3253 233.217 62.4375 233.078 62.5881C232.941 62.7358 232.873 62.9375 232.873 63.1932C232.873 63.5426 233.002 63.8068 233.261 63.9858C233.522 64.1619 233.853 64.25 234.254 64.25ZM238.936 65V58.4545H239.908V59.4432H239.976C240.095 59.1193 240.311 58.8565 240.624 58.6548C240.936 58.4531 241.288 58.3523 241.68 58.3523C241.754 58.3523 241.847 58.3537 241.957 58.3565C242.068 58.3594 242.152 58.3636 242.209 58.3693V59.392C242.175 59.3835 242.097 59.3707 241.974 59.3537C241.855 59.3338 241.729 59.3239 241.595 59.3239C241.277 59.3239 240.993 59.3906 240.743 59.5241C240.496 59.6548 240.3 59.8366 240.155 60.0696C240.013 60.2997 239.942 60.5625 239.942 60.858V65H238.936ZM246.658 58.4545V59.3068H243.266V58.4545H246.658ZM244.254 56.8864H245.26V63.125C245.26 63.4091 245.301 63.6222 245.384 63.7642C245.469 63.9034 245.577 63.9972 245.707 64.0455C245.841 64.0909 245.982 64.1136 246.129 64.1136C246.24 64.1136 246.331 64.108 246.402 64.0966C246.473 64.0824 246.53 64.071 246.572 64.0625L246.777 64.9659C246.709 64.9915 246.614 65.017 246.491 65.0426C246.369 65.071 246.214 65.0852 246.027 65.0852C245.743 65.0852 245.464 65.0241 245.192 64.902C244.922 64.7798 244.697 64.5938 244.518 64.3438C244.342 64.0938 244.254 63.7784 244.254 63.3977V56.8864ZM250.844 65.1364C250.214 65.1364 249.67 64.9972 249.212 64.7188C248.758 64.4375 248.407 64.0455 248.16 63.5426C247.915 63.0369 247.793 62.4489 247.793 61.7784C247.793 61.108 247.915 60.517 248.16 60.0057C248.407 59.4915 248.751 59.0909 249.191 58.804C249.634 58.5142 250.151 58.3693 250.742 58.3693C251.083 58.3693 251.42 58.4261 251.752 58.5398C252.085 58.6534 252.387 58.8381 252.66 59.0938C252.933 59.3466 253.15 59.6818 253.312 60.0994C253.474 60.517 253.555 61.0312 253.555 61.642V62.0682H248.509V61.1989H252.532C252.532 60.8295 252.458 60.5 252.31 60.2102C252.165 59.9205 251.958 59.6918 251.688 59.5241C251.421 59.3565 251.106 59.2727 250.742 59.2727C250.342 59.2727 249.995 59.3722 249.702 59.571C249.413 59.767 249.19 60.0227 249.033 60.3381C248.877 60.6534 248.799 60.9915 248.799 61.3523V61.9318C248.799 62.4261 248.884 62.8452 249.055 63.1889C249.228 63.5298 249.468 63.7898 249.775 63.9688C250.082 64.1449 250.438 64.233 250.844 64.233C251.109 64.233 251.347 64.196 251.56 64.1222C251.776 64.0455 251.962 63.9318 252.119 63.7812C252.275 63.6278 252.396 63.4375 252.481 63.2102L253.452 63.483C253.35 63.8125 253.178 64.1023 252.937 64.3523C252.695 64.5994 252.397 64.7926 252.042 64.9318C251.687 65.0682 251.288 65.1364 250.844 65.1364ZM257.556 65.1364C257.011 65.1364 256.529 64.9986 256.112 64.723C255.694 64.4446 255.367 64.0526 255.131 63.5469C254.896 63.0384 254.778 62.4375 254.778 61.7443C254.778 61.0568 254.896 60.4602 255.131 59.9545C255.367 59.4489 255.695 59.0582 256.116 58.7827C256.536 58.5071 257.022 58.3693 257.573 58.3693C257.999 58.3693 258.336 58.4403 258.583 58.5824C258.833 58.7216 259.023 58.8807 259.154 59.0597C259.288 59.2358 259.391 59.3807 259.465 59.4943H259.55V56.2727H260.556V65H259.585V63.9943H259.465C259.391 64.1136 259.286 64.2642 259.15 64.446C259.013 64.625 258.819 64.7855 258.566 64.9276C258.313 65.0668 257.977 65.1364 257.556 65.1364ZM257.692 64.233C258.096 64.233 258.437 64.1278 258.715 63.9176C258.994 63.7045 259.205 63.4105 259.35 63.0355C259.495 62.6577 259.567 62.2216 259.567 61.7273C259.567 61.2386 259.496 60.8111 259.354 60.4446C259.212 60.0753 259.002 59.7884 258.724 59.5838C258.445 59.3764 258.102 59.2727 257.692 59.2727C257.266 59.2727 256.911 59.3821 256.627 59.6009C256.346 59.8168 256.134 60.1108 255.992 60.483C255.853 60.8523 255.783 61.267 255.783 61.7273C255.783 62.1932 255.854 62.6165 255.996 62.9972C256.141 63.375 256.354 63.6761 256.636 63.9006C256.92 64.1222 257.272 64.233 257.692 64.233Z" fill="#161616"/>
<rect x="516.5" y="32.4998" width="100" height="35" rx="17.5" fill="white"/>
<path d="M535.085 54.9998V45.8998H538.205C539.15 45.8998 539.978 46.0926 540.688 46.4783C541.403 46.8639 541.96 47.3991 542.359 48.0838C542.757 48.7641 542.957 49.5528 542.957 50.4498C542.957 51.1258 542.842 51.7433 542.612 52.3023C542.387 52.8569 542.064 53.3358 541.644 53.7388C541.223 54.1418 540.723 54.4538 540.142 54.6748C539.562 54.8914 538.916 54.9998 538.205 54.9998H535.085ZM537.243 52.9913H538.095C538.485 52.9913 538.838 52.9371 539.154 52.8288C539.471 52.7204 539.744 52.5579 539.973 52.3413C540.207 52.1246 540.385 51.8581 540.506 51.5418C540.632 51.2254 540.695 50.8614 540.695 50.4498C540.695 49.8994 540.586 49.4358 540.37 49.0588C540.153 48.6774 539.848 48.3914 539.453 48.2008C539.063 48.0058 538.61 47.9083 538.095 47.9083H537.243V52.9913ZM547.52 55.1948C546.797 55.1948 546.157 55.0366 545.603 54.7203C545.048 54.3996 544.613 53.9728 544.296 53.4398C543.984 52.9068 543.828 52.3218 543.828 51.6848C543.828 51.2211 543.917 50.7791 544.095 50.3588C544.277 49.9341 544.532 49.5593 544.862 49.2343C545.191 48.9049 545.581 48.6471 546.032 48.4608C546.482 48.2701 546.979 48.1748 547.52 48.1748C548.244 48.1748 548.883 48.3351 549.438 48.6558C549.992 48.9721 550.426 49.3968 550.738 49.9298C551.05 50.4628 551.206 51.0478 551.206 51.6848C551.206 52.1484 551.117 52.5926 550.939 53.0173C550.762 53.4376 550.508 53.8103 550.179 54.1353C549.849 54.4603 549.459 54.7181 549.009 54.9088C548.558 55.0994 548.062 55.1948 547.52 55.1948ZM547.52 53.3618C547.824 53.3618 548.097 53.2946 548.339 53.1603C548.582 53.0216 548.773 52.8266 548.911 52.5753C549.05 52.3239 549.119 52.0271 549.119 51.6848C549.119 51.3381 549.05 51.0413 548.911 50.7943C548.777 50.5429 548.588 50.3501 548.346 50.2158C548.103 50.0771 547.828 50.0078 547.52 50.0078C547.213 50.0078 546.937 50.0771 546.695 50.2158C546.452 50.3501 546.261 50.5429 546.123 50.7943C545.984 51.0413 545.915 51.3381 545.915 51.6848C545.915 52.0271 545.984 52.3239 546.123 52.5753C546.266 52.8266 546.459 53.0216 546.701 53.1603C546.944 53.2946 547.217 53.3618 547.52 53.3618ZM553.593 54.9998L551.611 48.3698H553.671L554.744 52.5493L555.979 48.3698H557.942L559.131 52.5493L560.191 48.3698H562.173L560.191 54.9998H558.072L556.921 50.9763L555.712 54.9998H553.593ZM563.156 54.9998V48.3698H565.288V49.0718C565.535 48.7598 565.828 48.5323 566.166 48.3893C566.504 48.2463 566.859 48.1748 567.232 48.1748C567.856 48.1748 568.369 48.2983 568.772 48.5453C569.175 48.7879 569.472 49.1043 569.663 49.4943C569.858 49.8799 569.955 50.2894 569.955 50.7228V54.9998H567.823V51.3923C567.823 50.9936 567.717 50.6794 567.505 50.4498C567.297 50.2201 566.989 50.1053 566.582 50.1053C566.322 50.1053 566.094 50.1616 565.899 50.2743C565.709 50.3869 565.559 50.5473 565.451 50.7553C565.343 50.9589 565.288 51.1929 565.288 51.4573V54.9998H563.156ZM571.662 54.9998V45.6398H573.794V54.9998H571.662ZM578.738 55.1948C578.014 55.1948 577.375 55.0366 576.82 54.7203C576.266 54.3996 575.83 53.9728 575.514 53.4398C575.202 52.9068 575.046 52.3218 575.046 51.6848C575.046 51.2211 575.135 50.7791 575.312 50.3588C575.494 49.9341 575.75 49.5593 576.079 49.2343C576.409 48.9049 576.799 48.6471 577.249 48.4608C577.7 48.2701 578.196 48.1748 578.738 48.1748C579.462 48.1748 580.101 48.3351 580.655 48.6558C581.21 48.9721 581.643 49.3968 581.955 49.9298C582.267 50.4628 582.423 51.0478 582.423 51.6848C582.423 52.1484 582.335 52.5926 582.157 53.0173C581.979 53.4376 581.726 53.8103 581.396 54.1353C581.067 54.4603 580.677 54.7181 580.226 54.9088C579.776 55.0994 579.28 55.1948 578.738 55.1948ZM578.738 53.3618C579.041 53.3618 579.314 53.2946 579.557 53.1603C579.8 53.0216 579.99 52.8266 580.129 52.5753C580.268 52.3239 580.337 52.0271 580.337 51.6848C580.337 51.3381 580.268 51.0413 580.129 50.7943C579.995 50.5429 579.806 50.3501 579.563 50.2158C579.321 50.0771 579.046 50.0078 578.738 50.0078C578.43 50.0078 578.155 50.0771 577.912 50.2158C577.67 50.3501 577.479 50.5429 577.34 50.7943C577.202 51.0413 577.132 51.3381 577.132 51.6848C577.132 52.0271 577.202 52.3239 577.34 52.5753C577.483 52.8266 577.676 53.0216 577.919 53.1603C578.162 53.2946 578.435 53.3618 578.738 53.3618ZM585.538 55.1948C585.096 55.1948 584.699 55.1103 584.348 54.9413C583.997 54.7679 583.72 54.5231 583.516 54.2068C583.312 53.8861 583.211 53.5026 583.211 53.0563C583.211 52.6749 583.304 52.3369 583.49 52.0423C583.681 51.7476 583.967 51.5049 584.348 51.3143C584.729 51.1236 585.208 50.9958 585.785 50.9308C586.365 50.8614 587.043 50.8614 587.819 50.9308L587.839 52.2568C587.427 52.1831 587.054 52.1463 586.721 52.1463C586.391 52.1419 586.11 52.1701 585.876 52.2308C585.646 52.2871 585.468 52.3759 585.343 52.4973C585.217 52.6186 585.154 52.7681 585.154 52.9458C585.154 53.1754 585.241 53.3509 585.414 53.4723C585.592 53.5936 585.828 53.6543 586.123 53.6543C586.378 53.6543 586.608 53.6088 586.812 53.5178C587.02 53.4268 587.184 53.2946 587.306 53.1213C587.431 52.9436 587.494 52.7269 587.494 52.4713V50.9568C587.494 50.7184 587.444 50.5083 587.345 50.3263C587.245 50.1443 587.087 50.0034 586.87 49.9038C586.658 49.7998 586.374 49.7478 586.019 49.7478C585.676 49.7478 585.336 49.7998 584.998 49.9038C584.66 50.0034 584.357 50.1551 584.088 50.3588L583.542 48.8963C583.971 48.6276 584.43 48.4304 584.92 48.3048C585.41 48.1748 585.891 48.1098 586.363 48.1098C586.987 48.1098 587.535 48.2094 588.008 48.4088C588.484 48.6081 588.857 48.9158 589.126 49.3318C589.394 49.7478 589.529 50.2808 589.529 50.9308V54.9998H587.689V54.2978C587.477 54.5838 587.184 54.8048 586.812 54.9608C586.439 55.1168 586.014 55.1948 585.538 55.1948ZM593.982 55.1948C593.354 55.1948 592.79 55.0496 592.292 54.7593C591.794 54.4646 591.402 54.0551 591.116 53.5308C590.83 53.0021 590.687 52.3868 590.687 51.6848C590.687 51.1864 590.769 50.7249 590.934 50.3003C591.098 49.8756 591.328 49.5051 591.623 49.1888C591.922 48.8681 592.275 48.6189 592.682 48.4413C593.089 48.2636 593.536 48.1748 594.021 48.1748C594.528 48.1748 594.985 48.2744 595.393 48.4738C595.8 48.6731 596.155 48.9699 596.459 49.3643L595.971 49.8518V45.6398H598.103V54.9998H596.264V53.2773L596.556 53.7583C596.365 54.1829 596.047 54.5296 595.601 54.7983C595.154 55.0626 594.615 55.1948 593.982 55.1948ZM594.379 53.3618C594.682 53.3618 594.955 53.2946 595.198 53.1603C595.44 53.0216 595.631 52.8266 595.77 52.5753C595.908 52.3239 595.978 52.0271 595.978 51.6848C595.978 51.3381 595.908 51.0413 595.77 50.7943C595.635 50.5429 595.447 50.3501 595.204 50.2158C594.961 50.0771 594.686 50.0078 594.379 50.0078C594.071 50.0078 593.796 50.0771 593.553 50.2158C593.31 50.3501 593.12 50.5429 592.981 50.7943C592.842 51.0413 592.773 51.3381 592.773 51.6848C592.773 52.0271 592.842 52.3239 592.981 52.5753C593.124 52.8266 593.317 53.0216 593.56 53.1603C593.802 53.2946 594.075 53.3618 594.379 53.3618Z" fill="#161616"/>
<rect x="516.5" y="32.4998" width="100" height="35" rx="17.5" stroke="#161616"/>
</g>
<defs>
<clipPath id="clip0_192_2381">
<rect width="649" height="101" fill="white"/>
</clipPath>
<clipPath id="clip1_192_2381">
<rect width="40" height="40" fill="white" transform="translate(27 30)"/>
</clipPath>
<clipPath id="clip2_192_2381">
<rect width="24" height="24" fill="white" transform="translate(35 38)"/>
</clipPath>
</defs>
</svg>
