<svg width="649" height="223" viewBox="0 0 649 223" fill="none" xmlns="http://www.w3.org/2000/svg">
<rect x="0.5" y="0.5" width="648" height="222" rx="15.5" stroke="#DFDFDF" stroke-dasharray="5 5"/>
<path d="M291.638 135.493C291.585 135.022 291.366 134.658 290.982 134.399C290.597 134.137 290.113 134.006 289.53 134.006C289.112 134.006 288.751 134.073 288.446 134.205C288.141 134.335 287.904 134.513 287.735 134.742C287.57 134.968 287.487 135.224 287.487 135.513C287.487 135.755 287.543 135.964 287.656 136.139C287.772 136.315 287.922 136.462 288.108 136.582C288.297 136.698 288.499 136.795 288.715 136.875C288.93 136.951 289.137 137.014 289.336 137.064L290.33 137.322C290.655 137.402 290.988 137.51 291.33 137.646C291.671 137.781 291.988 137.96 292.279 138.183C292.571 138.405 292.806 138.68 292.985 139.008C293.168 139.336 293.259 139.729 293.259 140.186C293.259 140.763 293.11 141.275 292.811 141.722C292.516 142.17 292.087 142.523 291.524 142.781C290.963 143.04 290.286 143.169 289.49 143.169C288.728 143.169 288.068 143.048 287.512 142.806C286.955 142.564 286.519 142.221 286.204 141.777C285.889 141.33 285.715 140.799 285.682 140.186H287.223C287.253 140.554 287.372 140.861 287.581 141.106C287.793 141.348 288.063 141.528 288.391 141.648C288.723 141.764 289.086 141.822 289.48 141.822C289.914 141.822 290.301 141.754 290.639 141.618C290.98 141.479 291.248 141.286 291.444 141.041C291.64 140.793 291.737 140.503 291.737 140.171C291.737 139.87 291.651 139.623 291.479 139.43C291.31 139.238 291.079 139.079 290.788 138.953C290.499 138.827 290.173 138.716 289.808 138.62L288.605 138.292C287.79 138.07 287.144 137.743 286.666 137.312C286.192 136.882 285.955 136.312 285.955 135.602C285.955 135.016 286.114 134.504 286.433 134.066C286.751 133.629 287.182 133.289 287.725 133.047C288.269 132.802 288.882 132.679 289.565 132.679C290.254 132.679 290.862 132.8 291.389 133.042C291.92 133.284 292.337 133.617 292.642 134.041C292.947 134.462 293.106 134.946 293.119 135.493H291.638ZM298.266 143.154C297.514 143.154 296.866 142.993 296.322 142.672C295.782 142.347 295.365 141.891 295.07 141.305C294.778 140.715 294.632 140.024 294.632 139.232C294.632 138.449 294.778 137.76 295.07 137.163C295.365 136.567 295.776 136.101 296.303 135.766C296.833 135.432 297.453 135.264 298.162 135.264C298.593 135.264 299.01 135.335 299.415 135.478C299.819 135.621 300.182 135.844 300.504 136.149C300.825 136.454 301.079 136.85 301.264 137.337C301.45 137.821 301.543 138.41 301.543 139.102V139.629H295.472V138.516H300.086C300.086 138.125 300.006 137.778 299.847 137.477C299.688 137.172 299.464 136.931 299.176 136.756C298.891 136.58 298.556 136.492 298.172 136.492C297.754 136.492 297.39 136.595 297.078 136.8C296.77 137.003 296.531 137.268 296.362 137.596C296.196 137.921 296.114 138.274 296.114 138.655V139.525C296.114 140.035 296.203 140.469 296.382 140.827C296.564 141.185 296.818 141.459 297.143 141.648C297.468 141.833 297.847 141.926 298.281 141.926C298.563 141.926 298.82 141.886 299.052 141.807C299.284 141.724 299.484 141.601 299.653 141.439C299.822 141.277 299.952 141.076 300.041 140.837L301.448 141.091C301.335 141.505 301.133 141.868 300.842 142.18C300.553 142.488 300.19 142.728 299.753 142.901C299.319 143.07 298.823 143.154 298.266 143.154ZM304.678 132.818V143H303.192V132.818H304.678ZM309.969 143.154C309.217 143.154 308.569 142.993 308.026 142.672C307.485 142.347 307.068 141.891 306.773 141.305C306.481 140.715 306.335 140.024 306.335 139.232C306.335 138.449 306.481 137.76 306.773 137.163C307.068 136.567 307.479 136.101 308.006 135.766C308.536 135.432 309.156 135.264 309.865 135.264C310.296 135.264 310.714 135.335 311.118 135.478C311.522 135.621 311.885 135.844 312.207 136.149C312.528 136.454 312.782 136.85 312.967 137.337C313.153 137.821 313.246 138.41 313.246 139.102V139.629H307.175V138.516H311.789C311.789 138.125 311.709 137.778 311.55 137.477C311.391 137.172 311.168 136.931 310.879 136.756C310.594 136.58 310.259 136.492 309.875 136.492C309.457 136.492 309.093 136.595 308.781 136.8C308.473 137.003 308.234 137.268 308.065 137.596C307.9 137.921 307.817 138.274 307.817 138.655V139.525C307.817 140.035 307.906 140.469 308.085 140.827C308.267 141.185 308.521 141.459 308.846 141.648C309.171 141.833 309.55 141.926 309.984 141.926C310.266 141.926 310.523 141.886 310.755 141.807C310.987 141.724 311.187 141.601 311.356 141.439C311.526 141.277 311.655 141.076 311.744 140.837L313.151 141.091C313.039 141.505 312.836 141.868 312.545 142.18C312.256 142.488 311.893 142.728 311.456 142.901C311.022 143.07 310.526 143.154 309.969 143.154ZM318.112 143.154C317.373 143.154 316.736 142.987 316.203 142.652C315.672 142.314 315.265 141.848 314.98 141.255C314.695 140.662 314.552 139.982 314.552 139.217C314.552 138.441 314.698 137.757 314.989 137.163C315.281 136.567 315.692 136.101 316.222 135.766C316.753 135.432 317.378 135.264 318.097 135.264C318.677 135.264 319.194 135.372 319.648 135.587C320.102 135.799 320.468 136.098 320.747 136.482C321.028 136.867 321.196 137.316 321.249 137.83H319.802C319.722 137.472 319.54 137.163 319.255 136.905C318.973 136.646 318.596 136.517 318.122 136.517C317.707 136.517 317.344 136.626 317.033 136.845C316.725 137.061 316.484 137.369 316.312 137.77C316.14 138.168 316.053 138.638 316.053 139.182C316.053 139.739 316.138 140.219 316.307 140.624C316.476 141.028 316.715 141.341 317.023 141.563C317.334 141.785 317.701 141.896 318.122 141.896C318.403 141.896 318.659 141.845 318.887 141.742C319.119 141.636 319.313 141.485 319.469 141.29C319.628 141.094 319.739 140.859 319.802 140.584H321.249C321.196 141.078 321.035 141.518 320.766 141.906C320.498 142.294 320.138 142.599 319.688 142.821C319.24 143.043 318.715 143.154 318.112 143.154ZM326.403 135.364V136.557H322.232V135.364H326.403ZM323.35 133.534H324.837V140.758C324.837 141.046 324.88 141.263 324.966 141.409C325.052 141.552 325.163 141.649 325.299 141.702C325.439 141.752 325.589 141.777 325.752 141.777C325.871 141.777 325.975 141.769 326.065 141.752C326.154 141.736 326.224 141.722 326.274 141.712L326.542 142.94C326.456 142.973 326.333 143.007 326.174 143.04C326.015 143.076 325.816 143.096 325.578 143.099C325.187 143.106 324.822 143.036 324.484 142.891C324.146 142.745 323.872 142.519 323.664 142.214C323.455 141.91 323.35 141.527 323.35 141.066V133.534ZM333.975 143.169C333.491 143.169 333.053 143.08 332.662 142.901C332.271 142.718 331.961 142.455 331.733 142.11C331.507 141.765 331.394 141.343 331.394 140.842C331.394 140.411 331.477 140.057 331.643 139.778C331.809 139.5 332.033 139.28 332.314 139.117C332.596 138.955 332.911 138.832 333.259 138.749C333.607 138.666 333.961 138.603 334.323 138.56C334.78 138.507 335.151 138.464 335.436 138.431C335.721 138.395 335.929 138.337 336.058 138.257C336.187 138.178 336.252 138.048 336.252 137.869V137.835C336.252 137.4 336.129 137.064 335.884 136.825C335.642 136.587 335.281 136.467 334.8 136.467C334.3 136.467 333.905 136.578 333.617 136.8C333.332 137.019 333.135 137.263 333.025 137.531L331.628 137.213C331.794 136.749 332.036 136.375 332.354 136.089C332.676 135.801 333.045 135.592 333.463 135.463C333.88 135.33 334.319 135.264 334.78 135.264C335.085 135.264 335.408 135.301 335.75 135.374C336.094 135.443 336.416 135.572 336.714 135.761C337.016 135.95 337.263 136.22 337.455 136.572C337.647 136.92 337.743 137.372 337.743 137.929V143H336.292V141.956H336.232C336.136 142.148 335.992 142.337 335.799 142.523C335.607 142.708 335.36 142.862 335.059 142.985C334.757 143.108 334.396 143.169 333.975 143.169ZM334.298 141.976C334.709 141.976 335.06 141.895 335.352 141.732C335.647 141.57 335.871 141.358 336.023 141.096C336.179 140.831 336.257 140.547 336.257 140.246V139.261C336.204 139.314 336.101 139.364 335.948 139.411C335.799 139.454 335.629 139.492 335.436 139.525C335.244 139.555 335.057 139.583 334.875 139.609C334.692 139.633 334.54 139.652 334.417 139.669C334.129 139.705 333.865 139.767 333.627 139.853C333.391 139.939 333.202 140.063 333.06 140.226C332.921 140.385 332.851 140.597 332.851 140.862C332.851 141.23 332.987 141.509 333.259 141.697C333.531 141.883 333.877 141.976 334.298 141.976ZM347.062 135.364V136.557H342.747V135.364H347.062ZM343.93 143V134.479C343.93 134.001 344.035 133.605 344.244 133.29C344.452 132.972 344.729 132.735 345.074 132.58C345.419 132.42 345.793 132.341 346.197 132.341C346.496 132.341 346.751 132.366 346.963 132.415C347.175 132.462 347.333 132.505 347.435 132.545L347.087 133.748C347.018 133.728 346.928 133.705 346.819 133.678C346.709 133.648 346.577 133.634 346.421 133.634C346.06 133.634 345.801 133.723 345.646 133.902C345.493 134.081 345.417 134.339 345.417 134.678V143H343.93ZM348.596 143V135.364H350.083V143H348.596ZM349.347 134.185C349.088 134.185 348.866 134.099 348.681 133.927C348.498 133.751 348.407 133.542 348.407 133.3C348.407 133.055 348.498 132.846 348.681 132.674C348.866 132.498 349.088 132.411 349.347 132.411C349.605 132.411 349.826 132.498 350.008 132.674C350.194 132.846 350.287 133.055 350.287 133.3C350.287 133.542 350.194 133.751 350.008 133.927C349.826 134.099 349.605 134.185 349.347 134.185ZM353.569 132.818V143H352.083V132.818H353.569ZM358.86 143.154C358.108 143.154 357.46 142.993 356.916 142.672C356.376 142.347 355.958 141.891 355.663 141.305C355.372 140.715 355.226 140.024 355.226 139.232C355.226 138.449 355.372 137.76 355.663 137.163C355.958 136.567 356.369 136.101 356.896 135.766C357.427 135.432 358.046 135.264 358.756 135.264C359.187 135.264 359.604 135.335 360.008 135.478C360.413 135.621 360.776 135.844 361.097 136.149C361.419 136.454 361.672 136.85 361.858 137.337C362.044 137.821 362.136 138.41 362.136 139.102V139.629H356.066V138.516H360.68C360.68 138.125 360.6 137.778 360.441 137.477C360.282 137.172 360.058 136.931 359.77 136.756C359.485 136.58 359.15 136.492 358.766 136.492C358.348 136.492 357.983 136.595 357.672 136.8C357.364 137.003 357.125 137.268 356.956 137.596C356.79 137.921 356.707 138.274 356.707 138.655V139.525C356.707 140.035 356.797 140.469 356.976 140.827C357.158 141.185 357.412 141.459 357.736 141.648C358.061 141.833 358.441 141.926 358.875 141.926C359.157 141.926 359.414 141.886 359.646 141.807C359.878 141.724 360.078 141.601 360.247 141.439C360.416 141.277 360.545 141.076 360.635 140.837L362.042 141.091C361.929 141.505 361.727 141.868 361.435 142.18C361.147 142.488 360.784 142.728 360.347 142.901C359.912 143.07 359.417 143.154 358.86 143.154Z" fill="#161616"/>
<path d="M265.33 163.636C265.33 164.557 265.164 165.352 264.831 166.023C264.499 166.693 264.043 167.21 263.463 167.574C262.884 167.938 262.222 168.119 261.477 168.119C260.733 168.119 260.071 167.938 259.492 167.574C258.912 167.21 258.456 166.693 258.124 166.023C257.791 165.352 257.625 164.557 257.625 163.636C257.625 162.716 257.791 161.92 258.124 161.25C258.456 160.58 258.912 160.062 259.492 159.699C260.071 159.335 260.733 159.153 261.477 159.153C262.222 159.153 262.884 159.335 263.463 159.699C264.043 160.062 264.499 160.58 264.831 161.25C265.164 161.92 265.33 162.716 265.33 163.636ZM264.307 163.636C264.307 162.881 264.181 162.243 263.928 161.723C263.678 161.203 263.338 160.81 262.909 160.543C262.483 160.276 262.006 160.142 261.477 160.142C260.949 160.142 260.47 160.276 260.041 160.543C259.615 160.81 259.276 161.203 259.023 161.723C258.773 162.243 258.648 162.881 258.648 163.636C258.648 164.392 258.773 165.03 259.023 165.55C259.276 166.07 259.615 166.463 260.041 166.73C260.47 166.997 260.949 167.131 261.477 167.131C262.006 167.131 262.483 166.997 262.909 166.73C263.338 166.463 263.678 166.07 263.928 165.55C264.181 165.03 264.307 164.392 264.307 163.636ZM266.97 168V161.455H267.942V162.443H268.01C268.129 162.119 268.345 161.857 268.658 161.655C268.97 161.453 269.323 161.352 269.715 161.352C269.789 161.352 269.881 161.354 269.992 161.357C270.102 161.359 270.186 161.364 270.243 161.369V162.392C270.209 162.384 270.131 162.371 270.009 162.354C269.889 162.334 269.763 162.324 269.629 162.324C269.311 162.324 269.027 162.391 268.777 162.524C268.53 162.655 268.334 162.837 268.189 163.07C268.047 163.3 267.976 163.562 267.976 163.858V168H266.97ZM277.282 168.136C276.736 168.136 276.255 167.999 275.837 167.723C275.42 167.445 275.093 167.053 274.857 166.547C274.621 166.038 274.503 165.438 274.503 164.744C274.503 164.057 274.621 163.46 274.857 162.955C275.093 162.449 275.421 162.058 275.841 161.783C276.262 161.507 276.748 161.369 277.299 161.369C277.725 161.369 278.062 161.44 278.309 161.582C278.559 161.722 278.749 161.881 278.88 162.06C279.013 162.236 279.117 162.381 279.191 162.494H279.276V159.273H280.282V168H279.31V166.994H279.191C279.117 167.114 279.012 167.264 278.876 167.446C278.739 167.625 278.545 167.786 278.292 167.928C278.039 168.067 277.702 168.136 277.282 168.136ZM277.418 167.233C277.822 167.233 278.162 167.128 278.441 166.918C278.719 166.705 278.931 166.411 279.076 166.036C279.221 165.658 279.293 165.222 279.293 164.727C279.293 164.239 279.222 163.811 279.08 163.445C278.938 163.075 278.728 162.788 278.449 162.584C278.171 162.376 277.827 162.273 277.418 162.273C276.992 162.273 276.637 162.382 276.353 162.601C276.072 162.817 275.86 163.111 275.718 163.483C275.579 163.852 275.509 164.267 275.509 164.727C275.509 165.193 275.58 165.616 275.722 165.997C275.867 166.375 276.08 166.676 276.361 166.901C276.645 167.122 276.998 167.233 277.418 167.233ZM282.263 168V161.455H283.235V162.443H283.303C283.422 162.119 283.638 161.857 283.951 161.655C284.263 161.453 284.616 161.352 285.008 161.352C285.082 161.352 285.174 161.354 285.285 161.357C285.395 161.359 285.479 161.364 285.536 161.369V162.392C285.502 162.384 285.424 162.371 285.302 162.354C285.182 162.334 285.056 162.324 284.922 162.324C284.604 162.324 284.32 162.391 284.07 162.524C283.823 162.655 283.627 162.837 283.482 163.07C283.34 163.3 283.269 163.562 283.269 163.858V168H282.263ZM288.654 168.153C288.24 168.153 287.863 168.075 287.525 167.919C287.187 167.76 286.919 167.531 286.72 167.233C286.521 166.932 286.421 166.568 286.421 166.142C286.421 165.767 286.495 165.463 286.643 165.23C286.791 164.994 286.988 164.81 287.235 164.676C287.482 164.543 287.755 164.443 288.053 164.378C288.355 164.31 288.657 164.256 288.961 164.216C289.359 164.165 289.681 164.126 289.928 164.101C290.178 164.072 290.36 164.026 290.474 163.96C290.59 163.895 290.649 163.781 290.649 163.619V163.585C290.649 163.165 290.534 162.838 290.303 162.605C290.076 162.372 289.731 162.256 289.268 162.256C288.788 162.256 288.411 162.361 288.139 162.571C287.866 162.781 287.674 163.006 287.563 163.244L286.609 162.903C286.779 162.506 287.007 162.196 287.291 161.974C287.578 161.75 287.89 161.594 288.228 161.506C288.569 161.415 288.904 161.369 289.234 161.369C289.444 161.369 289.686 161.395 289.958 161.446C290.234 161.494 290.499 161.595 290.755 161.749C291.014 161.902 291.228 162.134 291.399 162.443C291.569 162.753 291.654 163.168 291.654 163.688V168H290.649V167.114H290.597C290.529 167.256 290.416 167.408 290.257 167.57C290.097 167.732 289.886 167.869 289.622 167.983C289.357 168.097 289.035 168.153 288.654 168.153ZM288.808 167.25C289.205 167.25 289.541 167.172 289.813 167.016C290.089 166.859 290.296 166.658 290.436 166.411C290.578 166.163 290.649 165.903 290.649 165.631V164.71C290.606 164.761 290.512 164.808 290.367 164.851C290.225 164.891 290.061 164.926 289.873 164.957C289.688 164.986 289.508 165.011 289.332 165.034C289.159 165.054 289.018 165.071 288.91 165.085C288.649 165.119 288.404 165.175 288.177 165.251C287.953 165.325 287.771 165.437 287.632 165.588C287.495 165.736 287.427 165.937 287.427 166.193C287.427 166.543 287.556 166.807 287.815 166.986C288.076 167.162 288.407 167.25 288.808 167.25ZM296.132 170.591C295.646 170.591 295.229 170.528 294.879 170.403C294.53 170.281 294.238 170.119 294.006 169.918C293.775 169.719 293.592 169.506 293.456 169.278L294.257 168.716C294.348 168.835 294.463 168.972 294.602 169.125C294.741 169.281 294.932 169.416 295.173 169.53C295.417 169.646 295.737 169.705 296.132 169.705C296.66 169.705 297.096 169.577 297.44 169.321C297.784 169.065 297.956 168.665 297.956 168.119V166.79H297.871C297.797 166.909 297.692 167.057 297.555 167.233C297.422 167.406 297.229 167.561 296.976 167.697C296.726 167.831 296.388 167.898 295.961 167.898C295.433 167.898 294.959 167.773 294.538 167.523C294.121 167.273 293.79 166.909 293.545 166.432C293.304 165.955 293.183 165.375 293.183 164.693C293.183 164.023 293.301 163.439 293.537 162.942C293.773 162.442 294.101 162.055 294.521 161.783C294.942 161.507 295.427 161.369 295.979 161.369C296.405 161.369 296.743 161.44 296.993 161.582C297.246 161.722 297.439 161.881 297.572 162.06C297.709 162.236 297.814 162.381 297.888 162.494H297.99V161.455H298.961V168.188C298.961 168.75 298.834 169.207 298.578 169.56C298.325 169.915 297.984 170.175 297.555 170.339C297.129 170.507 296.655 170.591 296.132 170.591ZM296.098 166.994C296.501 166.994 296.842 166.902 297.121 166.717C297.399 166.533 297.611 166.267 297.756 165.92C297.9 165.574 297.973 165.159 297.973 164.676C297.973 164.205 297.902 163.788 297.76 163.428C297.618 163.067 297.408 162.784 297.129 162.58C296.851 162.375 296.507 162.273 296.098 162.273C295.672 162.273 295.317 162.381 295.033 162.597C294.751 162.812 294.54 163.102 294.398 163.466C294.258 163.83 294.189 164.233 294.189 164.676C294.189 165.131 294.26 165.533 294.402 165.882C294.547 166.229 294.76 166.501 295.041 166.7C295.325 166.896 295.677 166.994 296.098 166.994ZM306.104 168.153C305.689 168.153 305.312 168.075 304.974 167.919C304.636 167.76 304.368 167.531 304.169 167.233C303.97 166.932 303.871 166.568 303.871 166.142C303.871 165.767 303.944 165.463 304.092 165.23C304.24 164.994 304.437 164.81 304.684 164.676C304.932 164.543 305.204 164.443 305.503 164.378C305.804 164.31 306.106 164.256 306.41 164.216C306.808 164.165 307.131 164.126 307.378 164.101C307.628 164.072 307.809 164.026 307.923 163.96C308.04 163.895 308.098 163.781 308.098 163.619V163.585C308.098 163.165 307.983 162.838 307.753 162.605C307.525 162.372 307.18 162.256 306.717 162.256C306.237 162.256 305.861 162.361 305.588 162.571C305.315 162.781 305.123 163.006 305.013 163.244L304.058 162.903C304.229 162.506 304.456 162.196 304.74 161.974C305.027 161.75 305.339 161.594 305.677 161.506C306.018 161.415 306.354 161.369 306.683 161.369C306.893 161.369 307.135 161.395 307.408 161.446C307.683 161.494 307.949 161.595 308.204 161.749C308.463 161.902 308.677 162.134 308.848 162.443C309.018 162.753 309.104 163.168 309.104 163.688V168H308.098V167.114H308.047C307.979 167.256 307.865 167.408 307.706 167.57C307.547 167.732 307.335 167.869 307.071 167.983C306.807 168.097 306.484 168.153 306.104 168.153ZM306.257 167.25C306.655 167.25 306.99 167.172 307.263 167.016C307.538 166.859 307.746 166.658 307.885 166.411C308.027 166.163 308.098 165.903 308.098 165.631V164.71C308.055 164.761 307.961 164.808 307.817 164.851C307.675 164.891 307.51 164.926 307.322 164.957C307.138 164.986 306.957 165.011 306.781 165.034C306.608 165.054 306.467 165.071 306.359 165.085C306.098 165.119 305.854 165.175 305.626 165.251C305.402 165.325 305.22 165.437 305.081 165.588C304.944 165.736 304.876 165.937 304.876 166.193C304.876 166.543 305.006 166.807 305.264 166.986C305.525 167.162 305.856 167.25 306.257 167.25ZM311.945 164.062V168H310.939V161.455H311.911V162.477H311.996C312.149 162.145 312.382 161.878 312.695 161.676C313.007 161.472 313.411 161.369 313.905 161.369C314.348 161.369 314.736 161.46 315.068 161.642C315.401 161.821 315.659 162.094 315.844 162.46C316.029 162.824 316.121 163.284 316.121 163.841V168H315.115V163.909C315.115 163.395 314.982 162.994 314.715 162.707C314.448 162.418 314.081 162.273 313.615 162.273C313.294 162.273 313.007 162.342 312.754 162.482C312.504 162.621 312.307 162.824 312.162 163.091C312.017 163.358 311.945 163.682 311.945 164.062ZM320.43 168.136C319.885 168.136 319.403 167.999 318.986 167.723C318.568 167.445 318.241 167.053 318.006 166.547C317.77 166.038 317.652 165.438 317.652 164.744C317.652 164.057 317.77 163.46 318.006 162.955C318.241 162.449 318.569 162.058 318.99 161.783C319.41 161.507 319.896 161.369 320.447 161.369C320.873 161.369 321.21 161.44 321.457 161.582C321.707 161.722 321.898 161.881 322.028 162.06C322.162 162.236 322.265 162.381 322.339 162.494H322.425V159.273H323.43V168H322.459V166.994H322.339C322.265 167.114 322.16 167.264 322.024 167.446C321.888 167.625 321.693 167.786 321.44 167.928C321.187 168.067 320.851 168.136 320.43 168.136ZM320.567 167.233C320.97 167.233 321.311 167.128 321.589 166.918C321.868 166.705 322.079 166.411 322.224 166.036C322.369 165.658 322.442 165.222 322.442 164.727C322.442 164.239 322.371 163.811 322.229 163.445C322.086 163.075 321.876 162.788 321.598 162.584C321.319 162.376 320.976 162.273 320.567 162.273C320.14 162.273 319.785 162.382 319.501 162.601C319.22 162.817 319.008 163.111 318.866 163.483C318.727 163.852 318.658 164.267 318.658 164.727C318.658 165.193 318.729 165.616 318.871 165.997C319.015 166.375 319.229 166.676 319.51 166.901C319.794 167.122 320.146 167.233 320.567 167.233ZM331.258 168.136C330.713 168.136 330.231 167.999 329.814 167.723C329.396 167.445 329.069 167.053 328.834 166.547C328.598 166.038 328.48 165.438 328.48 164.744C328.48 164.057 328.598 163.46 328.834 162.955C329.069 162.449 329.398 162.058 329.818 161.783C330.238 161.507 330.724 161.369 331.275 161.369C331.702 161.369 332.038 161.44 332.285 161.582C332.535 161.722 332.726 161.881 332.856 162.06C332.99 162.236 333.094 162.381 333.167 162.494H333.253V159.273H334.258V168H333.287V166.994H333.167C333.094 167.114 332.988 167.264 332.852 167.446C332.716 167.625 332.521 167.786 332.268 167.928C332.015 168.067 331.679 168.136 331.258 168.136ZM331.395 167.233C331.798 167.233 332.139 167.128 332.417 166.918C332.696 166.705 332.908 166.411 333.052 166.036C333.197 165.658 333.27 165.222 333.27 164.727C333.27 164.239 333.199 163.811 333.057 163.445C332.915 163.075 332.704 162.788 332.426 162.584C332.148 162.376 331.804 162.273 331.395 162.273C330.969 162.273 330.613 162.382 330.329 162.601C330.048 162.817 329.836 163.111 329.694 163.483C329.555 163.852 329.486 164.267 329.486 164.727C329.486 165.193 329.557 165.616 329.699 165.997C329.844 166.375 330.057 166.676 330.338 166.901C330.622 167.122 330.974 167.233 331.395 167.233ZM336.24 168V161.455H337.211V162.443H337.28C337.399 162.119 337.615 161.857 337.927 161.655C338.24 161.453 338.592 161.352 338.984 161.352C339.058 161.352 339.15 161.354 339.261 161.357C339.372 161.359 339.456 161.364 339.513 161.369V162.392C339.479 162.384 339.4 162.371 339.278 162.354C339.159 162.334 339.033 162.324 338.899 162.324C338.581 162.324 338.297 162.391 338.047 162.524C337.8 162.655 337.604 162.837 337.459 163.07C337.317 163.3 337.246 163.562 337.246 163.858V168H336.24ZM343.165 168.136C342.574 168.136 342.055 167.996 341.609 167.714C341.166 167.433 340.819 167.04 340.569 166.534C340.322 166.028 340.199 165.437 340.199 164.761C340.199 164.08 340.322 163.484 340.569 162.976C340.819 162.467 341.166 162.072 341.609 161.791C342.055 161.51 342.574 161.369 343.165 161.369C343.756 161.369 344.273 161.51 344.716 161.791C345.162 162.072 345.508 162.467 345.756 162.976C346.006 163.484 346.131 164.08 346.131 164.761C346.131 165.437 346.006 166.028 345.756 166.534C345.508 167.04 345.162 167.433 344.716 167.714C344.273 167.996 343.756 168.136 343.165 168.136ZM343.165 167.233C343.613 167.233 343.983 167.118 344.273 166.888C344.562 166.658 344.777 166.355 344.916 165.98C345.055 165.605 345.125 165.199 345.125 164.761C345.125 164.324 345.055 163.916 344.916 163.538C344.777 163.161 344.562 162.855 344.273 162.622C343.983 162.389 343.613 162.273 343.165 162.273C342.716 162.273 342.346 162.389 342.057 162.622C341.767 162.855 341.552 163.161 341.413 163.538C341.274 163.916 341.204 164.324 341.204 164.761C341.204 165.199 341.274 165.605 341.413 165.98C341.552 166.355 341.767 166.658 342.057 166.888C342.346 167.118 342.716 167.233 343.165 167.233ZM347.666 170.455V161.455H348.637V162.494H348.757C348.83 162.381 348.933 162.236 349.063 162.06C349.197 161.881 349.387 161.722 349.634 161.582C349.884 161.44 350.222 161.369 350.649 161.369C351.2 161.369 351.686 161.507 352.106 161.783C352.526 162.058 352.855 162.449 353.09 162.955C353.326 163.46 353.444 164.057 353.444 164.744C353.444 165.438 353.326 166.038 353.09 166.547C352.855 167.053 352.528 167.445 352.11 167.723C351.693 167.999 351.211 168.136 350.666 168.136C350.245 168.136 349.909 168.067 349.656 167.928C349.403 167.786 349.208 167.625 349.072 167.446C348.936 167.264 348.83 167.114 348.757 166.994H348.671V170.455H347.666ZM348.654 164.727C348.654 165.222 348.727 165.658 348.872 166.036C349.017 166.411 349.228 166.705 349.507 166.918C349.785 167.128 350.126 167.233 350.529 167.233C350.95 167.233 351.301 167.122 351.582 166.901C351.866 166.676 352.079 166.375 352.221 165.997C352.366 165.616 352.438 165.193 352.438 164.727C352.438 164.267 352.367 163.852 352.225 163.483C352.086 163.111 351.874 162.817 351.59 162.601C351.309 162.382 350.955 162.273 350.529 162.273C350.12 162.273 349.776 162.376 349.498 162.584C349.22 162.788 349.009 163.075 348.867 163.445C348.725 163.811 348.654 164.239 348.654 164.727ZM358.353 168V161.455H359.359V168H358.353ZM358.865 160.364C358.669 160.364 358.499 160.297 358.357 160.163C358.218 160.03 358.149 159.869 358.149 159.682C358.149 159.494 358.218 159.334 358.357 159.2C358.499 159.067 358.669 159 358.865 159C359.061 159 359.228 159.067 359.367 159.2C359.509 159.334 359.58 159.494 359.58 159.682C359.58 159.869 359.509 160.03 359.367 160.163C359.228 160.297 359.061 160.364 358.865 160.364ZM364.047 161.455V162.307H360.655V161.455H364.047ZM361.644 159.886H362.65V166.125C362.65 166.409 362.691 166.622 362.773 166.764C362.859 166.903 362.966 166.997 363.097 167.045C363.231 167.091 363.371 167.114 363.519 167.114C363.63 167.114 363.721 167.108 363.792 167.097C363.863 167.082 363.92 167.071 363.962 167.062L364.167 167.966C364.099 167.991 364.003 168.017 363.881 168.043C363.759 168.071 363.604 168.085 363.417 168.085C363.133 168.085 362.854 168.024 362.582 167.902C362.312 167.78 362.087 167.594 361.908 167.344C361.732 167.094 361.644 166.778 361.644 166.398V159.886ZM369.941 164.062V168H368.935V159.273H369.941V162.477H370.026C370.18 162.139 370.41 161.871 370.716 161.672C371.026 161.47 371.438 161.369 371.952 161.369C372.398 161.369 372.789 161.459 373.124 161.638C373.459 161.814 373.719 162.085 373.904 162.452C374.091 162.815 374.185 163.278 374.185 163.841V168H373.18V163.909C373.18 163.389 373.045 162.987 372.775 162.703C372.508 162.416 372.137 162.273 371.662 162.273C371.333 162.273 371.037 162.342 370.776 162.482C370.518 162.621 370.313 162.824 370.162 163.091C370.015 163.358 369.941 163.682 369.941 164.062ZM378.769 168.136C378.139 168.136 377.595 167.997 377.137 167.719C376.683 167.438 376.332 167.045 376.085 166.543C375.84 166.037 375.718 165.449 375.718 164.778C375.718 164.108 375.84 163.517 376.085 163.006C376.332 162.491 376.676 162.091 377.116 161.804C377.559 161.514 378.076 161.369 378.667 161.369C379.008 161.369 379.345 161.426 379.677 161.54C380.009 161.653 380.312 161.838 380.585 162.094C380.857 162.347 381.075 162.682 381.237 163.099C381.399 163.517 381.48 164.031 381.48 164.642V165.068H376.434V164.199H380.457C380.457 163.83 380.383 163.5 380.235 163.21C380.09 162.92 379.883 162.692 379.613 162.524C379.346 162.357 379.031 162.273 378.667 162.273C378.267 162.273 377.92 162.372 377.627 162.571C377.338 162.767 377.115 163.023 376.958 163.338C376.802 163.653 376.724 163.991 376.724 164.352V164.932C376.724 165.426 376.809 165.845 376.98 166.189C377.153 166.53 377.393 166.79 377.7 166.969C378.007 167.145 378.363 167.233 378.769 167.233C379.034 167.233 379.272 167.196 379.485 167.122C379.701 167.045 379.887 166.932 380.044 166.781C380.2 166.628 380.321 166.437 380.406 166.21L381.377 166.483C381.275 166.812 381.103 167.102 380.862 167.352C380.62 167.599 380.322 167.793 379.967 167.932C379.612 168.068 379.213 168.136 378.769 168.136ZM383.009 168V161.455H383.981V162.443H384.049C384.169 162.119 384.384 161.857 384.697 161.655C385.009 161.453 385.362 161.352 385.754 161.352C385.828 161.352 385.92 161.354 386.031 161.357C386.142 161.359 386.225 161.364 386.282 161.369V162.392C386.248 162.384 386.17 162.371 386.048 162.354C385.928 162.334 385.802 162.324 385.669 162.324C385.35 162.324 385.066 162.391 384.816 162.524C384.569 162.655 384.373 162.837 384.228 163.07C384.086 163.3 384.015 163.562 384.015 163.858V168H383.009ZM390.019 168.136C389.389 168.136 388.845 167.997 388.387 167.719C387.933 167.438 387.582 167.045 387.335 166.543C387.09 166.037 386.968 165.449 386.968 164.778C386.968 164.108 387.09 163.517 387.335 163.006C387.582 162.491 387.926 162.091 388.366 161.804C388.809 161.514 389.326 161.369 389.917 161.369C390.258 161.369 390.595 161.426 390.927 161.54C391.259 161.653 391.562 161.838 391.835 162.094C392.107 162.347 392.325 162.682 392.487 163.099C392.649 163.517 392.73 164.031 392.73 164.642V165.068H387.684V164.199H391.707C391.707 163.83 391.633 163.5 391.485 163.21C391.34 162.92 391.133 162.692 390.863 162.524C390.596 162.357 390.281 162.273 389.917 162.273C389.517 162.273 389.17 162.372 388.877 162.571C388.588 162.767 388.365 163.023 388.208 163.338C388.052 163.653 387.974 163.991 387.974 164.352V164.932C387.974 165.426 388.059 165.845 388.23 166.189C388.403 166.53 388.643 166.79 388.95 166.969C389.257 167.145 389.613 167.233 390.019 167.233C390.284 167.233 390.522 167.196 390.735 167.122C390.951 167.045 391.137 166.932 391.294 166.781C391.45 166.628 391.571 166.437 391.656 166.21L392.627 166.483C392.525 166.812 392.353 167.102 392.112 167.352C391.87 167.599 391.572 167.793 391.217 167.932C390.862 168.068 390.463 168.136 390.019 168.136Z" fill="#605B56"/>
<circle cx="324.554" cy="76" r="28" fill="#FFF7F2"/>
<path d="M316.762 82.3333C313.54 82.3333 310.929 79.7216 310.929 76.5C310.929 73.7188 312.875 71.3923 315.48 70.808C315.365 70.2932 315.304 69.7579 315.304 69.2083C315.304 65.1812 318.568 61.9166 322.595 61.9166C326.124 61.9166 329.066 64.4224 329.741 67.7514C329.79 67.7504 329.838 67.75 329.887 67.75C333.914 67.75 337.179 71.0146 337.179 75.0416C337.179 78.5693 334.674 81.5118 331.345 82.1874M328.429 77.9583L324.054 73.5833M324.054 73.5833L319.679 77.9583M324.054 73.5833L324.054 91.0833" stroke="#EF503A" stroke-width="2.91667" stroke-linecap="round" stroke-linejoin="round"/>
</svg>
