<svg width="294" height="273" viewBox="0 0 294 273" fill="none" xmlns="http://www.w3.org/2000/svg">
<g clip-path="url(#clip0_1_15)">
<path d="M146.873 261.653C169.795 261.653 188.377 243.071 188.377 220.149C188.377 197.227 169.795 178.645 146.873 178.645C123.951 178.645 105.369 197.227 105.369 220.149C105.369 243.071 123.951 261.653 146.873 261.653Z" fill="#EF503A"/>
<path fill-rule="evenodd" clip-rule="evenodd" d="M69.4241 247.186L135.971 87.4468C140.029 77.7053 153.829 77.7029 157.891 87.4429L224.507 247.186L293.931 272.06L175.028 9.51169C172.405 3.72045 166.636 0 160.279 0H133.652C127.295 0 121.526 3.72045 118.903 9.51169L0 272.06L69.4241 247.186Z" fill="#EF503A"/>
</g>
<defs>
<clipPath id="clip0_1_15">
<rect width="293.931" height="272.06" fill="white"/>
</clipPath>
</defs>
</svg>
