<svg width="32" height="33" viewBox="0 0 32 33" fill="none" xmlns="http://www.w3.org/2000/svg">
<circle cx="16" cy="16.5" r="16" fill="#FBFAE5"/>
<path fill-rule="evenodd" clip-rule="evenodd" d="M9.28003 23.2199C9.28003 22.6898 9.70984 22.2599 10.24 22.2599H21.76C22.2902 22.2599 22.72 22.6898 22.72 23.2199C22.72 23.7501 22.2902 24.1799 21.76 24.1799H10.24C9.70984 24.1799 9.28003 23.7501 9.28003 23.2199ZM12.4412 15.8211C12.8161 15.4462 13.4239 15.4462 13.7989 15.8211L15.04 17.0623L15.04 9.77995C15.04 9.24975 15.4698 8.81995 16 8.81995C16.5302 8.81995 16.96 9.24975 16.96 9.77995L16.96 17.0623L18.2012 15.8211C18.5761 15.4462 19.1839 15.4462 19.5589 15.8211C19.9338 16.196 19.9338 16.8039 19.5589 17.1788L16.6789 20.0588C16.4988 20.2388 16.2546 20.3399 16 20.3399C15.7454 20.3399 15.5012 20.2388 15.3212 20.0588L12.4412 17.1788C12.0663 16.8039 12.0663 16.196 12.4412 15.8211Z" fill="#9F9919"/>
</svg>
