<svg width="32" height="33" viewBox="0 0 32 33" fill="none" xmlns="http://www.w3.org/2000/svg">
<circle cx="16" cy="16.5" r="16" fill="#FFF2EB"/>
<path d="M22.4 17.3V11.7C22.4 10.8163 21.6837 10.1 20.8 10.1H11.2C10.3164 10.1 9.60001 10.8163 9.60001 11.7V17.3M22.4 17.3V21.3C22.4 22.1836 21.6837 22.9 20.8 22.9H11.2C10.3164 22.9 9.60001 22.1836 9.60001 21.3V17.3M22.4 17.3H20.3314C20.1192 17.3 19.9157 17.3843 19.7657 17.5343L17.8343 19.4657C17.6843 19.6157 17.4808 19.7 17.2686 19.7H14.7314C14.5192 19.7 14.3157 19.6157 14.1657 19.4657L12.2343 17.5343C12.0843 17.3843 11.8808 17.3 11.6686 17.3H9.60001" stroke="#EF503A" stroke-width="1.5" stroke-linecap="round" stroke-linejoin="round"/>
</svg>
