<svg width="32" height="33" viewBox="0 0 32 33" fill="none" xmlns="http://www.w3.org/2000/svg">
<circle cx="16" cy="16.5" r="16" fill="#E4FCF4"/>
<path d="M13.3471 17.5735C13.5089 17.2504 13.6 16.8858 13.6 16.4999C13.6 16.114 13.5089 15.7494 13.3471 15.4264M13.3471 17.5735C12.9531 18.36 12.1396 18.8999 11.2 18.8999C9.87453 18.8999 8.80002 17.8254 8.80002 16.4999C8.80002 15.1744 9.87453 14.0999 11.2 14.0999C12.1396 14.0999 12.9531 14.6399 13.3471 15.4264M13.3471 17.5735L18.6529 20.2264M13.3471 15.4264L18.6529 12.7735M18.6529 12.7735C19.0469 13.56 19.8604 14.0999 20.8 14.0999C22.1255 14.0999 23.2 13.0254 23.2 11.6999C23.2 10.3744 22.1255 9.29993 20.8 9.29993C19.4745 9.29993 18.4 10.3744 18.4 11.6999C18.4 12.0858 18.4911 12.4504 18.6529 12.7735ZM18.6529 20.2264C18.4911 20.5494 18.4 20.914 18.4 21.2999C18.4 22.6254 19.4745 23.6999 20.8 23.6999C22.1255 23.6999 23.2 22.6254 23.2 21.2999C23.2 19.9744 22.1255 18.8999 20.8 18.8999C19.8604 18.8999 19.0469 19.4399 18.6529 20.2264Z" stroke="#129F70" stroke-width="1.5" stroke-linecap="round" stroke-linejoin="round"/>
</svg>
